<svg width="143" height="29" viewBox="0 0 143 29" fill="none" xmlns="http://www.w3.org/2000/svg">
<path d="M11.2756 11.8931V9.82199H12.4424V21.7239H11.2756V19.5944C10.206 21.228 8.6599 22.0447 6.63736 22.0447C5.02321 22.0447 3.65216 21.471 2.52421 20.3236C1.39625 19.1762 0.832275 17.6593 0.832275 15.7729C0.832275 13.9254 1.36708 12.428 2.4367 11.2806C3.50631 10.1331 4.90653 9.55944 6.63736 9.55944C8.621 9.55944 10.1671 10.3373 11.2756 11.8931ZM6.6957 10.668C5.43161 10.668 4.34255 11.125 3.42852 12.039C2.51449 12.9336 2.05747 14.1491 2.05747 15.6854C2.05747 17.1051 2.47559 18.34 3.31183 19.3902C4.14808 20.4209 5.28576 20.9362 6.72487 20.9362C8.14454 20.9362 9.26277 20.4306 10.0796 19.4193C10.9158 18.3886 11.3339 17.144 11.3339 15.6854C11.3339 14.0713 10.8575 12.8364 9.90454 11.9807C8.95161 11.1055 7.882 10.668 6.6957 10.668Z" fill="#2E3131"/>
<path d="M32.7347 11.0764V12.6224C31.6068 11.3194 30.2357 10.668 28.6216 10.668C27.1824 10.668 25.9961 11.1639 25.0627 12.1557C24.1292 13.1281 23.6624 14.3533 23.6624 15.8313C23.6624 17.426 24.1584 18.6803 25.1502 19.5944C26.142 20.4889 27.2797 20.9362 28.5632 20.9362C30.1385 20.9362 31.5776 20.2264 32.8806 18.8067V20.382C31.6359 21.4905 30.1871 22.0447 28.534 22.0447C26.7449 22.0447 25.2766 21.4613 24.1292 20.2945C23.0012 19.1082 22.4372 17.6302 22.4372 15.8604C22.4372 14.0518 23.0012 12.5544 24.1292 11.3681C25.2571 10.1623 26.7546 9.55944 28.6216 9.55944C30.1579 9.55944 31.529 10.0651 32.7347 11.0764Z" fill="#2E3131"/>
<path d="M52.349 11.8931V9.82199H53.5158V21.7239H52.349V19.5944C51.2794 21.228 49.7333 22.0447 47.7107 22.0447C46.0966 22.0447 44.7255 21.471 43.5976 20.3236C42.4696 19.1762 41.9057 17.6593 41.9057 15.7729C41.9057 13.9254 42.4405 12.428 43.5101 11.2806C44.5797 10.1331 45.9799 9.55944 47.7107 9.55944C49.6944 9.55944 51.2405 10.3373 52.349 11.8931ZM47.7691 10.668C46.505 10.668 45.4159 11.125 44.5019 12.039C43.5879 12.9336 43.1308 14.1491 43.1308 15.6854C43.1308 17.1051 43.549 18.34 44.3852 19.3902C45.2215 20.4209 46.3591 20.9362 47.7982 20.9362C49.2179 20.9362 50.3361 20.4306 51.1529 19.4193C51.9892 18.3886 52.4073 17.144 52.4073 15.6854C52.4073 14.0713 51.9308 12.8364 50.9779 11.9807C50.025 11.1055 48.9554 10.668 47.7691 10.668Z" fill="#2E3131"/>
<path d="M73.9539 11.8931V0.458008H75.1208V21.7239H73.9539V19.5944C72.8843 21.228 71.348 22.0447 69.3449 22.0447C67.7307 22.0447 66.35 21.4905 65.2026 20.382C64.0746 19.254 63.5106 17.6982 63.5106 15.7146C63.5106 13.692 64.0843 12.1654 65.2317 11.1347C66.3791 10.0845 67.7502 9.55944 69.3449 9.55944C71.3285 9.55944 72.8649 10.3373 73.9539 11.8931ZM69.3449 10.668C68.0419 10.668 66.9431 11.1055 66.0485 11.9807C65.1734 12.8558 64.7358 14.0907 64.7358 15.6854C64.7358 17.3384 65.1928 18.6317 66.1069 19.5652C67.0209 20.4792 68.1197 20.9362 69.4032 20.9362C70.6673 20.9362 71.7467 20.4792 72.6412 19.5652C73.5553 18.6317 74.0123 17.3384 74.0123 15.6854C74.0123 14.2463 73.5942 13.0503 72.7579 12.0973C71.9217 11.1444 70.784 10.668 69.3449 10.668Z" fill="#2E3131"/>
<path d="M96.5216 15.9188H86.3408C86.3408 17.3968 86.7978 18.6025 87.7118 19.536C88.6453 20.4695 89.7635 20.9362 91.0665 20.9362C92 20.9362 92.8265 20.6931 93.5461 20.207C94.2656 19.7013 94.8199 19.0401 95.2089 18.2233L96.2007 18.8067C95.7534 19.6624 95.1019 20.4209 94.2462 21.0821C93.3905 21.7239 92.3015 22.0447 90.979 22.0447C89.1704 22.0447 87.741 21.4613 86.6908 20.2945C85.6407 19.1082 85.1156 17.6204 85.1156 15.8313C85.1156 13.8671 85.6796 12.3307 86.8075 11.2222C87.9549 10.1137 89.3163 9.55944 90.8915 9.55944C92.5056 9.55944 93.8475 10.1526 94.9171 11.3389C95.9867 12.5252 96.5216 14.0518 96.5216 15.9188ZM86.4283 14.8103H95.2964C95.1408 13.6045 94.6546 12.6127 93.8378 11.8348C93.0405 11.0569 92.0583 10.668 90.8915 10.668C89.7052 10.668 88.7037 11.0666 87.8869 11.864C87.0701 12.6419 86.5839 13.624 86.4283 14.8103Z" fill="#2E3131"/>
<path d="M106.539 21.7239V9.82199H107.706V11.3097C108.386 10.1429 109.417 9.55944 110.798 9.55944C112.47 9.55944 113.579 10.279 114.123 11.7181C114.804 10.279 115.981 9.55944 117.653 9.55944C118.781 9.55944 119.676 9.89005 120.337 10.5513C121.018 11.2319 121.358 12.3113 121.358 13.7893V21.7239H120.191V13.7893C120.191 12.6419 119.958 11.8251 119.491 11.3389C119.063 10.8916 118.47 10.668 117.712 10.668C117.128 10.668 116.613 10.7846 116.165 11.018C115.738 11.2514 115.417 11.5139 115.203 11.8056C115.008 12.0973 114.853 12.4571 114.736 12.885C114.639 13.3128 114.58 13.6337 114.561 13.8476C114.542 14.0615 114.532 14.2949 114.532 14.5477V21.7239H113.365V14.081C113.365 11.8056 112.49 10.668 110.74 10.668C109.748 10.668 108.989 11.0569 108.464 11.8348C107.959 12.5933 107.706 13.5948 107.706 14.8394V21.7239H106.539Z" fill="#2E3131"/>
<path d="M133.124 28.4333L135.924 21.9281L130.265 9.82199H131.607L136.595 20.4112L140.942 9.82199H142.284L134.466 28.4333H133.124Z" fill="#2E3131"/>
</svg>
