<svg width="23" height="22" viewBox="0 0 23 22" fill="none" xmlns="http://www.w3.org/2000/svg">
<path fill-rule="evenodd" clip-rule="evenodd" d="M2.4073 0.292894C2.01678 -0.0976305 1.38361 -0.0976316 0.99309 0.292892C0.602565 0.683416 0.602564 1.31658 0.993087 1.70711L10.0848 10.7989L0.993713 19.89C0.603189 20.2805 0.603191 20.9137 0.993715 21.3042C1.38424 21.6947 2.01741 21.6947 2.40793 21.3042L11.499 12.2131L20.5901 21.3042C20.9806 21.6947 21.6138 21.6947 22.0043 21.3042C22.3949 20.9137 22.3949 20.2805 22.0043 19.89L12.9132 10.7989L22.005 1.70711C22.3955 1.31658 22.3955 0.683416 22.005 0.292892C21.6144 -0.0976316 20.9813 -0.0976305 20.5907 0.292894L11.499 9.38465L2.4073 0.292894Z" fill="#2E3131"/>
</svg>
