<svg width="67" height="63" viewBox="0 0 67 63" fill="none" xmlns="http://www.w3.org/2000/svg">
<path fill-rule="evenodd" clip-rule="evenodd" d="M35.7445 0.0743387C38.2583 0.0429628 41.7008 0 44.505 0L44.5079 0.00626953C49.0013 0.00626953 49.3327 0.119684 49.4936 0.174722C49.7294 0.256299 50.0223 0.53098 51.1362 1.94579C51.2029 2.03075 51.2565 2.09881 51.2926 2.1437C51.8591 2.85073 52.4446 3.56204 53.0137 4.25347L53.0141 4.25398L53.0146 4.25466L53.1199 4.3825C53.4795 4.81838 53.8512 5.26971 54.2147 5.71573L58.5787 11.0603C58.7331 11.25 58.8891 11.4431 59.0396 11.6299L59.0516 11.6447L59.0518 11.6449L59.0521 11.6453C59.3688 12.0378 59.6959 12.443 60.0254 12.8328C60.3343 13.1977 60.6393 13.5747 60.9317 13.9391C61.1124 14.1636 61.2996 14.3958 61.4852 14.6217L65.6864 19.7533C65.9885 20.1221 66.1629 20.3857 66.2604 20.6082C66.4378 21.0209 66.3218 21.3033 66.1941 21.4679C63.6434 24.7638 61.0239 28.0935 58.4896 31.3149L58.4427 31.3745C56.4566 33.8957 54.4057 36.5023 52.4006 39.0756C52.2475 39.2729 52.0583 39.5018 51.8571 39.7453L51.8018 39.8122C51.3496 40.3577 50.8375 40.976 50.5588 41.423L50.5476 41.4404L50.5349 41.4573L49.8328 42.3715L41.9279 52.4504C41.0464 53.5742 40.1518 54.7182 39.2869 55.8246L36.3721 59.5506C36.3097 59.6302 36.2464 59.7123 36.185 59.7919L36.1713 59.8096C36.0723 59.9378 35.9702 60.07 35.8658 60.1969L34.3553 62.1248L34.2871 62.2122L34.2808 62.2203L34.2807 62.2203L34.2807 62.2203C34.1175 62.4288 33.9483 62.6448 33.7155 62.8397L33.6468 62.8972L33.5245 63H32.8268L32.7064 62.9035L32.6382 62.8489C32.3939 62.6542 32.2371 62.4479 32.0858 62.2488L32.0851 62.248C32.0496 62.1997 32.013 62.1514 31.9735 62.1031L1.07889 22.6577H0.912964V22.4458L0.0343569 21.3241L0.0182734 21.2087L0.00901819 21.1416V21.1368C-0.0616351 20.5754 0.297957 20.1564 0.560593 19.8513L0.582065 19.8266C0.642264 19.7572 0.70024 19.6905 0.743805 19.6283C1.22795 18.9765 1.74113 18.3328 2.23753 17.7102L2.23759 17.7101L2.24263 17.7038L2.4304 17.4672L2.43083 17.4666C2.58471 17.2728 2.74027 17.0769 2.89264 16.8832L11.4198 6.01018C11.8577 5.45217 12.2951 4.89449 12.732 4.33713L12.9601 4.04617L12.9609 4.04516L12.9609 4.04515C13.3907 3.49691 13.8301 2.93646 14.2639 2.38505C14.4569 2.13823 14.6508 1.89157 14.8457 1.64507C15.121 1.29511 15.4061 0.932587 15.6843 0.576349C15.9908 0.182943 16.2676 0.10571 16.6413 0.10571H32.6679C33.1678 0.10571 34.2283 0.0927978 35.577 0.0763776L35.7445 0.0743387ZM3.92369 23.0492C3.82978 22.9283 3.7233 22.7968 3.60889 22.6577H23.5311L17.3336 40.1849C14.8607 37.0328 12.349 33.8266 9.87855 30.6543C9.17932 29.7565 8.46629 28.8469 7.77525 27.9653L7.71607 27.8898C7.12307 27.1339 6.51058 26.3524 5.90978 25.583C5.59144 25.1762 5.27261 24.7695 4.95329 24.3627C4.61513 23.9321 4.26526 23.4861 3.92369 23.0492ZM19.0903 42.4234C19.2629 42.6433 19.4352 42.8629 19.6073 43.0821C22.2775 46.4842 25.0383 50.0022 27.7446 53.4694L28.2075 54.0632L28.2984 54.1797C28.7652 54.7777 29.2461 55.3939 29.7282 55.994L33.1722 60.3649L47.4398 42.1666L39.6794 22.6577H26.0792L19.0903 42.4234ZM26.9287 20.2553H38.7237L32.4793 4.55745L26.9287 20.2553ZM42.2649 22.6577L49.1609 39.9934C49.5065 39.6194 49.937 39.035 50.3171 38.5181L50.3472 38.4773C50.5329 38.2255 50.7078 37.9882 50.8599 37.794L62.468 22.9749C62.5458 22.8775 62.6333 22.7707 62.7265 22.6577H42.2649ZM41.3092 20.2553L34.1284 2.20342C34.1123 2.16304 34.0952 2.12374 34.077 2.08551L48.0357 2.08964C48.0927 2.08964 48.1456 2.08894 48.1947 2.0883C48.2371 2.08774 48.2766 2.08722 48.3135 2.08722C48.3929 2.08722 48.5883 2.08722 48.6458 2.11088C48.7176 2.15879 48.783 2.21538 48.8407 2.27934C48.8894 2.34064 48.9469 2.41305 48.9961 2.47725C49.0453 2.54145 49.0936 2.60179 49.1292 2.6462C49.8956 3.55514 50.6548 4.49787 51.3886 5.40922C52.0961 6.28871 52.828 7.19523 53.5676 8.0781L55.5308 10.4839C56.1552 11.2846 56.8147 12.0802 57.4537 12.8512L57.4541 12.8516L57.5766 12.9993C57.8785 13.3632 58.1883 13.7365 58.49 14.1042C58.9329 14.6458 59.3804 15.1989 59.8141 15.7349L59.8499 15.7792C60.6905 16.819 61.5597 17.8935 62.4363 18.9361L63.5154 20.2553H41.3092ZM30.8162 2.08455L17.0404 2.08047C17.0306 2.09254 17.0209 2.10461 17.0106 2.11619L17.0063 2.12149L17.0097 2.12729L9.59886 11.5705C8.92247 12.4318 8.23864 13.3044 7.56487 14.1642L6.85606 15.0687C6.49581 15.5272 6.13701 15.9853 5.77969 16.4429L2.79727 20.2553H24.3805L30.7403 2.26904C30.7629 2.20501 30.7883 2.14351 30.8162 2.08455Z" fill="#2E3131"/>
</svg>
