<svg width="181" height="47" viewBox="0 0 181 47" fill="none" xmlns="http://www.w3.org/2000/svg">
<path fill-rule="evenodd" clip-rule="evenodd" d="M126.831 0H123.586V46.483H126.831V26.3863V26.3289L126.83 26.2734V26.2217L126.828 26.1699V26.1201L126.827 26.0721L126.826 26.025L126.824 25.9789L126.823 25.9357L126.822 25.8943L126.819 25.8538L126.818 25.8134L126.816 25.7738L126.815 25.7371V25.7353L126.813 25.7005L126.812 25.6656L126.811 25.6318V25.6299L126.81 25.5979V25.597L126.809 25.5659V25.565V25.533V25.5019V25.4718V25.4427V25.4125L126.81 25.3853H126.811V25.3561L126.813 25.3288L126.816 25.3015L126.819 25.2761L126.822 25.2479L126.825 25.2234H126.826L126.83 25.1971L126.834 25.1717L126.84 25.1444L126.846 25.1181L126.853 25.0936L126.86 25.0673L126.869 25.0419V25.04L126.876 25.0146H126.877L126.887 24.9892L126.888 24.9882L126.896 24.9619V24.9609L126.908 24.9346L126.919 24.9064H126.921L126.933 24.8791L126.947 24.8499L126.961 24.8208L126.977 24.7906L126.993 24.7605H126.994L127.011 24.7304L127.03 24.6994L127.049 24.6665H127.05L127.07 24.6326H127.071L127.092 24.5996V24.5978L127.115 24.562L127.139 24.5263L127.164 24.4886L127.191 24.4501H127.192L127.218 24.4105H127.219L127.246 24.3691H127.248L127.277 24.3268H127.278L127.31 24.2826H127.31L127.342 24.2384H127.343L127.377 24.1923H127.378L127.414 24.1433L127.516 24.0079H127.517L127.619 23.8733L127.724 23.7397L127.829 23.6052L127.935 23.4725H127.936L128.043 23.3427L128.152 23.2128L128.261 23.0839L128.371 22.955H128.372L128.482 22.829H128.483L128.595 22.7029L128.709 22.5768L128.824 22.4554L128.938 22.3322H128.939L129.056 22.2117L129.173 22.0913L129.293 21.9728L129.412 21.8542L129.533 21.7376L129.655 21.6228L129.778 21.5089L129.902 21.397L130.029 21.2859L130.155 21.1768L130.283 21.0686L130.411 20.9623L130.54 20.8569H130.541L130.672 20.7534L130.805 20.6509L130.938 20.5493L131.072 20.4505L131.208 20.3526L131.344 20.2567L131.482 20.1616L131.621 20.0685L131.762 19.9782L131.903 19.8878L132.045 19.8022L132.189 19.7147L132.334 19.63L132.479 19.5482H132.481L132.628 19.4673L132.775 19.3882H132.776L132.927 19.3101L133.077 19.2368L133.229 19.1624L133.383 19.0919L133.536 19.0213H133.538L133.693 18.9536L133.85 18.8886H133.851L134.009 18.8247L134.168 18.7635L134.329 18.7033L134.491 18.645L134.655 18.5904L134.819 18.5368H134.821L134.986 18.485L135.153 18.4352L135.322 18.39L135.491 18.3448H135.492L135.663 18.3016L135.835 18.2611H135.836L136.008 18.2244H136.009L136.185 18.1877H136.186L136.311 18.1642L136.439 18.1407H136.44L136.568 18.1181L136.698 18.0955H136.7L136.83 18.0748L136.962 18.055L137.095 18.0353H137.096L137.23 18.0165L137.365 18.0014L137.5 17.9864L137.637 17.9713L137.775 17.9572L137.913 17.9468L138.051 17.9365L138.191 17.9271L138.329 17.9177H138.33L138.469 17.912L138.609 17.9073L138.748 17.9055H138.75L138.889 17.9045H139.029L139.169 17.9073L139.309 17.912L139.449 17.9177L139.588 17.9261L139.726 17.9356L139.865 17.9468L140.004 17.961L140.141 17.977L140.278 17.9958H140.28L140.415 18.0155L140.55 18.0372H140.551L140.687 18.0626L140.819 18.0908L140.953 18.12L141.084 18.151L141.215 18.1868H141.216L141.345 18.2244L141.473 18.2649L141.601 18.3053L141.726 18.3514L141.851 18.3994L141.975 18.4502L142.096 18.5038L142.215 18.5603L142.333 18.6196L142.448 18.6826L142.563 18.7475L142.676 18.8153L142.785 18.8877L142.894 18.963L143 19.042L143.104 19.122L143.205 19.2067L143.304 19.296L143.402 19.3864L143.496 19.4814L143.588 19.5802L143.676 19.6837L143.763 19.7881L143.848 19.8982L143.927 20.0111L144.005 20.1287L144.08 20.2501L144.143 20.3592C144.185 20.4307 144.224 20.5041 144.263 20.5794V20.5803L144.318 20.6942L144.372 20.8099L144.424 20.9284L144.475 21.047L144.522 21.1674L144.611 21.412L144.653 21.5372L144.693 21.6642L144.731 21.7912C144.768 21.9191 144.802 22.049 144.834 22.1816H144.835L144.866 22.3134L144.894 22.447H144.895C144.923 22.5815 144.949 22.7151 144.971 22.8534H144.972L144.996 22.9889L145.017 23.1272V23.1282L145.037 23.2665L145.056 23.4057L145.074 23.544L145.09 23.6851H145.091L145.106 23.8244V23.8253L145.12 23.9655V23.9674L145.132 24.1076L145.144 24.2496L145.155 24.3917L145.164 24.5347H145.165L145.174 24.6759L145.181 24.8198L145.188 24.9638L145.194 25.1049L145.2 25.2479L145.205 25.3909L145.208 25.533L145.211 25.676L145.215 25.8181V25.9601H145.216L145.217 26.1003H145.218L145.219 26.2424V26.3826V26.5218V26.6611V26.8013L145.218 26.9386L145.217 27.076H145.216L145.215 27.2133V27.3479L145.212 27.4824L145.211 27.617L145.209 27.7496V27.7506L145.208 27.8814L145.207 28.0121L145.206 28.141L145.204 28.2699L145.203 28.397V28.3979L145.202 28.5221L145.201 28.6472V28.7695V28.7714V29.0461V29.048V29.3237V29.5994V29.6012V29.8769L145.2 30.1535V30.1554V30.4301V30.7067V30.7077V30.9843V30.9852V31.2609V31.5385V31.8132V31.816V32.0907V32.0917V32.3692L145.199 32.644V32.6449V32.9215V32.9225V33.2H145.198V33.4738V33.4757L145.197 33.7523V34.028V34.3055H145.196V34.5831V34.8587H145.195V35.1363V35.4129H145.194V35.6895V35.9661V35.9671V36.2427V36.5203H145.193V36.796V36.7969V37.0735V37.3501V37.6258V37.6268L145.192 37.9034V38.1809V38.4566V38.7341V39.0098L145.191 39.8406V40.1172V40.3947V40.6704V40.948V41.2246V41.5012V41.7778V42.0544V42.331V42.6076H145.192V42.8852V43.1618V43.4384V43.7169V43.9926H145.193V44.2683V44.5468L145.194 44.8224V45.099V45.3775H145.195V45.6523H145.196L145.197 45.9308L145.198 46.2064L145.199 46.483H148.408L148.41 46.1481L148.413 45.8113L148.414 45.4744L148.416 45.1395L148.417 44.8036L148.419 44.4677V44.1309H148.421V43.795L148.423 43.4582L148.424 43.1223L148.426 42.7864V42.7855V42.4505V42.4486V42.1137L148.428 41.7759V41.4401V41.1032L148.429 40.7664V40.4305V40.0927H148.43V39.7559V39.42V39.0823V38.7454V38.4095L148.429 37.3991V37.0613H148.428V36.7245V36.3876V36.0508V35.714H148.426V35.3772V35.3762V35.0403V35.0385V34.7035V34.3648H148.425V34.028H148.424V33.6921H148.423V33.3553L148.422 33.0166L148.421 32.6816V32.3448V32.3438V32.0061H148.419V31.6692V31.3334H148.418V30.9956H148.417V30.6588V30.3229H148.416V29.9851V29.6483H148.416V29.3133V28.9756H148.414V28.6378L148.413 28.3029V27.966V27.6302L148.412 27.2924V26.9556L148.411 26.2828V25.9479V24.9393L148.41 24.7361V24.6354V24.5347H148.409V24.4359H148.408L148.407 24.3362L148.406 24.2374H148.405L148.404 24.1396H148.403L148.402 24.0436L148.4 23.9448H148.399L148.398 23.8488H148.397L148.395 23.7519L148.391 23.656H148.39L148.386 23.5609L148.383 23.4659H148.382L148.379 23.3709H148.378L148.373 23.2768H148.371L148.367 23.1837L148.362 23.0896H148.361L148.355 22.9955L148.348 22.9033H148.347L148.341 22.8101H148.34L148.333 22.7189H148.332L148.323 22.6267H148.322L148.314 22.5354H148.313L148.303 22.4441L148.293 22.3519L148.281 22.2616L148.27 22.1704H148.269L148.256 22.08L148.242 21.9888L148.229 21.8984L148.214 21.8091L148.198 21.7187H148.197L148.182 21.6294L148.164 21.539L148.146 21.4487L148.127 21.3603L148.108 21.2709H148.107L148.087 21.1806H148.086L148.064 21.0912L148.043 21.0027L148.019 20.9124L147.994 20.8231L147.968 20.7337L147.942 20.6443L147.915 20.5549L147.886 20.4655L147.856 20.3752L147.826 20.2868H147.825L147.794 20.1974L147.762 20.107H147.761L147.727 20.0167L147.691 19.9264L147.655 19.8361L147.618 19.7467L147.579 19.6554L147.54 19.5651L147.497 19.4748L147.455 19.3826L147.412 19.2913L147.366 19.201L147.32 19.1079L147.272 19.0157L147.183 18.8501L147.089 18.6892L146.992 18.5339L146.893 18.3806L146.788 18.2329L146.682 18.0889H146.681L146.571 17.9478L146.458 17.8123L146.342 17.6796L146.222 17.5526L146.1 17.4294L145.974 17.3071L145.846 17.1913L145.715 17.0775L145.582 16.9693L145.445 16.862L145.306 16.7614L145.166 16.6626L145.023 16.5666L144.878 16.4744L144.729 16.3869L144.579 16.3013L144.428 16.2204L144.273 16.1423L144.118 16.067L143.961 15.9955H143.96L143.8 15.9268L143.64 15.861H143.639L143.477 15.797L143.313 15.7377L143.148 15.6822L142.981 15.6276L142.812 15.575L142.643 15.5279L142.472 15.4827L142.301 15.4385L142.128 15.399L141.954 15.3604L141.779 15.3256L141.605 15.2946L141.428 15.2635L141.253 15.2344H141.251L141.075 15.2099L140.897 15.1864L140.72 15.1657L140.542 15.1478L140.363 15.1309L140.184 15.1168L140.005 15.1055V15.1045L139.826 15.0961L139.648 15.0876V15.0866L139.469 15.081L139.291 15.0772V15.0754H139.112V15.0744H138.934L138.757 15.0754L138.58 15.0772L138.404 15.0819V15.0829C138.227 15.0895 138.052 15.0961 137.878 15.1055L137.532 15.129V15.1299L137.362 15.1412C136.815 15.2466 136.303 15.3586 135.822 15.4799H135.821L135.415 15.5872V15.5881L135.023 15.6982L134.833 15.7556L134.646 15.8139L134.279 15.9353L134.1 15.9974L133.75 16.1253L133.579 16.1912L133.41 16.2599L133.245 16.3295H133.244L133.08 16.3991L132.918 16.4697V16.4706L132.758 16.544L132.445 16.6946H132.444L132.29 16.7717L132.137 16.8517L131.986 16.9317L131.835 17.0126V17.0145L131.687 17.0963L131.539 17.1829L131.392 17.2685L131.248 17.3569L131.104 17.4473L130.959 17.5385L130.817 17.6326L130.675 17.7267L130.532 17.8227L130.39 17.9214L130.249 18.0212L130.107 18.1218L129.967 18.2263L129.825 18.3307L129.684 18.438L129.543 18.5452L129.4 18.6563L129.258 18.7682L129.115 18.883L128.971 18.9978L128.826 19.1163L128.682 19.2368L128.535 19.3572L128.387 19.4814L128.239 19.6065L128.089 19.7335L127.939 19.8634L127.785 19.9951L127.631 20.1278L127.474 20.2642L127.316 20.4015L127.156 20.5408L126.994 20.6819L126.831 20.8259V0ZM144.143 20.3592C144.186 20.4307 144.224 20.506 144.263 20.5794L144.143 20.3592ZM162.461 16.6438H176.759L176.773 46.483H180.02V14.2051H162.474H162.473L162.461 16.6438ZM25.463 46.4398H25.464L25.4734 44.049H3.38785L3.38502 26.5011L3.38408 8.95037L0 8.94567V46.4623V46.4633H0.0414412H0.0847672V46.4642H0.126212H0.169531V46.4661H0.210976H0.253359H0.254302H0.295743V46.467H0.338126H0.380514L0.42289 46.468H0.465277H0.46622H0.506718H0.507661H0.550044H0.550987H0.591486H0.592428H0.634808H0.635751L0.719579 46.467H0.761962H0.804346V46.4661H0.846726H0.88911H0.931493H0.973881V46.4642H1.0172H1.05959L1.10103 46.4633H1.10197H1.1858H1.18674L1.22912 46.4623L1.27056 46.4614H1.2715L1.31389 46.4605L1.35627 46.4586L1.39866 46.4576H1.44104H1.48248H1.52581L1.56819 46.4567L1.61057 46.4548L1.65295 46.4539L1.69534 46.4529H1.73772L1.78011 46.452H1.82249L1.86487 46.4501H1.90726H1.94964L1.99297 46.4492L2.03441 46.4482H2.07585L2.11917 46.4473L2.16156 46.4463H2.20394L2.24632 46.4454L2.2887 46.4435H2.33109H2.37347H2.41492H2.41586H2.4573H2.49968H2.54206H2.58445H2.62683H2.66828H2.71066H2.97344H3.23527H3.49711H3.75989H4.02078H4.28449H4.54728H4.80816H5.07095H5.33278H5.59461H5.59556H5.85739H6.11923H6.38106H6.38295H6.6429H6.90662H7.16846H7.16939H7.43029H7.69307H7.9549H8.21674H8.47952H8.74041H8.74135H9.00319H9.26596H9.5278H9.78963H10.0515H10.3152H10.577H10.578H10.8389H11.1016H11.3625H11.3635H11.6253H11.8881H12.149H12.1499H12.4118H12.6736H12.9373H13.1991H13.461H13.7238H13.9856H14.2474H14.5102H14.772H15.0339H15.2967H15.5585H15.8203H16.0831H16.3449H16.3459H16.6077H16.8696H17.1314H17.1323H17.3942H17.656H17.9188H18.1806H18.4424H18.4434H18.7043H18.7052H18.9671H19.2289H19.2298H19.4907H19.4917H19.584H19.5849H19.6782H19.6791H19.7705H19.7723H19.8637H19.8646L19.957 46.4426H19.9579H20.0511H20.0521H20.1444L20.2376 46.4416H20.3299H20.3309L20.4241 46.4398H20.4251H20.5174H20.5183H20.6106H20.7038L20.7971 46.4388H20.798H20.8913H20.9836H20.9845H21.0778L21.1701 46.4369H21.171H21.2642H21.3575L21.4507 46.4351H21.544H21.6372L21.7305 46.4341L21.8237 46.4332H21.917H21.9179H22.0111H22.1034H22.1044H22.1967L22.2909 46.4313H22.3841L22.4773 46.4303H22.5706L22.6638 46.4294H22.7571H22.758L22.8513 46.4285H22.9436H22.9445H23.0368H23.1301H23.131H23.2242H23.3175H23.4107H23.504H23.5972H23.6905H23.7837H23.8779H23.9702H24.0634H24.1567H24.2509L24.3441 46.4294H24.4374L24.5297 46.4303H24.5306L24.6238 46.4313L24.7171 46.4332H24.718H24.8103H24.9036L24.9968 46.4341L25.0901 46.4351H25.091H25.1842L25.2765 46.4369H25.2775L25.3707 46.4388L25.463 46.4398ZM82.3294 28.6162C82.3397 28.4412 82.3529 28.2643 82.3671 28.0902L82.3915 27.8306V27.8296L82.4179 27.5681H82.4188L82.449 27.3084H82.4499L82.4848 27.0487H82.4857L82.5234 26.7909H82.5243L82.5658 26.535H82.5667L82.6119 26.2791L82.6609 26.026C82.6958 25.8566 82.7325 25.6901 82.7711 25.5236C82.8107 25.358 82.8521 25.1933 82.8954 25.0287H82.8973L82.9642 24.785L83.0358 24.5441L83.1111 24.3033L83.1883 24.0681H83.1893L83.2712 23.8329L83.356 23.6014H83.3579L83.4464 23.3728L83.5396 23.147L83.6367 22.9249L83.7356 22.7048L83.841 22.4893L83.9484 22.2776L84.0596 22.0678L84.1735 21.8627L84.2291 21.7648L84.2856 21.6698L84.344 21.5748L84.4024 21.4807L84.4627 21.3857L84.5229 21.2925L84.5842 21.2013L84.6463 21.1081L84.7104 21.0178L84.7744 20.9247L84.8404 20.8343L84.9063 20.7459L84.9722 20.6565L85.041 20.569L85.1097 20.4796L85.1794 20.3931L85.2501 20.3065L85.3216 20.2218L85.3932 20.1372L85.4667 20.0525L85.5411 19.9678L85.6164 19.885L85.6909 19.8032L85.7672 19.7204L85.8453 19.6404L85.9235 19.5595L86.0017 19.4814L86.0827 19.4023L86.1618 19.3243L86.2437 19.2462L86.3247 19.1718V19.1709L86.4085 19.0956L86.4924 19.0213L86.5762 18.9479L86.661 18.8726L86.7467 18.8021L86.8333 18.7296L86.9209 18.66V18.6591L87.0085 18.5904L87.097 18.5208L87.1874 18.453L87.2769 18.3862V18.3843L87.3674 18.3194L87.4587 18.2545L87.551 18.1877L87.6433 18.1256L87.7375 18.0626V18.0616L87.8298 18.0005L87.9259 17.9384L88.0201 17.8782L88.1171 17.8208V17.8198L88.2131 17.7615L88.3111 17.7041L88.4081 17.6486L88.507 17.594V17.5931L88.6059 17.5385L88.7057 17.4849L88.8056 17.4331L88.9063 17.3814V17.3795L89.0071 17.3306V17.3297L89.1098 17.2817L89.2115 17.2337V17.2318L89.3151 17.1857L89.4178 17.1405V17.1387L89.6033 17.0596V17.0577L89.7889 16.9815L89.9744 16.9063V16.9053L90.1628 16.8329L90.3502 16.7623L90.5386 16.6936V16.6927L90.7288 16.6278V16.6268L90.9191 16.5638L91.1093 16.5026L91.3015 16.4443V16.4434L91.4945 16.3869V16.386L91.6876 16.3314L91.8807 16.2796L92.0757 16.2307L92.2697 16.1837V16.1818L92.4656 16.1366L92.6615 16.0943L92.8574 16.0529V16.052L93.0543 16.0134L93.2502 15.9767L93.4489 15.9419L93.6467 15.9108H93.6476L93.8454 15.8798L94.0442 15.8506L94.2429 15.8262V15.8243L94.4426 15.8008L94.6432 15.7782L94.8428 15.7584L95.0425 15.7405H95.0435L95.2431 15.7236H95.245L95.4447 15.7095L95.6453 15.6982L95.8469 15.6878H95.8478L96.0484 15.6794V15.6784L96.249 15.6728L96.4506 15.6672L96.6521 15.6662H96.6531L96.8537 15.6643H96.8547L97.0553 15.6672L97.2578 15.6681L97.4593 15.6737L97.6609 15.6803L97.8634 15.6888L98.064 15.6982L98.2655 15.7114L98.4671 15.7245L98.6677 15.7405H98.6687L98.8702 15.7575L99.0699 15.7763L99.2714 15.797L99.4711 15.8186H99.4721L99.6708 15.8421H99.6717L99.8705 15.8676H99.8714L100.071 15.8958L100.271 15.9231L100.469 15.955H100.469L100.667 15.9861H100.668L100.866 16.02L101.063 16.0557L101.262 16.0905L101.457 16.1291L101.654 16.1696L101.85 16.21L102.045 16.2514L102.089 16.2608L102.135 16.2721L102.179 16.2815L102.224 16.2909L102.269 16.3032L102.313 16.3116V16.3135L102.358 16.322L102.403 16.3333L102.447 16.3446L102.493 16.354V16.3549L102.538 16.3643L102.581 16.3747L102.626 16.386L102.671 16.3973L102.716 16.4076L102.761 16.4189V16.4198L102.805 16.4292L102.85 16.4405V16.4415L102.895 16.4509V16.4528L102.939 16.4631V16.4641L102.984 16.4735L103.029 16.4857L103.074 16.4979L103.118 16.5092L103.162 16.5196V16.5205L103.207 16.5327L103.252 16.544L103.297 16.5544V16.5553L103.341 16.5666V16.5675L103.385 16.5788L103.43 16.592L103.475 16.6033L103.52 16.6146L103.564 16.6268V16.6278L103.61 16.6391L103.653 16.6513V16.6532L103.697 16.6635L103.741 16.6776L103.787 16.6889L103.83 16.703L103.875 16.7143L103.92 16.7275L103.963 16.7397L104.008 16.7529L104.052 16.7651V16.7661L104.097 16.7783L104.14 16.7915L104.184 16.8037L104.229 16.8169L104.273 16.831L104.317 16.8432L104.36 16.8573L104.405 16.8705L104.448 16.8837L104.492 16.8968V16.8978L104.535 16.9119L104.58 16.9251L104.624 16.9383L104.667 16.9524L104.71 16.9674L104.755 16.9796L104.797 16.9938L104.842 17.0069L104.885 17.022L104.892 17.0257H104.893L104.902 17.0276L104.919 17.0352V17.0333V14.0366L104.851 14.0216L104.784 14.0047L104.718 13.9905L104.649 13.9746V13.9736L104.583 13.9576L104.518 13.9416L104.451 13.9266L104.384 13.9115L104.318 13.8955L104.252 13.8805V13.8795L104.185 13.8626L104.121 13.8475L104.053 13.8315L103.989 13.8174L103.923 13.8014L103.857 13.7864L103.791 13.7704L103.725 13.7553L103.661 13.7393L103.597 13.7233L103.531 13.7073L103.466 13.6923V13.6914L103.4 13.6772L103.336 13.6622L103.27 13.6471L103.205 13.6321L103.14 13.617L103.075 13.602V13.601L103.009 13.586L102.944 13.5719L102.879 13.5568L102.812 13.5418L102.747 13.5267L102.682 13.5126L102.616 13.4975L102.55 13.4834L102.484 13.4693L102.418 13.4543L102.354 13.442V13.4401L102.287 13.427L102.221 13.4129L102.155 13.3987L102.089 13.3846L102.022 13.3724L101.955 13.3583L101.889 13.3451L101.821 13.3329L101.754 13.3188L101.686 13.3056L101.619 13.2934L101.552 13.2802L101.484 13.2689L101.416 13.2548L101.348 13.2435L101.279 13.2313L101.21 13.219L101.142 13.2078L101.072 13.1955L101.003 13.1852L100.934 13.1739L100.862 13.1626L100.793 13.1532V13.1513L100.723 13.141L100.651 13.1306L100.427 13.0996L100.202 13.0685L99.976 13.0403L99.7499 13.0111L99.5229 12.9857L99.2959 12.9612H99.295L99.0671 12.9387L98.8373 12.918L98.6084 12.8973L98.3776 12.8813L98.1478 12.8643L97.9161 12.8512L97.6853 12.8399L97.4537 12.8276L97.222 12.8192L96.9893 12.8126L96.7576 12.8069L96.525 12.8051L96.2924 12.8032L96.0588 12.8051L95.8271 12.8069H95.8261L95.5935 12.8126H95.5926L95.3599 12.8192L95.1273 12.8276L94.8956 12.8399H94.8937L94.662 12.8521L94.4294 12.8681L94.1977 12.886H94.1967L93.966 12.9057H93.965L93.7333 12.9274L93.5026 12.9518H93.5016L93.2709 12.9791L93.0411 13.0073H93.0392L92.8103 13.0393L92.5805 13.0713L92.3516 13.108L92.1228 13.1466L91.8939 13.1861L91.666 13.2294L91.4399 13.2755L91.2139 13.3244L90.9888 13.3743L90.7646 13.4289L90.5405 13.4834L90.3172 13.5427L90.095 13.6029L89.8746 13.6669L89.6542 13.7327L89.4347 13.8024L89.2181 13.8748L89.0005 13.9473L88.7839 14.0254L88.5701 14.1063L88.3563 14.19L88.1434 14.2747L87.9343 14.3641L87.7243 14.4544L87.5162 14.5485L87.3099 14.6473L87.1046 14.7479L86.9002 14.8514L86.6986 14.9577L86.498 15.0659L86.2983 15.1807L86.1929 15.2409L86.0874 15.304L85.9828 15.368L85.8783 15.4319L85.7737 15.4987L85.6701 15.5646L85.5656 15.6323L85.4629 15.7001L85.3603 15.7706L85.2576 15.8412L85.1559 15.9118L85.0551 15.9852L84.9543 16.0576L84.8526 16.1319L84.7537 16.2081L84.6539 16.2843L84.555 16.3606L84.457 16.4396L84.36 16.5186L84.2621 16.5977L84.166 16.6786L84.0709 16.7585L83.9748 16.8423L83.8815 16.9232L83.7874 17.0069L83.6941 17.0926H83.6932L83.6018 17.1772L83.5095 17.2647L83.4191 17.3503L83.3287 17.4397L83.2402 17.5282L83.1507 17.6166L83.0631 17.7079L82.9755 17.7982L82.8898 17.8885L82.805 17.9817L82.7202 18.0729L82.6374 18.167L82.5545 18.2601L82.4725 18.3552L82.3925 18.4521H82.3915L82.3115 18.5481L82.2333 18.644L82.1561 18.7419H82.1551L82.0788 18.8397L82.0035 18.9376L81.9291 19.0373H81.9281L81.8547 19.137H81.8537L81.7822 19.2368L81.7106 19.3374H81.7096L81.6399 19.439L81.5712 19.5407H81.5702L81.5034 19.6442H81.5015L81.4346 19.7467L81.3696 19.8483H81.3687L81.3046 19.9537L81.2415 20.0581L81.1784 20.1616L81.1172 20.267L81.0579 20.3743L80.9985 20.4796L80.9411 20.5878L80.8855 20.6942L80.8309 20.8014C79.323 23.8009 78.8266 26.6658 78.8568 30.0011C78.8897 33.8059 79.6969 37.5468 82.0845 40.6403C82.5187 41.203 82.8832 41.5906 83.3908 42.0751L84.1387 42.7704C84.1952 42.825 84.2583 42.8805 84.3242 42.9379V42.9388L84.4231 43.0235L84.4938 43.0809V43.0828L84.5295 43.1101L84.5653 43.1392L84.6379 43.1985H84.6388L84.6765 43.2277L84.7141 43.2578L84.7518 43.2879L84.7904 43.3171L84.83 43.3472L84.8696 43.3744V43.3763L84.9082 43.4046L84.9487 43.4347L84.9882 43.4648L85.0287 43.493V43.4939L85.0692 43.5231L85.1107 43.5513V43.5523L85.1521 43.5814L85.1926 43.6106V43.6115L85.234 43.6407L85.2755 43.6699L85.316 43.6981L85.3584 43.7273L85.3998 43.7555L85.4422 43.7847L85.4837 43.8129L85.526 43.8402L85.5665 43.8693H85.5675L85.6098 43.8976L85.6504 43.9248L85.6927 43.9521H85.6937L85.7342 43.9794L85.7756 44.0067H85.7766L85.818 44.034L85.8585 44.0603H85.8594L85.8999 44.0876L85.9404 44.114L85.9819 44.1394L86.0233 44.1657L86.0629 44.1902L86.1034 44.2156L86.1429 44.2419L86.1825 44.2654L86.2211 44.289L86.2607 44.3125L86.2993 44.3379L86.3369 44.3595L86.3746 44.383H86.3756L86.4123 44.4056L86.4509 44.4282L86.4867 44.4489L86.5234 44.4705L86.5583 44.4922L86.5941 44.5119L86.8295 44.6465L87.0678 44.7763L87.3052 44.9005L87.5472 45.02L87.7884 45.1376L88.0313 45.2486L88.2762 45.355L88.5221 45.4575L88.7688 45.5554L89.0175 45.6485L89.2661 45.7379H89.2671L89.5166 45.8226H89.5176L89.7691 45.9044L90.0215 45.9797L90.2748 46.054L90.5301 46.1217V46.1236L90.7853 46.1857L90.7863 46.1876L91.0425 46.2478L91.2987 46.3043L91.5577 46.3579L91.8167 46.4059L92.0757 46.4501L92.0776 46.452L92.3366 46.4925L92.5975 46.5301V46.531L92.8602 46.564L93.1221 46.5959L93.3839 46.6232L93.6476 46.6468L93.9114 46.6665L94.1741 46.6825H94.1751L94.4397 46.6957L94.7034 46.7051V46.707L94.9691 46.7117V46.7126L95.2347 46.7164H95.4993L95.7659 46.7135L96.0315 46.7079L96.2971 46.6985H96.298L96.5636 46.6872L96.8292 46.6722L97.0948 46.6543L97.3604 46.6326H97.3614L97.627 46.611L97.8926 46.5837L98.1582 46.5546H98.1591L98.4228 46.5235L98.6884 46.4887V46.4877L98.954 46.452L99.2178 46.4125L99.4815 46.3711L99.7452 46.3278L100.007 46.2798H100.008L100.271 46.2299L100.533 46.1791L100.794 46.1255L101.054 46.07H101.055L101.315 46.0126L101.574 45.9524H101.575L101.833 45.8903L102.09 45.8263H102.091L102.348 45.7605H102.348L102.604 45.6918H102.605L102.86 45.6222L103.113 45.5507H103.114L104.918 45.0059L104.92 41.7816L104.907 41.7882L104.892 41.7919L104.879 41.7966L104.866 41.8013V41.8023L104.853 41.806L104.839 41.8117L104.825 41.8164L104.811 41.8211L104.798 41.8258V41.8267L104.785 41.8314L104.772 41.8362L104.758 41.8408V41.8418L104.745 41.8465L104.732 41.8503L104.718 41.8559V41.8568L104.705 41.8606V41.8616L104.691 41.8653L104.679 41.871L104.664 41.8747V41.8766L104.651 41.8804L104.637 41.8851V41.886L104.624 41.8898L104.611 41.8954L104.597 41.9001V41.9011L104.583 41.9048L104.57 41.9105L104.557 41.9152V41.9161L104.543 41.9199L104.53 41.9246V41.9255L104.517 41.9302L104.503 41.9349L104.489 41.9396L104.476 41.9443L104.463 41.949L104.45 41.9547L104.436 41.9594L104.422 41.9641L104.41 41.9697L104.396 41.9735L104.383 41.9792L104.369 41.9829L104.357 41.9886L104.344 41.9933L104.33 41.997L104.317 42.0027L104.303 42.0064L104.291 42.0102L104.276 42.0149L104.263 42.0196L104.249 42.0243V42.0253L104.237 42.03L104.223 42.0337L104.21 42.0394L104.196 42.0431L104.184 42.0478L104.17 42.0525L104.157 42.0554L104.144 42.0601L104.13 42.0638L104.116 42.0685L104.103 42.0732L104.091 42.0789L104.077 42.0817L104.064 42.0873L103.85 42.1532L103.634 42.2172L103.417 42.2831L103.2 42.3442L102.979 42.4063L102.758 42.4665L102.536 42.523L102.313 42.5804L102.089 42.6349L101.863 42.6876L101.637 42.7403L101.409 42.7911L101.181 42.8391L100.952 42.8852L100.723 42.9294L100.491 42.9727L100.259 43.0141L100.028 43.0536L99.7951 43.0894L99.5615 43.1251L99.327 43.158L99.0934 43.1891L98.858 43.2183L98.6235 43.2437H98.6225L98.388 43.2691L98.1525 43.2926H98.1516L97.9161 43.3123L97.6788 43.3293L97.4433 43.3453L97.206 43.3575L96.9705 43.3688L96.7332 43.3782L96.4977 43.3829L96.2603 43.3867L96.0249 43.3876L95.7885 43.3867V43.3848L95.553 43.381L95.3175 43.3726H95.3166L95.0821 43.3641V43.3632L94.8485 43.3519V43.3509L94.614 43.3359L94.3795 43.318L94.1468 43.2973L93.9142 43.2728L93.6825 43.2446L93.4508 43.2155L93.22 43.1834L92.9912 43.1477V43.1468L92.7623 43.1082L92.5334 43.0649L92.3074 43.0197H92.3064L92.0813 42.9718C91.8553 42.9228 91.6321 42.8673 91.4098 42.8071L91.1875 42.745C90.5988 42.5775 90.0224 42.3734 89.4639 42.1278C89.2925 42.0535 89.123 41.9735 88.9553 41.8888H88.9534L88.7538 41.7891V41.7882L88.556 41.6809L88.458 41.6273V41.6263L88.361 41.5708L88.264 41.5163L88.167 41.457V41.456L88.0719 41.3986L87.9767 41.3403L87.8816 41.2792L87.6942 41.1569L87.6019 41.0938H87.6009L87.5096 41.0289L87.4182 40.9649L87.3278 40.8991L87.2383 40.8332L87.1488 40.7655L87.0603 40.6968L86.9718 40.629L86.8842 40.5575L86.7975 40.487L86.7118 40.4164L86.6271 40.343H86.6261L86.5423 40.2715L86.4575 40.1981L86.3746 40.1229L86.2936 40.0476L86.2117 39.9704L86.1307 39.8942L86.0507 39.8171L85.9715 39.738L85.8933 39.6599L85.8152 39.579L85.7379 39.4991L85.6616 39.4163L85.5872 39.3353L85.5138 39.2516L85.4394 39.1688H85.4384L85.3669 39.086L85.2943 39.0004L85.2228 38.9148L85.1521 38.8292L85.0834 38.7436L85.0146 38.6551L84.9477 38.5676L84.8799 38.4792L84.813 38.3907L84.749 38.3004L84.684 38.2101L84.6209 38.1179L84.5597 38.0276L84.4985 37.9363L84.4382 37.8431L84.3779 37.75L84.3195 37.655L84.2621 37.5618L84.2046 37.4668L84.0869 37.2626L83.9729 37.0538L83.8636 36.843L83.7563 36.6276L83.6536 36.4093L83.5547 36.1863L83.4605 35.9633L83.3682 35.7347L83.2806 35.5032L83.1978 35.2708L83.1177 35.0337L83.0424 34.7938L82.9679 34.5539L82.9001 34.3102L82.8351 34.0656L82.7739 33.8163L82.7165 33.567H82.7155L82.6618 33.3157V33.3148L82.6119 33.0617L82.5667 32.8077H82.5658L82.5234 32.5518L82.4848 32.294L82.449 32.0362L82.4179 31.7765H82.417L82.3896 31.5149L82.3661 31.2543V31.2534L82.3463 30.9909L82.3294 30.7274L82.3171 30.464L82.3077 30.2006L82.303 29.9362H82.3021L82.3011 29.6727L82.303 29.4084L82.3077 29.1449H82.3086L82.3171 28.8805L82.3294 28.6162ZM38.0622 16.6438H52.3596L52.3727 46.483H52.3737H55.6212V14.2051H38.0735H38.0726L38.0622 16.6438ZM175.322 4.25267H179.714L179.713 0H175.323H175.322V4.25267ZM50.9242 4.25267H55.3142V0H50.9242V4.25267Z" fill="#2B2A29"/>
</svg>
