<svg width="40" height="40" viewBox="0 0 40 40" fill="none" xmlns="http://www.w3.org/2000/svg">
<g clip-path="url(#clip0_411_9149)">
<path d="M40.0063 20.0031C40.0063 23.9596 38.833 27.8273 36.6347 31.1169C34.4365 34.4066 31.312 36.9704 27.6566 38.4842C24.0011 39.998 19.9788 40.3938 16.0984 39.6215C12.218 38.8491 8.65382 36.9434 5.85658 34.1453C3.05934 31.3471 1.15471 27.7824 0.383594 23.9017C-0.387523 20.0211 0.0095218 15.9989 1.52447 12.3439C3.03942 8.68894 5.60423 5.56531 8.89455 3.36809C12.1849 1.17087 16.0529 -0.00123853 20.0094 9.82069e-07C22.636 8.53094e-07 25.2368 0.517463 27.6633 1.52279C30.0899 2.52812 32.2946 4.00164 34.1515 5.85918C36.0085 7.71673 37.4813 9.92189 38.4859 12.3487C39.4905 14.7756 40.0071 17.3766 40.0063 20.0031Z" fill="url(#paint0_linear_411_9149)"/>
<path d="M26.2263 19.4949C25.9582 19.4949 25.7009 19.3888 25.5107 19.1998C25.3205 19.0108 25.2128 18.7542 25.2112 18.486C25.2 17.3313 25.6201 16.214 26.3892 15.3527C27.0852 14.7043 28.0011 14.3438 28.9523 14.3438C29.9035 14.3438 30.8194 14.7043 31.5154 15.3527C32.2713 16.2202 32.6817 17.3354 32.6684 18.486C32.6441 18.7423 32.5239 18.98 32.3318 19.1514C32.1398 19.3229 31.8901 19.4156 31.6327 19.4108C31.3753 19.4061 31.1292 19.3043 30.9436 19.1258C30.758 18.9474 30.6466 18.7054 30.6318 18.4484C30.6348 17.8491 30.4312 17.267 30.0553 16.8003C29.7431 16.5425 29.3509 16.4015 28.946 16.4015C28.5412 16.4015 28.1491 16.5425 27.8369 16.8003C27.4581 17.2764 27.2486 17.8651 27.2415 18.4734C27.2432 18.7422 27.1389 19.0008 26.9512 19.1932C26.7635 19.3856 26.5076 19.4962 26.2389 19.5012L26.2263 19.4949Z" fill="#171717"/>
<path d="M8.35311 19.4949C8.08495 19.4949 7.82769 19.3888 7.63748 19.1998C7.44727 19.0108 7.33957 18.7542 7.33792 18.486C7.33394 17.3326 7.75312 16.2177 8.51605 15.3527C9.21202 14.7043 10.1279 14.3438 11.0791 14.3438C12.0303 14.3438 12.9462 14.7043 13.6422 15.3527C14.4038 16.2168 14.815 17.3343 14.7952 18.486C14.7709 18.7423 14.6507 18.98 14.4587 19.1514C14.2666 19.3229 14.0169 19.4156 13.7595 19.4108C13.5021 19.4061 13.2559 19.3043 13.0703 19.1258C12.8848 18.9474 12.7734 18.7054 12.7585 18.4484C12.7643 17.8497 12.5629 17.2674 12.1883 16.8003C11.8746 16.5432 11.4815 16.4026 11.076 16.4026C10.6704 16.4026 10.2773 16.5432 9.96364 16.8003C9.58835 17.2779 9.38127 17.8661 9.37458 18.4734C9.37625 18.7433 9.27109 19.0028 9.08205 19.1954C8.89302 19.3879 8.63548 19.4979 8.36566 19.5012L8.35311 19.4949Z" fill="#171717"/>
<path d="M19.972 31.5768C18.145 31.5987 16.3608 31.0236 14.8904 29.9389C13.42 28.8542 12.3438 27.3192 11.8254 25.5671C11.7539 25.307 11.7887 25.0292 11.9221 24.7947C12.0555 24.5603 12.2766 24.3884 12.5367 24.3169C12.7968 24.2455 13.0746 24.2803 13.3091 24.4137C13.5436 24.547 13.7154 24.7681 13.7869 25.0282C14.1885 26.3436 15.0048 27.4938 16.1139 28.307C17.223 29.1202 18.5655 29.5528 19.9407 29.5402C24.7598 29.5402 26.1071 25.1536 26.1635 24.9718C26.2005 24.8434 26.2625 24.7236 26.3458 24.6192C26.4292 24.5147 26.5323 24.4277 26.6493 24.3631C26.7662 24.2985 26.8947 24.2576 27.0275 24.2427C27.1603 24.2278 27.2947 24.2392 27.4231 24.2762C27.5515 24.3132 27.6713 24.3752 27.7757 24.4585C27.8802 24.5419 27.9672 24.645 28.0318 24.7619C28.0964 24.8789 28.1373 25.0074 28.1522 25.1402C28.1671 25.273 28.1557 25.4074 28.1187 25.5358C27.5853 27.2815 26.5062 28.8103 25.04 29.8976C23.5737 30.9849 21.7975 31.5734 19.972 31.5768Z" fill="#171717"/>
</g>
<defs>
<linearGradient id="paint0_linear_411_9149" x1="0" y1="21.387" x2="40.0063" y2="21.387" gradientUnits="userSpaceOnUse">
<stop stop-color="#4ADE80"/>
<stop offset="1" stop-color="#06B6D4"/>
</linearGradient>
<clipPath id="clip0_411_9149">
<rect width="40" height="40" fill="white"/>
</clipPath>
</defs>
</svg>
