<svg width="40" height="40" viewBox="0 0 40 40" fill="none" xmlns="http://www.w3.org/2000/svg">
<g clip-path="url(#clip0_413_1966)">
<path d="M40.0004 19.9969C40.0017 23.9534 38.8296 27.8214 36.6323 31.1117C34.4351 34.402 31.3115 36.9669 27.6565 38.4818C24.0015 39.9968 19.9793 40.3938 16.0987 39.6227C12.2181 38.8516 8.65328 36.9469 5.85516 34.1497C3.05705 31.3525 1.15129 27.7883 0.37896 23.9079C-0.393373 20.0275 0.00239963 16.0052 1.51621 12.3497C3.03001 8.69425 5.59386 5.56981 8.88349 3.37156C12.1731 1.17331 16.0408 1.94159e-07 19.9973 0C25.3014 -2.60288e-07 30.3883 2.1066 34.1394 5.85656C37.8906 9.60652 39.9988 14.6928 40.0004 19.9969Z" fill="url(#paint0_linear_413_1966)"/>
<path d="M14.864 16.2175C14.864 16.6031 14.7108 16.9729 14.4382 17.2456C14.1655 17.5182 13.7957 17.6714 13.4101 17.6714H8.39681C8.01231 17.6697 7.64412 17.5158 7.37282 17.2434C7.10152 16.9709 6.94922 16.602 6.94922 16.2175C6.95085 15.8335 7.10367 15.4656 7.37462 15.1935C7.64557 14.9214 8.01282 14.767 8.39681 14.7637H13.4101C13.7952 14.7653 14.164 14.919 14.4363 15.1913C14.7086 15.4636 14.8623 15.8324 14.864 16.2175Z" fill="#171717"/>
<path d="M33.0753 16.2175C33.0737 16.6026 32.92 16.9715 32.6477 17.2437C32.3754 17.516 32.0066 17.6697 31.6215 17.6714H26.6082C26.2231 17.6697 25.8542 17.516 25.582 17.2437C25.3097 16.9715 25.1559 16.6026 25.1543 16.2175C25.1559 15.8324 25.3097 15.4636 25.582 15.1913C25.8542 14.919 26.2231 14.7653 26.6082 14.7637H31.6215C32.0066 14.7653 32.3754 14.919 32.6477 15.1913C32.92 15.4636 33.0737 15.8324 33.0753 16.2175Z" fill="#171717"/>
<path d="M31.4577 26.5839H8.54685C8.31583 26.5839 8.09426 26.4922 7.9309 26.3288C7.76754 26.1654 7.67578 25.9439 7.67578 25.7129C7.67578 25.4818 7.76754 25.2603 7.9309 25.0969C8.09426 24.9336 8.31583 24.8418 8.54685 24.8418H31.4577C31.6887 24.8418 31.9103 24.9336 32.0736 25.0969C32.237 25.2603 32.3288 25.4818 32.3288 25.7129C32.3288 25.9439 32.237 26.1654 32.0736 26.3288C31.9103 26.4922 31.6887 26.5839 31.4577 26.5839Z" fill="#171717"/>
</g>
<defs>
<linearGradient id="paint0_linear_413_1966" x1="6.03283" y1="33.716" x2="39.8746" y2="0.629021" gradientUnits="userSpaceOnUse">
<stop stop-color="#FFB864"/>
<stop offset="1" stop-color="#FF845E"/>
</linearGradient>
<clipPath id="clip0_413_1966">
<rect width="40" height="40" fill="white"/>
</clipPath>
</defs>
</svg>
