<svg width="40" height="40" viewBox="0 0 40 40" fill="none" xmlns="http://www.w3.org/2000/svg">
<g clip-path="url(#clip0_413_1991)">
<path d="M40.0004 20.0031C40.0004 23.9594 38.8272 27.8268 36.6293 31.1163C34.4313 34.4058 31.3072 36.9696 27.6521 38.4836C23.997 39.9976 19.9751 40.3937 16.0949 39.6219C12.2146 38.8501 8.65043 36.945 5.85294 34.1475C3.05545 31.35 1.15032 27.7858 0.378498 23.9055C-0.393327 20.0253 0.00282425 16.0033 1.51681 12.3482C3.0308 8.69315 5.59464 5.56909 8.88414 3.37111C12.1736 1.17314 16.0411 0 19.9973 0C25.3025 0 30.3903 2.10745 34.1416 5.85876C37.8929 9.61008 40.0004 14.698 40.0004 20.0031Z" fill="url(#paint0_linear_413_1991)"/>
<path d="M10.8914 20.1418C10.5063 20.1401 10.1375 19.9864 9.86516 19.7141C9.59286 19.4418 9.43915 19.073 9.4375 18.6879V13.6746C9.43915 13.2895 9.59286 12.9207 9.86516 12.6484C10.1375 12.3761 10.5063 12.2224 10.8914 12.2207C11.2764 12.2224 11.6453 12.3761 11.9176 12.6484C12.1899 12.9207 12.3436 13.2895 12.3452 13.6746V18.6879C12.3436 19.073 12.1899 19.4418 11.9176 19.7141C11.6453 19.9864 11.2764 20.1401 10.8914 20.1418Z" fill="#171717"/>
<path d="M29.1023 20.1418C28.7172 20.1401 28.3484 19.9864 28.0761 19.7141C27.8038 19.4418 27.6501 19.073 27.6484 18.6879V13.6746C27.6501 13.2895 27.8038 12.9207 28.0761 12.6484C28.3484 12.3761 28.7172 12.2224 29.1023 12.2207C29.4874 12.2224 29.8562 12.3761 30.1285 12.6484C30.4008 12.9207 30.5545 13.2895 30.5562 13.6746V18.6879C30.5545 19.073 30.4008 19.4418 30.1285 19.7141C29.8562 19.9864 29.4874 20.1401 29.1023 20.1418Z" fill="#171717"/>
<path d="M12.8269 28.9207C12.7311 28.9215 12.6359 28.9067 12.5449 28.8769C12.2867 28.8026 12.0685 28.6289 11.9381 28.394C11.8077 28.1591 11.7758 27.882 11.8493 27.6236C12.3827 25.8778 13.4617 24.3491 14.928 23.2618C16.3943 22.1745 18.1705 21.5859 19.9959 21.5825C21.8225 21.5627 23.6057 22.1386 25.0757 23.223C26.5457 24.3074 27.6223 25.8412 28.1426 27.5922C28.1784 27.721 28.1884 27.8556 28.1722 27.9883C28.156 28.121 28.1138 28.2492 28.0481 28.3656C27.9823 28.4819 27.8943 28.5842 27.789 28.6666C27.6837 28.7489 27.5632 28.8097 27.4344 28.8455C27.3056 28.8813 27.1711 28.8914 27.0384 28.8752C26.9057 28.859 26.7775 28.8168 26.6611 28.7511C26.5447 28.6853 26.4424 28.5973 26.3601 28.492C26.2777 28.3867 26.2169 28.2662 26.1811 28.1374C25.7789 26.8219 24.9625 25.6715 23.8537 24.8574C22.7449 24.0433 21.4028 23.609 20.0272 23.6192C15.2082 23.6192 13.8609 28.0058 13.8045 28.1876C13.7432 28.3993 13.6147 28.5854 13.4383 28.7177C13.262 28.85 13.0473 28.9213 12.8269 28.9207Z" fill="#171717"/>
</g>
<defs>
<linearGradient id="paint0_linear_413_1991" x1="1.19915" y1="38.8013" x2="41.9284" y2="1.04221e-06" gradientUnits="userSpaceOnUse">
<stop stop-color="#F871B2"/>
<stop offset="1" stop-color="#F31260"/>
</linearGradient>
<clipPath id="clip0_413_1991">
<rect width="40" height="40" fill="white"/>
</clipPath>
</defs>
</svg>
