<?xml version="1.0" standalone="no"?>
<!DOCTYPE svg PUBLIC "-//W3C//DTD SVG 1.1//EN" "http://www.w3.org/Graphics/SVG/1.1/DTD/svg11.dtd" >
<svg xmlns="http://www.w3.org/2000/svg" xmlns:xlink="http://www.w3.org/1999/xlink" version="1.1">
<metadata>
Created by FontForge 20170812 at Tue Aug 11 13:48:16 2020
 By www-data
Copyright (c) 1990 Neufville SL, Copyright (c) 1990-2000 ParaType, Inc. All Rights Reserved. Futura is a registered trade mark of Neufville SL.
</metadata>
<defs>
<font id="MyFontRegular" horiz-adv-x="500" >
  <font-face 
    font-family="My Font"
    font-weight="500"
    font-stretch="normal"
    units-per-em="1000"
    panose-1="0 0 0 0 0 0 0 0 0 0"
    ascent="800"
    descent="-200"
    x-height="421"
    cap-height="667"
    bbox="-18 -250 1167 906"
    underline-thickness="50"
    underline-position="-100"
    unicode-range="U+0020-2122"
  />
<missing-glyph horiz-adv-x="457" 
d="M20 675h417v-675h-417v675zM68 48h320v579h-320v-579z" />
    <glyph glyph-name=".notdef" horiz-adv-x="457" 
d="M20 675h417v-675h-417v675zM68 48h320v579h-320v-579z" />
    <glyph glyph-name=".notdef" horiz-adv-x="457" 
d="M20 675h417v-675h-417v675zM68 48h320v579h-320v-579z" />
    <glyph glyph-name="space" unicode=" " horiz-adv-x="233" 
 />
    <glyph glyph-name="exclam" unicode="!" horiz-adv-x="252" 
d="M175 149v518h-98v-518h98zM84 6v0c11 -12 25 -18 42 -18v0c17 0 31 6 43 18v0c11 11 17 25 17 42v0c0 16 -6 30 -17 43v0c-13 11 -27 17 -43 17v0c-17 0 -31 -6 -42 -17v0c-12 -12 -18 -26 -18 -43v0c0 -17 6 -31 18 -42z" />
    <glyph glyph-name="quotedbl" unicode="&#x22;" horiz-adv-x="366" 
d="M156 667h-108l18 -268h72zM318 667h-108l18 -268h72z" />
    <glyph glyph-name="numbersign" unicode="#" horiz-adv-x="600" 
d="M407 0l31 196h108l14 88h-108l18 112h108l14 88h-108l29 183h-98l-29 -183h-114l29 183h-98l-29 -183h-108l-14 -88h108l-18 -112h-108l-14 -88h108l-31 -196h98l31 196h114l-31 -196h98zM354 284h-114l18 112h114z" />
    <glyph glyph-name="dollar" unicode="$" horiz-adv-x="568" 
d="M394 519l82 48c-13 25 -30 48 -51 67v0c-25 21 -58 36 -99 43v0v84h-74v-85c-45 -6 -82 -25 -111 -58v0c-30 -33 -45 -72 -45 -115v0c0 -75 45 -131 136 -169v0l64 -27c29 -12 53 -26 70 -43v0c17 -17 26 -41 26 -71v0c0 -33 -10 -60 -31 -81s-47 -31 -79 -31v0
c-37 0 -66 13 -87 40v0c-19 25 -28 53 -28 85v0l-101 -22c5 -51 24 -94 56 -130v0c35 -40 78 -62 130 -66v0v-88h74v91c49 9 90 33 121 71v0c31 39 47 85 47 139v0c0 88 -52 153 -157 196v0l-67 27c-48 19 -72 46 -72 81v0c0 23 8 42 25 57v0c17 15 40 23 69 23v0
c28 0 52 -8 72 -24v0c13 -12 23 -26 30 -42v0z" />
    <glyph glyph-name="percent" unicode="%" horiz-adv-x="810" 
d="M81 627v0c-32 -31 -48 -68 -48 -111v0c0 -43 16 -79 48 -110v0c31 -31 69 -47 113 -47v0c43 0 81 16 114 47v0c31 31 47 68 47 110v0c0 43 -16 80 -47 111v0c-31 31 -69 46 -114 46s-82 -15 -113 -46zM133 458v0c-15 17 -22 36 -22 58s7 42 22 59v0c15 17 36 26 61 26
s46 -9 61 -26v0c15 -17 22 -37 22 -59s-7 -41 -22 -58v0c-15 -18 -36 -27 -61 -27s-46 9 -61 27zM191 18l47 -29l381 662l-47 27zM503 261v0c-32 -31 -48 -68 -48 -111v0c0 -43 16 -79 48 -110v0c31 -31 69 -47 113 -47v0c43 0 81 16 114 47v0c31 31 47 68 47 110v0
c0 43 -16 80 -47 111v0c-31 31 -69 46 -114 46s-82 -15 -113 -46zM555 92v0c-15 17 -22 36 -22 58s7 42 22 59v0c15 17 36 26 61 26s46 -9 61 -26v0c15 -17 22 -37 22 -59s-7 -41 -22 -58v0c-15 -18 -36 -27 -61 -27s-46 9 -61 27z" />
    <glyph glyph-name="ampersand" unicode="&#x26;" horiz-adv-x="646" 
d="M537 313l-76 -86l-118 144c40 31 68 56 83 77v0c19 27 29 56 29 87v0c0 38 -14 72 -42 101v0c-29 29 -68 43 -118 43v0c-51 0 -90 -15 -117 -45v0c-27 -31 -41 -68 -41 -109v0c0 -48 22 -94 66 -138v0c-22 -15 -40 -27 -53 -37v0c-30 -23 -54 -47 -71 -73v0
c-17 -25 -25 -58 -25 -99v0c0 -55 18 -101 54 -137s85 -54 146 -54v0c55 0 103 15 146 46v0c22 17 41 33 56 49v0l66 -82h124l-123 154l79 91zM263 314l132 -160c-23 -23 -43 -41 -62 -55v0c-27 -17 -52 -26 -75 -26v0c-31 0 -56 10 -75 30v0c-19 19 -29 43 -29 71v0
c0 31 12 59 36 85v0c18 20 42 38 73 55v0zM284 442l-30 36c-15 19 -23 38 -23 58v0c0 17 6 32 17 43v0c11 11 26 16 47 16v0c22 0 39 -6 50 -18v0c11 -11 16 -25 16 -42v0c0 -25 -13 -47 -40 -66v0z" />
    <glyph glyph-name="quotesingle" unicode="'" horiz-adv-x="204" 
d="M156 667h-108l18 -268h72z" />
    <glyph glyph-name="parenleft" unicode="(" horiz-adv-x="324" 
d="M174 -185l90 35c-24 53 -42 106 -55 159v0c-19 81 -29 170 -29 267s10 186 29 267v0c13 53 31 106 55 159v0l-90 35c-26 -55 -47 -114 -62 -177v0c-21 -91 -32 -185 -32 -284s11 -193 32 -284v0c15 -63 36 -122 62 -177v0z" />
    <glyph glyph-name="parenright" unicode=")" horiz-adv-x="324" 
d="M150 737l-90 -35c24 -53 42 -106 55 -159v0c19 -81 29 -170 29 -267s-10 -186 -29 -267v0c-13 -53 -31 -106 -55 -159v0l90 -35c26 55 47 114 62 177v0c21 91 32 185 32 284s-11 193 -32 284v0c-15 63 -36 122 -62 177v0z" />
    <glyph glyph-name="asterisk" unicode="*" horiz-adv-x="568" 
d="M138 655l-27 -82l113 -30l-74 -91l70 -50l64 98l64 -98l70 50l-74 91l113 30l-27 82l-109 -42l7 116h-88l7 -116z" />
    <glyph glyph-name="plus" unicode="+" 
d="M33 291h170v-170h94v170h170v90h-170v170h-94v-170h-170v-90z" />
    <glyph glyph-name="comma" unicode="," horiz-adv-x="320" 
d="M10 -129l66 -27l124 247l-88 34z" />
    <glyph glyph-name="hyphen" unicode="-" horiz-adv-x="320" 
d="M40 162h240v102h-240v-102z" />
    <glyph glyph-name="period" unicode="." horiz-adv-x="252" 
d="M84 6v0c11 -12 25 -18 42 -18v0c17 0 31 6 43 18v0c11 11 17 25 17 42v0c0 16 -6 30 -17 43v0c-13 11 -27 17 -43 17v0c-17 0 -31 -6 -42 -17v0c-12 -12 -18 -26 -18 -43v0c0 -17 6 -31 18 -42z" />
    <glyph glyph-name="slash" unicode="/" horiz-adv-x="540" 
d="M0 -147l80 -36l382 884l-80 36z" />
    <glyph glyph-name="zero" unicode="0" horiz-adv-x="568" 
d="M435 61v0c57 65 85 155 85 272v0c0 117 -28 208 -85 273v0c-42 48 -92 72 -151 72s-109 -24 -151 -72v0c-57 -65 -85 -156 -85 -273v0c0 -117 28 -207 85 -272v0c42 -48 92 -72 151 -72s109 24 151 72zM374 533v0c31 -45 46 -111 46 -199v0c0 -87 -15 -153 -46 -200v0
c-24 -37 -54 -55 -90 -55s-66 18 -90 55v0c-31 47 -46 113 -46 200v0c0 88 15 154 46 199v0c24 37 54 55 90 55s66 -18 90 -55z" />
    <glyph glyph-name="one" unicode="1" horiz-adv-x="568" 
d="M250 0h102v667h-162l-56 -94h116v-573z" />
    <glyph glyph-name="two" unicode="2" horiz-adv-x="568" 
d="M482 94h-249l104 123c47 56 79 96 95 120v0c32 47 48 94 48 140v0c0 55 -19 103 -57 142s-91 59 -158 59v0c-65 0 -117 -22 -156 -65v0c-34 -38 -53 -87 -56 -146v0h98c2 35 13 63 34 86v0c21 23 49 35 84 35v0c36 0 63 -10 82 -31v0c19 -21 29 -47 29 -77v0
c0 -29 -12 -61 -35 -96v0c-24 -34 -51 -69 -80 -104v0l-231 -280h448v94z" />
    <glyph glyph-name="three" unicode="3" horiz-adv-x="568" 
d="M68 497h98c3 28 13 50 31 67v0c17 16 39 24 66 24v0c30 0 55 -9 74 -26v0c19 -18 28 -43 28 -75v0c0 -61 -35 -91 -105 -91v0h-20v-86h20c34 0 62 -9 83 -28v0c22 -19 33 -46 33 -81v0c0 -34 -10 -63 -29 -86v0c-19 -24 -48 -36 -86 -36v0c-30 0 -56 9 -77 27
s-34 43 -38 75v0h-98c1 -27 7 -51 16 -73v0c32 -79 97 -119 196 -119v0c32 0 61 5 88 14v0c25 9 46 21 61 35v0c15 13 28 30 39 50v0c10 19 17 37 21 56v0c3 20 5 38 5 55v0c0 72 -28 123 -84 153v0c49 33 73 80 73 142v0c0 55 -18 99 -54 133s-84 51 -144 51v0
c-74 0 -129 -26 -164 -77v0c-21 -31 -32 -65 -33 -104v0z" />
    <glyph glyph-name="four" unicode="4" horiz-adv-x="568" 
d="M448 716l-428 -621h330v-95h98v95h72v94h-72v527zM200 189l150 222v-222h-150z" />
    <glyph glyph-name="five" unicode="5" horiz-adv-x="568" 
d="M477 667h-276l-104 -351h33c28 39 67 58 117 58v0c44 0 79 -14 104 -41v0c25 -27 37 -61 37 -104v0c0 -44 -12 -80 -37 -107v0c-25 -29 -60 -43 -105 -43v0c-65 0 -112 33 -141 99v0l-77 -64c47 -83 117 -125 210 -125v0c81 0 143 24 186 73s64 106 64 173v0
c0 77 -25 136 -76 179v0c-39 33 -88 50 -146 50v0c-3 0 -12 -1 -28 -2v0l33 111h206v94z" />
    <glyph glyph-name="six" unicode="6" horiz-adv-x="568" 
d="M358 690l-232 -317c-44 -61 -66 -117 -66 -169v0c0 -57 20 -108 60 -151v0c39 -43 94 -64 166 -64v0c68 0 122 21 162 63s60 95 60 159v0c0 68 -20 120 -61 156v0c-41 36 -87 54 -138 54v0c-12 0 -24 -1 -36 -3v0l159 217zM282 333v0c37 0 67 -12 91 -36v0
c23 -25 35 -55 35 -91s-12 -66 -35 -91v0c-24 -24 -54 -36 -89 -36v0c-36 0 -65 12 -88 36v0c-24 24 -36 54 -36 91s12 67 35 92v0c23 23 52 35 87 35z" />
    <glyph glyph-name="seven" unicode="7" horiz-adv-x="568" 
d="M50 27l80 -50l420 690h-496v-94h328z" />
    <glyph glyph-name="eight" unicode="8" horiz-adv-x="568" 
d="M404 347v0c49 34 73 81 73 141v0c0 58 -18 104 -55 139v0c-37 34 -83 51 -138 51v0c-55 0 -100 -17 -137 -51v0c-37 -35 -56 -82 -56 -139v0c0 -60 24 -107 73 -141v0c-60 -30 -90 -82 -90 -157v0c0 -62 21 -111 62 -147s91 -54 148 -54s107 18 148 54s62 85 62 147v0
c0 75 -30 127 -90 157zM214 413v0c-21 17 -31 41 -31 74v0c0 29 10 54 29 73v0c19 19 43 28 72 28v0c30 0 54 -9 73 -28s28 -43 28 -73v0c0 -33 -10 -57 -31 -74v0c-21 -17 -45 -26 -70 -26s-49 9 -70 26zM205 111v0c-21 21 -31 48 -31 81v0c0 32 10 58 31 79v0
c21 21 48 32 79 32s58 -11 79 -32v0c21 -21 31 -47 31 -79v0c0 -33 -10 -60 -31 -81v0c-21 -21 -48 -32 -79 -32s-58 11 -79 32z" />
    <glyph glyph-name="nine" unicode="9" horiz-adv-x="568" 
d="M210 -23l232 317c44 61 66 118 66 169v0c0 57 -20 108 -59 151v0c-40 43 -96 64 -167 64v0c-67 0 -120 -21 -161 -63v0c-41 -43 -61 -96 -61 -159v0c0 -65 21 -116 63 -153v0c42 -38 89 -57 141 -57v0c11 0 21 1 31 3v0l-159 -217zM286 334v0c-37 0 -67 12 -90 36v0
c-24 24 -36 54 -36 91s12 67 36 91v0c23 24 52 36 88 36v0c35 0 65 -12 89 -36v0c23 -25 35 -55 35 -91v0c0 -37 -12 -68 -35 -91v0c-23 -24 -52 -36 -87 -36z" />
    <glyph glyph-name="colon" unicode=":" horiz-adv-x="252" 
d="M84 330v0c11 -12 25 -18 42 -18v0c17 0 31 6 43 18v0c11 11 17 25 17 42v0c0 16 -6 30 -17 43v0c-13 11 -27 17 -43 17v0c-17 0 -31 -6 -42 -17v0c-12 -12 -18 -26 -18 -43v0c0 -17 6 -31 18 -42zM84 6v0c11 -12 25 -18 42 -18v0c17 0 31 6 43 18v0c11 11 17 25 17 42v0
c0 16 -6 30 -17 43v0c-13 11 -27 17 -43 17v0c-17 0 -31 -6 -42 -17v0c-12 -12 -18 -26 -18 -43v0c0 -17 6 -31 18 -42z" />
    <glyph glyph-name="semicolon" unicode=";" horiz-adv-x="320" 
d="M108 330v0c11 -12 25 -18 42 -18v0c17 0 31 6 43 18v0c11 11 17 25 17 42v0c0 16 -6 30 -17 43v0c-13 11 -27 17 -43 17v0c-17 0 -31 -6 -42 -17v0c-12 -12 -18 -26 -18 -43v0c0 -17 6 -31 18 -42zM10 -129l66 -27l124 247l-88 34z" />
    <glyph glyph-name="less" unicode="&#x3c;" 
d="M137 332l330 156v96l-434 -211v-82l434 -211v96z" />
    <glyph glyph-name="equal" unicode="=" 
d="M33 380h434v84h-434v-84zM33 218h434v84h-434v-84z" />
    <glyph glyph-name="greater" unicode="&#x3e;" 
d="M363 332l-330 -156v-96l434 211v82l-434 211v-96z" />
    <glyph glyph-name="question" unicode="?" horiz-adv-x="434" 
d="M56 482h102c-3 11 -4 22 -4 33v0c0 21 5 38 16 51v0c10 13 26 20 47 20v0c21 0 36 -6 47 -19s16 -28 16 -47v0c0 -21 -7 -38 -22 -50v0c-8 -7 -32 -18 -73 -33v0c-39 -15 -69 -32 -88 -50v0c-21 -19 -31 -47 -31 -86v0c0 -47 15 -83 44 -109s64 -39 104 -39v0
c55 0 96 21 125 64v0c16 23 25 55 26 94v0h-98c1 -17 -2 -32 -9 -44v0c-9 -16 -23 -24 -42 -24v0c-15 0 -27 5 -36 14s-14 21 -14 35v0c0 12 3 22 10 31v0c8 9 15 14 20 17v0c5 2 13 5 25 10v0c46 17 79 33 100 47v0c39 29 59 69 59 119v0c0 51 -15 90 -45 118v0
c-31 28 -71 42 -118 42v0c-53 0 -93 -15 -121 -46v0c-28 -31 -42 -69 -42 -114v0c0 -3 1 -14 2 -34v0zM176 6v0c11 -12 25 -18 42 -18v0c17 0 31 6 43 18v0c11 11 17 25 17 42v0c0 16 -6 30 -17 43v0c-13 11 -27 17 -43 17v0c-17 0 -31 -6 -42 -17v0
c-12 -12 -18 -26 -18 -43v0c0 -17 6 -31 18 -42z" />
    <glyph glyph-name="at" unicode="@" horiz-adv-x="732" 
d="M484 491l-10 -52c-19 43 -54 64 -105 64v0c-45 0 -85 -18 -121 -54s-54 -85 -54 -147v0c0 -56 15 -96 45 -121v0c29 -26 61 -39 96 -39v0c53 0 95 23 124 68v0c4 -19 13 -34 26 -45s30 -17 50 -17v0c45 0 83 21 115 63v0c32 43 48 100 48 170v0c0 90 -30 162 -90 216v0
c-61 53 -137 80 -226 80v0c-99 0 -182 -33 -249 -98v0c-66 -66 -99 -149 -99 -250v0c0 -107 38 -194 113 -260v0c63 -54 144 -81 242 -81v0c81 0 152 13 215 39v0l-17 62c-63 -27 -130 -41 -203 -41v0c-42 0 -80 7 -114 20v0c-53 20 -95 54 -126 101v0
c-31 47 -46 100 -46 159v0c0 82 28 151 83 206s123 83 204 83v0c80 0 142 -24 185 -72v0c43 -47 64 -102 64 -165v0c0 -20 -3 -44 -9 -71v0c-6 -26 -15 -47 -26 -64v0c-19 -27 -39 -40 -60 -40v0c-8 0 -15 3 -22 10v0c-7 6 -10 16 -10 30v0c0 10 2 25 6 45v0l39 201h-68z
M345 212v0c-21 0 -38 8 -52 24v0c-15 15 -22 37 -22 67v0c0 41 10 72 31 95v0c21 23 46 35 75 35v0c21 0 39 -7 54 -21v0c15 -15 22 -36 22 -65v0c0 -39 -11 -72 -32 -97v0c-22 -25 -47 -38 -76 -38z" />
    <glyph glyph-name="A" unicode="A" horiz-adv-x="656" 
d="M542 0h110l-316 706l-332 -706h110l73 161h285zM229 257l103 226l99 -226h-202z" />
    <glyph glyph-name="B" unicode="B" horiz-adv-x="526" 
d="M80 667v-667h153c39 0 73 3 102 8v0c25 5 51 18 76 39v0c45 36 67 88 67 157v0c0 35 -10 67 -30 96v0c-21 29 -50 48 -86 59v0c37 29 56 70 56 122v0c0 65 -26 116 -77 151v0c-33 23 -87 35 -160 35v0h-101zM182 571h35c70 0 105 -31 105 -93v0c0 -65 -36 -98 -109 -98v0
h-31v191zM182 296h64c88 0 132 -34 132 -101v0c0 -27 -10 -50 -29 -69v0c-19 -20 -54 -30 -105 -30v0h-62v200z" />
    <glyph glyph-name="C" unicode="C" horiz-adv-x="620" 
d="M574 511v120c-50 32 -109 48 -178 48v0c-99 0 -180 -29 -241 -87v0c-71 -67 -107 -154 -107 -261v0c0 -101 36 -185 107 -252v0c65 -61 144 -92 236 -92v0c65 0 126 17 183 50v0v121c-55 -51 -115 -77 -180 -77v0c-71 0 -129 24 -175 72v0c-46 47 -69 107 -69 178v0
c0 73 23 134 68 183v0c45 47 104 71 175 71v0c65 0 126 -25 181 -74v0z" />
    <glyph glyph-name="D" unicode="D" horiz-adv-x="644" 
d="M80 667v-667h138c54 0 99 4 134 13v0c37 9 74 26 110 51v0c89 63 134 153 134 269v0c0 55 -11 106 -33 153v0c-23 47 -54 85 -95 116v0c-35 26 -72 43 -110 52v0c-37 9 -83 13 -138 13v0h-140zM182 571h44c76 0 135 -15 178 -46v0c27 -19 48 -46 65 -79s25 -71 25 -113v0
c0 -81 -30 -144 -91 -190v0c-43 -31 -102 -47 -177 -47v0h-44v475z" />
    <glyph glyph-name="E" unicode="E" 
d="M448 667h-368v-667h368v96h-266v220h258v96h-258v159h266v96z" />
    <glyph glyph-name="F" unicode="F" horiz-adv-x="450" 
d="M414 667h-334v-667h102v316h224v96h-224v159h232v96z" />
    <glyph glyph-name="G" unicode="G" horiz-adv-x="748" 
d="M425 253h166c-8 -50 -30 -91 -66 -123v0c-35 -33 -80 -49 -133 -49v0c-69 0 -127 24 -173 72s-69 108 -69 179v0c0 73 23 134 70 181v0c46 48 104 72 175 72v0c85 0 153 -37 204 -110v0l72 69c-22 29 -46 53 -73 71v0c-59 43 -126 64 -203 64v0
c-103 0 -187 -34 -252 -102v0c-63 -67 -95 -148 -95 -244v0c0 -98 34 -181 102 -249v0c65 -65 144 -97 239 -97v0c61 0 112 13 155 38v0c42 25 74 54 97 86v0c39 55 59 126 59 215v0v21h-275v-94z" />
    <glyph glyph-name="H" unicode="H" horiz-adv-x="650" 
d="M182 667h-102v-667h102v311h286v-311h102v667h-102v-260h-286v260z" />
    <glyph glyph-name="I" unicode="I" horiz-adv-x="262" 
d="M80 667v-667h102v667h-102z" />
    <glyph glyph-name="J" unicode="J" horiz-adv-x="362" 
d="M180 667v-432c0 -51 -4 -87 -11 -107v0c-12 -30 -34 -45 -67 -45v0c-28 0 -51 8 -70 24v0l-50 -86c35 -23 74 -34 118 -34v0c73 0 125 32 157 96v0c17 33 25 83 25 152v0v432h-102z" />
    <glyph glyph-name="K" unicode="K" horiz-adv-x="586" 
d="M182 667h-102v-667h102v276l20 20l238 -296h136l-303 365l301 302h-134l-258 -266v266z" />
    <glyph glyph-name="L" unicode="L" horiz-adv-x="394" 
d="M80 667v-667h298v96h-196v571h-102z" />
    <glyph glyph-name="M" unicode="M" horiz-adv-x="852" 
d="M164 0l70 403l192 -434l194 433l68 -402h104l-126 717l-234 -518l-232 518l-140 -717h104z" />
    <glyph glyph-name="N" unicode="N" horiz-adv-x="746" 
d="M182 0v466l484 -507v708h-102v-462l-484 507v-712h102z" />
    <glyph glyph-name="O" unicode="O" horiz-adv-x="790" 
d="M395 679c-99 0 -182 -33 -248 -99s-99 -148 -99 -247s33 -181 99 -247s149 -99 248 -99s182 33 248 99s99 148 99 247s-33 181 -99 247s-149 99 -248 99zM219 152v0c-46 47 -69 107 -69 181s23 135 69 182v0c46 47 105 70 176 70s130 -23 176 -70v0
c46 -47 69 -108 69 -182s-23 -134 -69 -181v0c-46 -47 -105 -71 -176 -71s-130 24 -176 71z" />
    <glyph glyph-name="P" unicode="P" horiz-adv-x="480" 
d="M80 667v-667h102v271h46c68 0 122 17 163 52v0c43 37 65 86 65 146v0c0 33 -7 63 -21 92v0c-15 29 -36 53 -62 70v0c-36 24 -85 36 -146 36v0h-147zM182 573h45c28 0 51 -3 69 -10v0c17 -7 31 -16 41 -28v0c9 -13 14 -24 17 -33v0c3 -9 4 -19 4 -32v0
c0 -32 -11 -57 -33 -76v0c-23 -19 -55 -29 -97 -29v0h-46v208z" />
    <glyph glyph-name="Q" unicode="Q" horiz-adv-x="790" 
d="M632 -13h126l-108 107c61 67 92 146 92 239v0c0 97 -33 180 -99 247v0c-66 66 -149 99 -248 99s-182 -33 -248 -99s-99 -148 -99 -247v0c0 -99 33 -182 99 -247v0c65 -66 148 -99 248 -99v0c71 0 134 17 187 50v0zM479 264h-127l158 -157c-33 -17 -72 -26 -115 -26v0
c-71 0 -130 24 -176 71v0c-46 47 -69 107 -69 181s23 135 69 182v0c46 47 105 70 176 70s130 -23 176 -70v0c46 -47 69 -108 69 -182v0c0 -68 -20 -125 -59 -170v0z" />
    <glyph glyph-name="R" unicode="R" horiz-adv-x="534" 
d="M80 667v-667h102v273h18l191 -273h123l-208 285c45 10 81 32 108 65v0c27 33 40 73 40 121v0c0 70 -26 122 -79 157v0c-39 26 -98 39 -176 39v0h-119zM182 573h35c93 0 139 -34 139 -103v0c0 -20 -4 -37 -12 -52v0c-9 -15 -18 -25 -29 -32v0c-12 -7 -25 -13 -39 -17v0
c-13 -3 -25 -6 -36 -7v0c-6 -1 -15 -1 -26 -1v0h-32v212z" />
    <glyph glyph-name="S" unicode="S" horiz-adv-x="516" 
d="M368 519l82 48c-13 25 -30 48 -51 67v0c-35 30 -80 45 -134 45v0c-60 0 -107 -17 -142 -52v0c-35 -35 -53 -77 -53 -124v0c0 -75 45 -131 136 -169v0l64 -27c29 -12 53 -26 70 -43v0c17 -17 26 -41 26 -71v0c0 -33 -10 -60 -31 -81s-47 -31 -79 -31v0
c-37 0 -66 13 -87 40v0c-19 25 -28 53 -28 85v0l-101 -22c5 -51 24 -94 56 -130v0c40 -45 92 -67 157 -67v0c62 0 114 20 155 60v0c40 39 60 90 60 154v0c0 88 -52 153 -157 196v0l-67 27c-48 19 -72 46 -72 81v0c0 23 8 42 25 57v0c17 15 40 23 69 23v0c28 0 52 -8 72 -24
v0c13 -12 23 -26 30 -42v0z" />
    <glyph glyph-name="T" unicode="T" horiz-adv-x="428" 
d="M418 571v96h-408v-96h153v-571h102v571h153z" />
    <glyph glyph-name="U" unicode="U" horiz-adv-x="654" 
d="M80 667v-429c0 -70 21 -128 62 -173v0c48 -52 110 -78 185 -78s137 26 185 78v0c41 45 62 103 62 173v0v429h-102v-402c0 -51 -7 -90 -21 -115v0c-11 -19 -27 -35 -50 -48v0c-22 -14 -47 -21 -74 -21s-52 7 -74 21v0c-23 13 -39 29 -50 48v0c-14 25 -21 63 -21 115v0v402
h-102z" />
    <glyph glyph-name="V" unicode="V" horiz-adv-x="600" 
d="M4 667l296 -710l296 710h-110l-186 -465l-186 465h-110z" />
    <glyph glyph-name="W" unicode="W" horiz-adv-x="940" 
d="M4 667l284 -710l176 473l174 -473l298 710h-110l-182 -446l-174 478l-180 -478l-176 446h-110z" />
    <glyph glyph-name="X" unicode="X" horiz-adv-x="546" 
d="M10 0h114l152 255l146 -255h114l-201 348l192 319h-114l-133 -226l-130 226h-114l184 -319z" />
    <glyph glyph-name="Y" unicode="Y" horiz-adv-x="540" 
d="M219 0h102v288l219 379h-116l-154 -267l-154 267h-116l219 -379v-288z" />
    <glyph glyph-name="Z" unicode="Z" horiz-adv-x="554" 
d="M524 667h-440v-96h274l-328 -571h486v96h-320z" />
    <glyph glyph-name="bracketleft" unicode="[" horiz-adv-x="316" 
d="M270 639v90h-182v-906h182v90h-84v726h84z" />
    <glyph glyph-name="backslash" unicode="\" horiz-adv-x="540" 
d="M540 -147l-382 884l-80 -36l382 -884z" />
    <glyph glyph-name="bracketright" unicode="]" horiz-adv-x="316" 
d="M46 -87v-90h182v906h-182v-90h84v-726h-84z" />
    <glyph glyph-name="asciicircum" unicode="^" 
d="M250 592l130 -240h104l-171 317h-126l-171 -317h104z" />
    <glyph glyph-name="underscore" unicode="_" horiz-adv-x="400" 
d="M0 -144h400v86h-400v-86z" />
    <glyph glyph-name="grave" unicode="`" 
d="M241 485l54 34l-120 156l-90 -46z" />
    <glyph glyph-name="a" unicode="a" horiz-adv-x="530" 
d="M370 421v-49c-31 40 -72 60 -125 60v0c-58 0 -106 -20 -145 -60v0c-40 -41 -60 -95 -60 -161v0c0 -61 19 -113 56 -158v0c37 -44 87 -66 148 -66v0c51 0 93 19 126 57v0v-44h98v421h-98zM257 344v0c33 0 62 -12 85 -35v0c23 -23 34 -57 34 -101v0c0 -43 -11 -75 -34 -98
v0c-23 -23 -52 -35 -85 -35v0c-35 0 -63 13 -84 39v0c-22 26 -33 58 -33 95v0c0 38 11 70 33 96v0c21 26 49 39 84 39z" />
    <glyph glyph-name="b" unicode="b" horiz-adv-x="530" 
d="M160 729h-98v-729h98v44c33 -38 75 -57 126 -57v0c63 0 112 22 149 66v0c37 43 55 96 55 158v0c0 66 -20 120 -59 161v0c-40 40 -89 60 -146 60v0c-53 0 -94 -20 -125 -60v0v357zM273 344v0c35 0 63 -13 85 -39v0c21 -27 32 -59 32 -96v0c0 -37 -11 -68 -32 -95v0
c-22 -26 -50 -39 -85 -39v0c-33 0 -61 12 -84 35s-35 56 -35 98v0c0 43 12 76 35 101v0c23 23 51 35 84 35z" />
    <glyph glyph-name="c" unicode="c" horiz-adv-x="420" 
d="M388 273v129c-33 20 -73 30 -119 30v0c-67 0 -121 -19 -161 -57v0c-45 -43 -68 -99 -68 -166v0c0 -65 20 -117 60 -158v0c42 -43 99 -64 172 -64v0c42 0 81 10 116 31v0v129c-12 -22 -30 -40 -53 -53v0c-21 -13 -45 -19 -70 -19v0c-37 0 -67 13 -90 39v0
c-23 27 -35 59 -35 96v0c0 41 13 74 38 98s55 36 88 36v0c54 0 95 -24 122 -71v0z" />
    <glyph glyph-name="d" unicode="d" horiz-adv-x="530" 
d="M370 729v-357c-31 40 -72 60 -125 60v0c-58 0 -106 -20 -145 -60v0c-40 -41 -60 -95 -60 -161v0c0 -61 19 -113 56 -158v0c37 -44 87 -66 148 -66v0c51 0 93 19 126 57v0v-44h98v729h-98zM257 344v0c33 0 62 -12 85 -35v0c23 -23 34 -57 34 -101v0c0 -43 -11 -75 -34 -98
v0c-23 -23 -52 -35 -85 -35v0c-35 0 -63 13 -84 39v0c-22 26 -33 58 -33 95v0c0 38 11 70 33 96v0c21 26 49 39 84 39z" />
    <glyph glyph-name="e" unicode="e" horiz-adv-x="486" 
d="M446 110l-82 46c-10 -25 -24 -44 -43 -58v0c-19 -15 -42 -23 -67 -23v0c-28 0 -54 10 -77 29v0c-24 19 -36 47 -37 83v0h302v15c0 65 -13 116 -39 153v0c-36 51 -89 77 -158 77v0c-62 0 -112 -21 -149 -62s-56 -95 -56 -162v0c0 -71 21 -126 62 -164s91 -57 148 -57v0
c55 0 102 17 141 51v0c22 20 40 44 55 72v0zM342 267h-195c7 23 19 42 36 56s37 21 62 21v0c24 0 45 -7 63 -21v0c18 -15 29 -33 34 -56v0z" />
    <glyph glyph-name="f" unicode="f" horiz-adv-x="262" 
d="M268 331v90h-106v163c0 23 3 39 10 48v0c7 10 18 15 34 15v0c18 0 39 -7 62 -20v0v99c-22 10 -45 15 -70 15v0c-37 0 -67 -10 -90 -31v0c-29 -25 -44 -68 -44 -127v0v-162h-34v-90h34v-331h98v331h106z" />
    <glyph glyph-name="g" unicode="g" horiz-adv-x="530" 
d="M370 421v-46c-32 38 -74 57 -125 57v0c-58 0 -106 -20 -145 -60v0c-40 -41 -60 -95 -60 -161v0c0 -62 18 -115 55 -158v0c37 -44 86 -66 149 -66v0c51 0 93 20 126 60v0v-55c0 -89 -36 -134 -107 -134v0c-34 0 -61 11 -81 33v0c-20 21 -29 49 -28 84v0h-95
c-3 -61 15 -111 54 -148v0c39 -38 89 -57 150 -57v0c73 0 130 27 169 80v0c10 14 18 31 25 52v0c6 23 9 40 10 51v0c1 9 1 28 1 57v0v411h-98zM257 344v0c33 0 62 -12 85 -35v0c23 -23 34 -57 34 -101v0c0 -43 -11 -75 -34 -98v0c-23 -23 -52 -35 -85 -35v0
c-35 0 -63 13 -84 39v0c-22 26 -33 58 -33 95v0c0 38 11 70 33 96v0c21 26 49 39 84 39z" />
    <glyph glyph-name="h" unicode="h" horiz-adv-x="486" 
d="M62 0h98v203c0 51 7 87 20 106v0c16 23 40 35 72 35v0c24 0 42 -7 55 -22v0c13 -13 19 -38 19 -73v0v-249h98v258c0 52 -9 91 -27 117v0c-27 38 -69 57 -124 57v0c-44 0 -82 -16 -113 -47v0v344h-98v-729z" />
    <glyph glyph-name="i" unicode="i" horiz-adv-x="222" 
d="M62 421v-421h98v421h-98zM48 595c0 -18 6 -33 18 -45s27 -18 45 -18s33 6 45 18s18 27 18 45s-6 33 -18 45s-27 18 -45 18s-33 -6 -45 -18s-18 -27 -18 -45z" />
    <glyph glyph-name="j" unicode="j" horiz-adv-x="222" 
d="M62 421v-650h98v650h-98zM48 595c0 -18 6 -33 18 -45s27 -18 45 -18s33 6 45 18s18 27 18 45s-6 33 -18 45s-27 18 -45 18s-33 -6 -45 -18s-18 -27 -18 -45z" />
    <glyph glyph-name="k" unicode="k" horiz-adv-x="442" 
d="M62 729v-729h98v162l18 18l138 -180h124l-194 246l181 175h-130l-137 -141v449h-98z" />
    <glyph glyph-name="l" unicode="l" horiz-adv-x="222" 
d="M62 729v-729h98v729h-98z" />
    <glyph glyph-name="m" unicode="m" horiz-adv-x="702" 
d="M62 0h98v217c0 47 6 79 19 96v0c15 21 34 31 58 31v0c29 0 47 -12 56 -37v0c6 -13 9 -38 9 -75v0v-232h98v217c0 47 6 79 19 96v0c15 21 34 31 58 31v0c29 0 47 -12 56 -37v0c6 -13 9 -38 9 -75v0v-232h98v260c0 45 -7 81 -22 106v0c-25 44 -65 66 -120 66v0
c-54 0 -96 -21 -125 -62v0c-24 41 -60 62 -109 62v0c-42 0 -77 -17 -104 -50v0v39h-98v-421z" />
    <glyph glyph-name="n" unicode="n" horiz-adv-x="485" 
d="M61 0h98v202c0 34 2 61 7 80v0c5 20 12 34 22 43v0c9 7 18 13 27 16v0c8 2 19 3 33 3v0c10 0 20 -1 29 -2v0c6 -1 14 -5 23 -12v0c9 -7 15 -18 19 -34s6 -37 6 -62v0v-234h98v258c0 53 -9 92 -26 117v0c-27 38 -69 57 -124 57v0c-46 0 -84 -17 -114 -50v0v39h-98v-421z
" />
    <glyph glyph-name="o" unicode="o" horiz-adv-x="530" 
d="M105 370v0c-43 -42 -65 -95 -65 -160v0c0 -64 22 -117 65 -159v0c43 -43 96 -64 160 -64v0c65 0 118 21 161 64v0c43 42 64 95 64 159v0c0 65 -21 118 -64 160v0c-43 41 -97 62 -161 62v0c-63 0 -117 -21 -160 -62zM174 112v0c-23 23 -34 56 -34 97v0c0 45 12 78 37 101
v0c23 23 53 34 88 34v0c35 0 64 -11 89 -34v0c24 -23 36 -56 36 -101v0c0 -41 -11 -74 -34 -97v0c-23 -25 -53 -37 -91 -37s-68 12 -91 37z" />
    <glyph glyph-name="p" unicode="p" horiz-adv-x="530" 
d="M160 -229v278c34 -41 76 -62 126 -62v0c53 0 101 21 142 63v0c41 41 62 96 62 163v0c0 65 -20 118 -59 159v0c-40 40 -89 60 -146 60v0c-51 0 -93 -19 -125 -57v0v46h-98v-650h98zM273 344v0c35 0 63 -13 85 -39v0c21 -27 32 -59 32 -96v0c0 -37 -11 -68 -32 -95v0
c-22 -26 -50 -39 -85 -39v0c-33 0 -61 12 -84 35s-35 56 -35 98v0c0 43 12 76 35 101v0c23 23 51 35 84 35z" />
    <glyph glyph-name="q" unicode="q" horiz-adv-x="530" 
d="M370 421v-46c-32 38 -74 57 -125 57v0c-58 0 -106 -20 -145 -60v0c-40 -41 -60 -95 -60 -161v0c0 -62 18 -115 55 -158v0c37 -44 86 -66 149 -66v0c51 0 93 20 126 60v0v-276h98v650h-98zM257 344v0c33 0 62 -12 85 -35v0c23 -23 34 -57 34 -101v0c0 -43 -11 -75 -34 -98
v0c-23 -23 -52 -35 -85 -35v0c-35 0 -63 13 -84 39v0c-22 26 -33 58 -33 95v0c0 38 11 70 33 96v0c21 26 49 39 84 39z" />
    <glyph glyph-name="r" unicode="r" horiz-adv-x="332" 
d="M62 0h98v218c0 39 6 68 17 87v0c14 22 35 33 62 33v0c17 0 36 -7 55 -20v0l44 89c-25 17 -52 25 -79 25v0c-39 0 -72 -16 -99 -49v0v38h-98v-421z" />
    <glyph glyph-name="s" unicode="s" horiz-adv-x="360" 
d="M226 306l81 43c-24 55 -64 83 -120 83v0c-38 0 -69 -11 -94 -34v0c-25 -23 -38 -54 -38 -92v0c0 -39 17 -70 50 -92v0c1 -1 29 -15 84 -41v0c3 -2 8 -4 13 -6c5 -3 8 -4 9 -5v0c4 -3 9 -8 15 -16v0c5 -9 8 -17 8 -26v0c0 -13 -4 -24 -13 -32v0c-9 -9 -21 -13 -36 -13v0
c-18 0 -32 5 -43 16v0c-12 10 -21 23 -26 38v0l-82 -38c9 -24 21 -43 36 -58v0c16 -17 32 -27 47 -32v0c19 -7 32 -10 39 -11v0c9 -2 17 -3 24 -3v0c43 0 80 14 110 42v0c29 27 44 61 44 101v0c0 38 -17 69 -51 94v0c-22 15 -49 29 -80 43v0c-5 2 -8 4 -9 5v0
c-7 3 -10 4 -10 4v0c-1 0 -1 0 -2 1v0c-3 1 -5 2 -6 3v0c-4 2 -7 4 -8 5v0l-3 3c-2 1 -3 1 -4 2v0c-3 2 -5 4 -6 6v0c-2 2 -3 4 -4 6v0c-1 3 -2 5 -3 7s-1 5 -1 8v0c0 9 3 16 10 21v0c7 4 15 6 22 6v0c22 0 38 -13 47 -38v0z" />
    <glyph glyph-name="t" unicode="t" horiz-adv-x="242" 
d="M238 331v90h-75v154h-98v-154h-41v-90h41v-331h98v331h75z" />
    <glyph glyph-name="u" unicode="u" horiz-adv-x="484" 
d="M62 421v-244c0 -62 15 -108 45 -138v0c34 -35 78 -52 133 -52v0c57 0 102 17 137 52v0c30 30 45 76 45 138v0v244h-98v-241c0 -36 -6 -61 -18 -76v0c-15 -19 -37 -29 -64 -29s-49 10 -64 29v0c-12 15 -18 40 -18 76v0v241h-98z" />
    <glyph glyph-name="v" unicode="v" horiz-adv-x="448" 
d="M6 421l218 -451l218 451h-110l-108 -240l-108 240h-110z" />
    <glyph glyph-name="w" unicode="w" horiz-adv-x="686" 
d="M6 421l219 -451l118 269l118 -269l219 451h-110l-109 -241l-118 277l-118 -277l-109 241h-110z" />
    <glyph glyph-name="x" unicode="x" horiz-adv-x="496" 
d="M6 0h120l125 157l121 -157h118l-180 228l155 193h-120l-94 -123l-93 123h-116l150 -193z" />
    <glyph glyph-name="y" unicode="y" horiz-adv-x="482" 
d="M31 -229h110l335 650h-110l-118 -237l-124 237h-118l187 -343z" />
    <glyph glyph-name="z" unicode="z" horiz-adv-x="480" 
d="M472 421h-406v-90h215l-273 -331h443v90h-250z" />
    <glyph glyph-name="braceleft" unicode="{" 
d="M288 364v148c0 31 6 53 17 64v0c11 11 34 16 71 16v0h8v84h-47c-47 0 -82 -8 -103 -24v0c-29 -22 -44 -60 -44 -115v0v-171c0 -48 -19 -76 -56 -83v0v-80c37 -7 56 -35 56 -83v0v-171c0 -55 15 -93 44 -115v0c21 -16 56 -24 103 -24v0h47v84h-8c-37 0 -60 5 -71 16v0
c-11 11 -17 33 -17 64v0v148c0 32 -4 57 -12 74v0c-11 22 -28 38 -50 47v0c22 9 39 25 50 47v0c8 17 12 42 12 74v0z" />
    <glyph glyph-name="bar" unicode="|" 
d="M202 -250h96v1000h-96v-1000z" />
    <glyph glyph-name="braceright" unicode="}" 
d="M230 122v-148c0 -31 -6 -53 -17 -64v0c-11 -11 -34 -16 -71 -16v0h-8v-84h47c47 0 82 8 103 24v0c29 22 44 60 44 115v0v171c0 48 19 76 56 83v0v80c-37 7 -56 35 -56 83v0v171c0 55 -15 93 -44 115v0c-21 16 -55 24 -103 24v0h-47v-84h8c37 0 60 -5 71 -16v0
c11 -11 17 -33 17 -64v0v-148c0 -32 4 -57 12 -74v0c11 -22 28 -38 50 -47v0c-22 -9 -39 -25 -50 -47v0c-8 -17 -12 -41 -12 -74v0z" />
    <glyph glyph-name="asciitilde" unicode="~" horiz-adv-x="668" 
d="M576 703l-57 33c-9 -18 -20 -32 -33 -43v0c-13 -12 -30 -18 -49 -18v0c-20 0 -51 9 -93 28v0c-47 21 -84 31 -110 31v0c-36 0 -67 -14 -92 -42v0c-19 -21 -36 -49 -50 -83v0l56 -36c7 17 16 32 29 45v0c13 15 30 22 51 22v0c16 0 45 -9 87 -26v0c52 -21 89 -32 112 -32v0
c32 0 60 9 83 28v0c27 21 49 52 66 93v0z" />
    <glyph glyph-name="nbsp" unicode="&#xa0;" horiz-adv-x="20" 
 />
    <glyph glyph-name="currency" unicode="&#xa4;" horiz-adv-x="668" 
d="M92 660l-54 -54l99 -99c-30 -39 -45 -86 -45 -140s15 -101 45 -140v0l-99 -99l54 -54l99 99c39 -32 87 -48 143 -48s104 16 143 48v0l99 -99l54 54l-99 99c30 39 45 86 45 140s-15 101 -45 140v0l99 99l-54 54l-99 -99c-39 32 -87 48 -143 48s-104 -16 -143 -48v0z
M334 211c-43 0 -79 15 -108 44s-44 67 -44 112s15 83 44 112s65 44 108 44v0c43 0 80 -15 109 -44v0c29 -29 43 -66 43 -112s-14 -83 -43 -112v0c-29 -29 -66 -44 -109 -44v0z" />
    <glyph glyph-name="brokenbar" unicode="&#xa6;" 
d="M202 390h96v360h-96v-360zM202 -250h96v360h-96v-360z" />
    <glyph glyph-name="section" unicode="&#xa7;" horiz-adv-x="568" 
d="M390 533h94c1 50 -9 92 -30 126v0c-33 52 -85 78 -156 78v0c-56 0 -102 -17 -137 -50s-53 -76 -53 -128v0c0 -58 26 -101 78 -130v0c-64 -28 -96 -78 -96 -151v0c0 -56 18 -99 55 -130v0c20 -17 54 -34 103 -51v0c45 -15 75 -29 89 -41v0c21 -17 31 -37 31 -60v0
c0 -25 -8 -46 -23 -63v0c-16 -17 -39 -26 -69 -26v0c-38 0 -65 13 -81 40v0c-11 15 -16 36 -17 61v0h-94c-1 -31 6 -62 19 -93v0c17 -35 42 -61 73 -77v0c31 -17 64 -25 100 -25v0c53 0 97 16 134 49v0c36 33 54 78 54 133v0c0 61 -25 105 -74 131v0c63 31 94 82 94 154v0
c0 53 -19 95 -57 125v0c-23 17 -73 40 -152 68v0c-8 3 -16 6 -25 11v0c-8 3 -15 8 -22 15v0c-8 6 -14 14 -18 23s-6 20 -6 31v0c0 26 9 48 27 65v0c17 17 40 25 68 25v0c32 0 57 -13 74 -38v0c13 -19 18 -43 17 -72v0zM287 377v0c28 0 51 -9 70 -28v0c18 -19 27 -43 27 -70
s-9 -51 -27 -70v0c-19 -19 -42 -28 -70 -28v0c-27 0 -50 9 -69 28s-28 42 -28 70s9 51 28 70s42 28 69 28z" />
    <glyph glyph-name="copyright" unicode="&#xa9;" horiz-adv-x="758" 
d="M131 85v0c65 -66 148 -99 248 -99v0c101 0 183 33 248 99v0c65 65 98 148 98 248v0c0 99 -33 182 -98 249v0c-65 65 -148 98 -248 98s-183 -33 -248 -98v0c-65 -67 -98 -150 -98 -249v0c0 -100 33 -183 98 -248zM587 122v0c-55 -57 -125 -86 -208 -86v0
c-83 0 -152 29 -207 86s-83 128 -83 211v0c0 85 27 155 82 212s124 85 208 85s153 -28 208 -85s82 -127 82 -212v0c0 -84 -27 -154 -82 -211zM512 423v87c-35 21 -73 31 -114 31v0c-63 0 -115 -20 -156 -59v0c-42 -39 -63 -89 -63 -150v0c0 -59 21 -108 62 -147
s92 -59 153 -59v0c42 0 81 10 118 31v0v88c-37 -34 -76 -51 -117 -51v0c-41 0 -75 13 -101 39v0c-26 25 -39 58 -39 99v0c0 45 14 79 43 104v0c27 25 59 37 96 37v0c44 0 83 -17 118 -50v0z" />
    <glyph glyph-name="guillemotleft" unicode="&#xab;" horiz-adv-x="510" 
d="M140 217l130 169l-65 47l-165 -216l165 -216l65 47zM326 217l130 169l-65 47l-165 -216l165 -216l65 47z" />
    <glyph glyph-name="logicalnot" unicode="&#xac;" 
d="M467 0v267h-434v-88h336v-179h98z" />
    <glyph glyph-name="registered" unicode="&#xae;" horiz-adv-x="758" 
d="M131 85v0c65 -66 148 -99 248 -99v0c101 0 183 33 248 99v0c65 65 98 148 98 248v0c0 99 -33 182 -98 249v0c-65 65 -148 98 -248 98s-183 -33 -248 -98v0c-65 -67 -98 -150 -98 -249v0c0 -100 33 -183 98 -248zM587 122v0c-55 -57 -125 -86 -208 -86v0
c-83 0 -152 29 -207 86s-83 128 -83 211v0c0 85 27 155 82 212s124 85 208 85s153 -28 208 -85s82 -127 82 -212v0c0 -84 -27 -154 -82 -211zM548 153l-124 156c27 7 47 20 61 38v0c15 17 22 40 22 68v0c0 13 -1 24 -4 34v0c-3 9 -8 20 -17 35v0c-9 13 -23 23 -42 31
s-43 12 -71 12v0h-99v-374h71v148l116 -148h87zM345 464h16c51 0 76 -17 76 -51v0c0 -35 -26 -53 -78 -53v0h-14v104z" />
    <glyph glyph-name="degree" unicode="&#xb0;" 
d="M104 522c0 -41 14 -75 42 -103s63 -42 104 -42s76 14 104 42s42 62 42 103s-14 75 -42 103s-63 42 -104 42s-76 -14 -104 -42s-42 -62 -42 -103zM191 584v0c16 17 36 25 59 25s43 -8 60 -25v0c16 -17 24 -38 24 -62s-8 -45 -24 -62v0c-17 -17 -37 -25 -60 -25
s-43 8 -59 25v0c-17 17 -25 37 -25 62s8 45 25 62z" />
    <glyph glyph-name="plusminus" unicode="&#xb1;" 
d="M33 350h170v-163h94v163h170v90h-170v163h-94v-163h-170v-90zM33 60h434v90h-434v-90z" />
    <glyph glyph-name="mu" unicode="&#xb5;" horiz-adv-x="524" 
d="M160 -170v227c21 -46 53 -69 98 -69v0c25 0 47 8 66 23v0c19 15 32 35 40 62v0v-73h98v421h-98v-199c0 -41 -7 -73 -20 -96v0c-19 -33 -47 -50 -83 -50v0c-39 0 -67 16 -84 49v0c-11 21 -17 52 -17 91v0v205h-98v-591h98z" />
    <glyph glyph-name="paragraph" unicode="&#xb6;" horiz-adv-x="616" 
d="M301 -96v687h96v-687h82v687h66v76h-297c-45 0 -84 -5 -115 -16v0c-35 -12 -61 -32 -80 -61v0c-19 -29 -29 -63 -29 -101v0c0 -51 17 -93 51 -124v0c33 -32 77 -48 130 -48v0h13v-413h83z" />
    <glyph glyph-name="periodcentered" unicode="&#xb7;" horiz-adv-x="200" 
d="M22 340c0 -21 8 -40 23 -55s34 -23 55 -23v0c22 0 41 8 56 23v0c15 15 22 33 22 55v0c0 23 -7 41 -22 56s-33 22 -56 22v0c-22 0 -40 -7 -55 -22v0c-15 -15 -23 -34 -23 -56v0z" />
    <glyph glyph-name="guillemotright" unicode="&#xbb;" horiz-adv-x="510" 
d="M184 217l-130 -169l65 -47l165 216l-165 216l-65 -47zM370 217l-130 -169l65 -47l165 216l-165 216l-65 -47z" />
    <glyph glyph-name="Udieresis" unicode="&#xdc;" horiz-adv-x="574" 
d="M80 667v-429c0 -70 21 -128 62 -173v0c48 -52 110 -78 185 -78s137 26 185 78v0c41 45 62 103 62 173v0v429h-102v-402c0 -51 -7 -90 -21 -115v0c-11 -19 -27 -35 -50 -48v0c-22 -14 -47 -21 -74 -21s-52 7 -74 21v0c-23 13 -39 29 -50 48v0c-14 25 -21 63 -21 115v0v402
h-102zM217 756v0c11 -11 24 -17 39 -17v0c13 0 26 6 39 17v0c11 11 17 24 17 39v0c0 15 -6 29 -17 40v0c-11 11 -24 16 -39 16v0c-15 0 -28 -5 -39 -16v0c-11 -11 -17 -24 -17 -40v0c0 -15 6 -28 17 -39zM367 756v0c11 -11 24 -17 39 -17v0c13 0 26 6 39 17v0
c11 11 17 24 17 39v0c0 15 -6 29 -17 40v0c-11 11 -24 16 -39 16v0c-15 0 -28 -5 -39 -16v0c-11 -11 -17 -24 -17 -40v0c0 -15 6 -28 17 -39z" />
    <glyph glyph-name="udieresis" unicode="&#xfc;" horiz-adv-x="484" 
d="M62 421v-244c0 -62 15 -108 45 -138v0c34 -35 78 -52 133 -52v0c57 0 102 17 137 52v0c30 30 45 76 45 138v0v244h-98v-241c0 -36 -6 -61 -18 -76v0c-15 -19 -37 -29 -64 -29s-49 10 -64 29v0c-12 15 -18 40 -18 76v0v241h-98zM147 513v0c9 -9 21 -14 34 -14v0
c12 0 23 5 34 14v0c9 9 14 21 14 34s-5 25 -14 34v0c-11 9 -22 14 -34 14v0c-13 0 -25 -5 -34 -14v0c-9 -9 -14 -20 -14 -34s5 -25 14 -34zM273 513v0c9 -9 21 -14 34 -14v0c12 0 23 5 34 14v0c9 9 14 21 14 34s-5 25 -14 34v0c-11 9 -22 14 -34 14v0c-13 0 -25 -5 -34 -14
v0c-9 -9 -14 -20 -14 -34s5 -25 14 -34z" />
    <glyph glyph-name="uni0400" unicode="&#x400;" horiz-adv-x="20" 
 />
    <glyph glyph-name="uni0401" unicode="&#x401;" 
d="M448 667h-368v-667h368v96h-266v220h258v96h-258v159h266v96zM104 795c0 -17 6 -32 18 -44s27 -18 44 -18s32 6 44 18s18 27 18 44s-6 32 -18 44s-27 18 -44 18s-32 -6 -44 -18s-18 -27 -18 -44zM300 795c0 -17 6 -32 18 -44s27 -18 44 -18s32 6 44 18s18 27 18 44
s-6 32 -18 44s-27 18 -44 18s-32 -6 -44 -18s-18 -27 -18 -44z" />
    <glyph glyph-name="uni0402" unicode="&#x402;" horiz-adv-x="700" 
d="M486 571v96h-476v-96h154v-571h102v299c42 5 84 7 125 7s74 -6 99 -17v0c40 -17 60 -51 60 -102v0c0 -31 -9 -57 -26 -76v0c-17 -19 -40 -28 -69 -28v0c-35 0 -70 10 -105 29v0l-24 -93c39 -20 81 -30 128 -30v0c59 0 106 18 143 55v0c37 36 55 85 55 146v0
c0 84 -33 144 -99 179v0c-39 21 -91 31 -157 31v0c-45 0 -89 -2 -130 -7v0v178h220z" />
    <glyph glyph-name="uni0403" unicode="&#x403;" horiz-adv-x="428" 
d="M80 0h102v571h232v96h-334v-667zM234 727l176 119l-86 60l-138 -139z" />
    <glyph glyph-name="uni0404" unicode="&#x404;" horiz-adv-x="620" 
d="M574 511v120c-50 32 -109 48 -178 48v0c-99 0 -180 -29 -241 -87v0c-71 -67 -107 -154 -107 -261v0c0 -101 36 -185 107 -252v0c65 -61 144 -92 236 -92v0c65 0 126 17 183 50v0v121c-55 -51 -115 -77 -180 -77v0c-75 0 -135 25 -180 74v0c-35 39 -56 85 -61 139v0h331
v96h-328c8 49 28 90 59 125v0c42 47 101 70 178 70v0c66 0 126 -25 181 -74v0z" />
    <glyph glyph-name="uni0405" unicode="&#x405;" horiz-adv-x="516" 
d="M368 519l82 48c-13 25 -30 48 -51 67v0c-35 30 -80 45 -134 45v0c-60 0 -107 -17 -142 -52v0c-35 -35 -53 -77 -53 -124v0c0 -75 45 -131 136 -169v0l64 -27c29 -12 53 -26 70 -43v0c17 -17 26 -41 26 -71v0c0 -33 -10 -60 -31 -81s-47 -31 -79 -31v0
c-37 0 -66 13 -87 40v0c-19 25 -28 53 -28 85v0l-101 -22c5 -51 24 -94 56 -130v0c40 -45 92 -67 157 -67v0c62 0 114 20 155 60v0c40 39 60 90 60 154v0c0 88 -52 153 -157 196v0l-67 27c-48 19 -72 46 -72 81v0c0 23 8 42 25 57v0c17 15 40 23 69 23v0c28 0 52 -8 72 -24
v0c13 -12 23 -26 30 -42v0z" />
    <glyph glyph-name="uni0406" unicode="&#x406;" horiz-adv-x="262" 
d="M80 667v-667h102v667h-102z" />
    <glyph glyph-name="uni0407" unicode="&#x407;" horiz-adv-x="262" 
d="M80 667v-667h102v667h-102zM0 795c0 -15 6 -28 17 -39s24 -17 39 -17s28 6 39 17s17 24 17 39v0c0 15 -6 29 -17 40v0c-11 11 -24 16 -39 16s-28 -5 -39 -16v0c-11 -11 -17 -25 -17 -40v0zM150 795c0 -15 6 -28 17 -39s24 -17 39 -17s28 6 39 17s17 24 17 39v0
c0 15 -6 29 -17 40v0c-11 11 -24 16 -39 16s-28 -5 -39 -16v0c-11 -11 -17 -25 -17 -40v0z" />
    <glyph glyph-name="uni0408" unicode="&#x408;" horiz-adv-x="362" 
d="M180 667v-432c0 -51 -4 -87 -11 -107v0c-12 -30 -34 -45 -67 -45v0c-28 0 -51 8 -70 24v0l-50 -86c35 -23 74 -34 118 -34v0c73 0 125 32 157 96v0c17 33 25 83 25 152v0v432h-102z" />
    <glyph glyph-name="uni0409" unicode="&#x409;" horiz-adv-x="900" 
d="M144 667v-398c0 -33 0 -53 -1 -62v0c-1 -17 -4 -34 -8 -50v0c-5 -21 -13 -36 -24 -46v0c-15 -15 -35 -23 -60 -23v0c-11 0 -24 2 -37 6v0v-94c16 -4 31 -6 45 -6v0c48 0 88 13 121 40v0c19 16 34 36 45 61v0c10 25 16 48 18 67s3 45 3 77v0v332h222v-571h179
c61 0 110 12 146 36v0c26 17 47 41 62 71v0c14 29 21 60 21 91v0c0 61 -21 110 -63 147v0c-41 35 -96 53 -167 53v0h-76v269h-426zM570 302h74c49 0 83 -10 103 -30v0c19 -21 29 -46 29 -75v0c0 -67 -45 -101 -134 -101v0h-72v206z" />
    <glyph glyph-name="uni040A" unicode="&#x40a;" horiz-adv-x="900" 
d="M182 667h-102v-667h102v302h286v-302h179c61 0 110 12 146 36v0c26 17 47 41 62 71v0c14 29 21 60 21 91v0c0 61 -21 110 -63 147v0c-41 35 -96 53 -167 53v0h-76v269h-102v-269h-286v269zM570 302h74c49 0 83 -10 103 -30v0c19 -21 29 -46 29 -75v0
c0 -67 -45 -101 -134 -101v0h-72v206z" />
    <glyph glyph-name="uni040B" unicode="&#x40b;" horiz-adv-x="690" 
d="M486 571v96h-476v-96h154v-571h102v299c40 5 80 7 120 7v0c53 0 88 -7 106 -21v0c24 -19 36 -54 36 -103v0v-182h102v197c0 74 -22 128 -65 162v0c-35 27 -92 41 -170 41v0c-48 0 -91 -2 -129 -7v0v178h220z" />
    <glyph glyph-name="uni040C" unicode="&#x40c;" horiz-adv-x="586" 
d="M182 667h-102v-667h102v276l20 20l238 -296h136l-303 365l301 302h-134l-258 -266v266zM277 727l176 119l-86 60l-138 -139z" />
    <glyph glyph-name="uni040E" unicode="&#x40e;" horiz-adv-x="570" 
d="M6 667l241 -468l-90 -199h106l301 667h-106l-153 -346l-175 346h-124zM209 868l-80 -36c15 -37 39 -64 70 -79v0c32 -15 64 -23 95 -23v0c32 0 64 8 96 23v0c31 15 54 41 69 79v0l-80 36c-4 -13 -10 -23 -18 -31s-17 -14 -28 -17v0c-11 -3 -19 -5 -24 -6v0
c-7 -1 -12 -2 -15 -2s-8 1 -15 2v0c-6 1 -14 3 -23 6v0c-11 3 -21 9 -28 17v0c-9 8 -15 18 -19 31v0z" />
    <glyph glyph-name="uni040F" unicode="&#x40f;" horiz-adv-x="640" 
d="M80 0h192v-180h96v180h192v667h-102v-571h-276v571h-102v-667z" />
    <glyph glyph-name="uni0410" unicode="&#x410;" horiz-adv-x="656" 
d="M542 0h110l-316 706l-332 -706h110l73 161h285zM229 257l103 226l99 -226h-202z" />
    <glyph glyph-name="uni0411" unicode="&#x411;" horiz-adv-x="526" 
d="M80 0h169c61 0 110 12 146 36v0c26 17 47 41 62 71v0c14 29 21 59 21 91v0c0 61 -21 110 -63 147v0c-41 35 -96 53 -167 53v0h-66v173h232v96h-334v-667zM182 302h64c49 0 83 -10 103 -30v0c19 -21 29 -46 29 -75v0c0 -67 -45 -101 -134 -101v0h-62v206z" />
    <glyph glyph-name="uni0412" unicode="&#x412;" horiz-adv-x="526" 
d="M80 667v-667h153c39 0 73 3 102 8v0c25 5 51 18 76 39v0c45 36 67 88 67 157v0c0 35 -10 67 -30 96v0c-21 29 -50 48 -86 59v0c37 29 56 70 56 122v0c0 65 -26 116 -77 151v0c-33 23 -87 35 -160 35v0h-101zM182 571h35c70 0 105 -31 105 -93v0c0 -65 -36 -98 -109 -98v0
h-31v191zM182 296h64c88 0 132 -34 132 -101v0c0 -27 -10 -50 -29 -69v0c-19 -20 -54 -30 -105 -30v0h-62v200z" />
    <glyph glyph-name="uni0413" unicode="&#x413;" horiz-adv-x="428" 
d="M80 0h102v571h232v96h-334v-667z" />
    <glyph glyph-name="uni0414" unicode="&#x414;" horiz-adv-x="650" 
d="M144 667v-306c0 -75 -8 -134 -24 -175v0c-11 -27 -25 -48 -44 -65v0c-20 -17 -41 -26 -62 -25v0v-246h96v150h430v-150h96v246h-76v571h-416zM246 571h212v-475h-287c23 22 40 48 52 79v0c15 42 23 104 23 186v0v210z" />
    <glyph glyph-name="uni0415" unicode="&#x415;" 
d="M448 667h-368v-667h368v96h-266v220h258v96h-258v159h266v96z" />
    <glyph glyph-name="uni0416" unicode="&#x416;" horiz-adv-x="846" 
d="M372 667v-269l-238 269h-124l275 -306l-281 -361h126l226 294l16 -18v-276h102v276l16 18l226 -294h126l-281 361l275 306h-124l-238 -269v269h-102z" />
    <glyph glyph-name="uni0417" unicode="&#x417;" horiz-adv-x="570" 
d="M76 581l67 -65c33 45 79 68 136 68v0c35 0 61 -9 80 -26v0c15 -15 23 -35 23 -58v0c0 -33 -12 -58 -36 -75v0c-23 -17 -51 -25 -84 -25v0h-60v-96h60c107 0 160 -37 160 -112v0c0 -39 -17 -69 -50 -88v0c-23 -15 -53 -22 -92 -22v0c-42 0 -76 11 -103 33v0
c-27 20 -48 46 -61 79v0l-90 -46c8 -17 18 -34 29 -49v0c11 -15 26 -32 47 -51v0c19 -17 44 -32 75 -43v0c31 -11 64 -17 100 -17v0c60 0 113 15 158 44v0c58 38 87 92 87 163v0c0 7 -1 17 -2 32v0c-2 12 -6 28 -13 47v0c-7 22 -20 41 -38 57v0c-19 17 -43 29 -71 36v0
c55 31 82 78 82 141v0c0 51 -18 92 -55 123v0c-37 31 -87 47 -148 47v0c-83 0 -150 -32 -201 -97v0z" />
    <glyph glyph-name="uni0418" unicode="&#x418;" horiz-adv-x="712" 
d="M530 0h102v695l-450 -479v451h-102v-697l450 479v-449z" />
    <glyph glyph-name="uni0419" unicode="&#x419;" horiz-adv-x="712" 
d="M530 0h102v695l-450 -479v451h-102v-697l450 479v-449zM271 868l-80 -36c13 -34 35 -59 65 -76v0c31 -17 65 -26 100 -26s69 9 100 26v0c30 17 52 42 65 76v0l-80 36c-4 -13 -10 -23 -18 -31s-17 -14 -28 -17v0c-11 -3 -19 -5 -24 -6v0c-7 -1 -12 -2 -15 -2s-8 1 -15 2v0
c-6 1 -14 3 -23 6v0c-11 3 -21 9 -28 17v0c-9 8 -15 18 -19 31v0z" />
    <glyph glyph-name="uni041A" unicode="&#x41a;" horiz-adv-x="586" 
d="M182 667h-102v-667h102v276l20 20l238 -296h136l-303 365l301 302h-134l-258 -266v266z" />
    <glyph glyph-name="uni041B" unicode="&#x41b;" horiz-adv-x="650" 
d="M144 667v-398c0 -33 0 -53 -1 -62v0c-1 -17 -4 -34 -8 -50v0c-5 -21 -13 -36 -24 -46v0c-15 -15 -35 -23 -60 -23v0c-11 0 -24 2 -37 6v0v-94c16 -4 31 -6 45 -6v0c48 0 88 13 121 40v0c19 16 34 36 45 61v0c10 25 16 48 18 67s3 45 3 77v0v332h222v-571h102v667h-426z
" />
    <glyph glyph-name="uni041C" unicode="&#x41c;" horiz-adv-x="852" 
d="M164 0l70 403l192 -434l194 433l68 -402h104l-126 717l-234 -518l-232 518l-140 -717h104z" />
    <glyph glyph-name="uni041D" unicode="&#x41d;" horiz-adv-x="650" 
d="M182 667h-102v-667h102v311h286v-311h102v667h-102v-260h-286v260z" />
    <glyph glyph-name="uni041E" unicode="&#x41e;" horiz-adv-x="790" 
d="M395 679c-99 0 -182 -33 -248 -99s-99 -148 -99 -247s33 -181 99 -247s149 -99 248 -99s182 33 248 99s99 148 99 247s-33 181 -99 247s-149 99 -248 99zM219 152v0c-46 47 -69 107 -69 181s23 135 69 182v0c46 47 105 70 176 70s130 -23 176 -70v0
c46 -47 69 -108 69 -182s-23 -134 -69 -181v0c-46 -47 -105 -71 -176 -71s-130 24 -176 71z" />
    <glyph glyph-name="uni041F" unicode="&#x41f;" horiz-adv-x="650" 
d="M80 667v-667h102v571h286v-571h102v667h-490z" />
    <glyph glyph-name="uni0420" unicode="&#x420;" horiz-adv-x="480" 
d="M80 667v-667h102v271h46c68 0 122 17 163 52v0c43 37 65 86 65 146v0c0 33 -7 63 -21 92v0c-15 29 -36 53 -62 70v0c-36 24 -85 36 -146 36v0h-147zM182 573h45c28 0 51 -3 69 -10v0c17 -7 31 -16 41 -28v0c9 -13 14 -24 17 -33v0c3 -9 4 -19 4 -32v0
c0 -32 -11 -57 -33 -76v0c-23 -19 -55 -29 -97 -29v0h-46v208z" />
    <glyph glyph-name="uni0421" unicode="&#x421;" horiz-adv-x="620" 
d="M574 511v120c-50 32 -109 48 -178 48v0c-99 0 -180 -29 -241 -87v0c-71 -67 -107 -154 -107 -261v0c0 -101 36 -185 107 -252v0c65 -61 144 -92 236 -92v0c65 0 126 17 183 50v0v121c-55 -51 -115 -77 -180 -77v0c-71 0 -129 24 -175 72v0c-46 47 -69 107 -69 178v0
c0 73 23 134 68 183v0c45 47 104 71 175 71v0c65 0 126 -25 181 -74v0z" />
    <glyph glyph-name="uni0422" unicode="&#x422;" horiz-adv-x="428" 
d="M418 571v96h-408v-96h153v-571h102v571h153z" />
    <glyph glyph-name="uni0423" unicode="&#x423;" horiz-adv-x="570" 
d="M6 667l241 -468l-90 -199h106l301 667h-106l-153 -346l-175 346h-124z" />
    <glyph glyph-name="uni0424" unicode="&#x424;" horiz-adv-x="826" 
d="M362 0h102v94h18c99 0 173 24 222 73v0c49 48 74 110 74 187v0c0 76 -25 139 -74 188v0c-49 48 -123 72 -222 72v0h-18v80h-102v-80h-18c-99 0 -173 -24 -222 -72v0c-49 -49 -74 -112 -74 -188v0c0 -77 25 -139 74 -187v0c49 -49 123 -73 222 -73v0h18v-94zM362 188h-20
c-65 0 -113 15 -144 46v0c-32 30 -48 70 -48 120v0c0 49 16 90 48 121v0c32 30 80 45 144 45v0h20v-332zM464 520h20c64 0 112 -15 144 -45v0c32 -31 48 -72 48 -121v0c0 -50 -16 -90 -48 -120v0c-31 -31 -79 -46 -144 -46v0h-20v332z" />
    <glyph glyph-name="uni0425" unicode="&#x425;" horiz-adv-x="546" 
d="M10 0h114l152 255l146 -255h114l-201 348l192 319h-114l-133 -226l-130 226h-114l184 -319z" />
    <glyph glyph-name="uni0426" unicode="&#x426;" horiz-adv-x="660" 
d="M80 0h470v-150h96v246h-86v571h-102v-571h-276v571h-102v-667z" />
    <glyph glyph-name="uni0427" unicode="&#x427;" horiz-adv-x="606" 
d="M424 0h102v667h-102v-299c-39 -5 -79 -7 -120 -7v0c-53 0 -88 7 -106 21v0c-24 19 -36 53 -36 103v0v182h-102v-197c0 -74 22 -128 65 -162v0c35 -27 90 -41 163 -41v0c34 0 79 2 136 7v0v-274z" />
    <glyph glyph-name="uni0428" unicode="&#x428;" horiz-adv-x="938" 
d="M80 0h778v667h-102v-571h-236v571h-102v-571h-236v571h-102v-667z" />
    <glyph glyph-name="uni0429" unicode="&#x429;" horiz-adv-x="958" 
d="M80 0h768v-150h96v246h-86v571h-102v-571h-236v571h-102v-571h-236v571h-102v-667z" />
    <glyph glyph-name="uni042A" unicode="&#x42a;" horiz-adv-x="592" 
d="M160 0h179c61 0 110 12 146 36v0c26 17 47 41 62 71v0c14 29 21 59 21 91v0c0 61 -21 110 -63 147v0c-41 35 -96 53 -167 53v0h-76v269h-252v-96h150v-571zM262 302h74c49 0 83 -10 103 -30v0c19 -21 29 -46 29 -75v0c0 -67 -45 -101 -134 -101v0h-72v206z" />
    <glyph glyph-name="uni042B" unicode="&#x42b;" horiz-adv-x="740" 
d="M80 0h179c61 0 110 12 146 36v0c26 17 47 41 62 71v0c14 29 21 59 21 91v0c0 61 -21 110 -63 147v0c-41 35 -96 53 -167 53v0h-76v269h-102v-667zM182 302h74c49 0 83 -10 103 -30v0c19 -21 29 -46 29 -75v0c0 -67 -45 -101 -134 -101v0h-72v206zM558 667v-667h102v667
h-102z" />
    <glyph glyph-name="uni042C" unicode="&#x42c;" horiz-adv-x="512" 
d="M80 0h179c61 0 110 12 146 36v0c26 17 47 41 62 71v0c14 29 21 59 21 91v0c0 61 -21 110 -63 147v0c-41 35 -96 53 -167 53v0h-76v269h-102v-667zM182 302h74c49 0 83 -10 103 -30v0c19 -21 29 -46 29 -75v0c0 -67 -45 -101 -134 -101v0h-72v206z" />
    <glyph glyph-name="uni042D" unicode="&#x42d;" horiz-adv-x="622" 
d="M48 631v-120c57 49 120 74 189 74v0c71 0 127 -21 168 -64v0c33 -35 54 -78 61 -131v0h-328v-96h331c-3 -56 -22 -103 -58 -142v0c-44 -47 -104 -71 -180 -71v0c-67 0 -128 26 -183 77v0v-121c57 -33 121 -50 190 -50v0c95 0 174 31 237 92v0c66 65 99 149 99 252v0
c0 111 -33 198 -99 261v0c-59 58 -138 87 -237 87v0c-75 0 -139 -16 -190 -48v0z" />
    <glyph glyph-name="uni042E" unicode="&#x42e;" horiz-adv-x="1000" 
d="M182 402v265h-102v-667h102v306h100c2 -78 26 -145 72 -202v0c63 -78 150 -117 261 -117v0c97 0 177 33 241 99s96 148 96 247v0c0 98 -32 180 -95 247v0c-64 66 -145 99 -242 99v0c-98 0 -179 -33 -244 -99v0c-48 -49 -78 -109 -89 -178v0h-100zM615 81
c-69 0 -125 24 -169 71s-66 108 -66 181v0c0 74 22 134 66 181v0c44 47 100 71 169 71s125 -24 169 -71v0c44 -47 66 -107 66 -181s-22 -134 -66 -181v0c-44 -47 -100 -71 -169 -71z" />
    <glyph glyph-name="uni042F" unicode="&#x42f;" horiz-adv-x="534" 
d="M20 0h126l182 267h24v-267h102v667h-164c-18 0 -37 -1 -57 -2v0c-14 -1 -34 -6 -60 -17v0c-24 -9 -45 -24 -64 -44v0c-34 -37 -51 -84 -51 -139v0c0 -62 19 -109 57 -142v0c29 -25 63 -40 103 -45v0zM352 573v-212h-56c-44 0 -78 8 -102 24v0c-25 17 -38 44 -38 80v0
c0 31 11 57 32 77v0c21 21 59 31 114 31v0h50z" />
    <glyph glyph-name="uni0430" unicode="&#x430;" horiz-adv-x="530" 
d="M370 421v-49c-31 40 -72 60 -125 60v0c-58 0 -106 -20 -145 -60v0c-40 -41 -60 -95 -60 -161v0c0 -61 19 -113 56 -158v0c37 -44 87 -66 148 -66v0c51 0 93 19 126 57v0v-44h98v421h-98zM257 344v0c33 0 62 -12 85 -35v0c23 -23 34 -57 34 -101v0c0 -43 -11 -75 -34 -98
v0c-23 -23 -52 -35 -85 -35v0c-35 0 -63 13 -84 39v0c-22 26 -33 58 -33 95v0c0 38 11 70 33 96v0c21 26 49 39 84 39z" />
    <glyph glyph-name="uni0431" unicode="&#x431;" horiz-adv-x="530" 
d="M480 710h-100c-7 -25 -34 -44 -80 -55v0l-70 -17c-52 -13 -94 -43 -126 -90v0c-43 -61 -64 -158 -64 -289v0c0 -27 1 -50 3 -69v0c1 -18 7 -42 19 -73v0c11 -29 27 -53 49 -74v0c39 -37 91 -56 154 -56v0c65 0 118 21 161 64v0c43 42 64 96 64 161s-20 119 -61 160v0
c-39 40 -88 60 -147 60v0c-66 0 -114 -20 -143 -59v0h-1c1 47 12 85 35 114v0c9 13 20 24 35 33v0c13 9 24 15 34 18v0c4 1 17 5 40 12v0l66 18c33 9 62 26 86 52s39 56 46 90v0zM174 112v0c-23 23 -34 56 -34 97v0c0 45 12 78 37 101v0c23 23 53 34 88 34v0
c35 0 64 -11 89 -34v0c24 -23 36 -56 36 -101v0c0 -41 -11 -74 -34 -97v0c-23 -25 -53 -37 -91 -37s-68 12 -91 37z" />
    <glyph glyph-name="uni0432" unicode="&#x432;" horiz-adv-x="442" 
d="M62 421v-421h197c40 0 72 9 97 28v0c31 23 46 55 46 96v0c0 34 -11 61 -33 81v0c-17 15 -36 24 -57 28v0c33 17 50 45 50 82v0c0 33 -13 60 -39 81v0c-21 17 -53 25 -96 25v0h-165zM160 257v84h48c20 0 34 -3 43 -8v0c11 -8 17 -19 17 -33v0c0 -15 -6 -26 -19 -34v0
c-9 -6 -22 -9 -39 -9v0h-50zM160 80v97h76c21 0 38 -4 49 -11v0c13 -7 19 -19 19 -37v0c0 -15 -7 -28 -20 -37v0c-12 -8 -29 -12 -51 -12v0h-73z" />
    <glyph glyph-name="uni0433" unicode="&#x433;" horiz-adv-x="328" 
d="M62 0h98v331h160v90h-258v-421z" />
    <glyph glyph-name="uni0434" unicode="&#x434;" horiz-adv-x="486" 
d="M98 421v-165c0 -48 -6 -85 -17 -111v0c-17 -35 -42 -53 -77 -55v0v-210h90v120h294v-120h90v210h-64v331h-316zM316 90h-173c33 25 49 68 49 129v0v112h124v-241z" />
    <glyph glyph-name="uni0435" unicode="&#x435;" horiz-adv-x="486" 
d="M446 110l-82 46c-10 -25 -24 -44 -43 -58v0c-19 -15 -42 -23 -67 -23v0c-28 0 -54 10 -77 29v0c-24 19 -36 47 -37 83v0h302v15c0 65 -13 116 -39 153v0c-36 51 -89 77 -158 77v0c-62 0 -112 -21 -149 -62s-56 -95 -56 -162v0c0 -71 21 -126 62 -164s91 -57 148 -57v0
c55 0 102 17 141 51v0c22 20 40 44 55 72v0zM342 267h-195c7 23 19 42 36 56s37 21 62 21v0c24 0 45 -7 63 -21v0c18 -15 29 -33 34 -56v0z" />
    <glyph glyph-name="uni0436" unicode="&#x436;" horiz-adv-x="624" 
d="M263 421v-156l-127 156h-118l163 -192l-179 -229h122l127 169l12 -14v-155h98v155l12 14l127 -169h122l-179 229l163 192h-118l-127 -156v156h-98z" />
    <glyph glyph-name="uni0437" unicode="&#x437;" horiz-adv-x="440" 
d="M64 367l63 -55c9 12 19 21 32 27v0c15 9 33 13 54 13v0c19 0 34 -4 45 -11v0c12 -9 18 -21 18 -36v0c0 -15 -6 -26 -17 -34v0c-9 -7 -23 -10 -42 -10v0h-44v-80h51c26 0 45 -4 56 -11v0c13 -9 20 -23 20 -41v0c0 -21 -8 -37 -25 -48v0c-15 -9 -36 -14 -63 -14v0
c-24 0 -44 6 -61 18v0c-15 11 -26 25 -33 42v0l-78 -40c15 -28 34 -50 56 -65v0c33 -23 74 -35 121 -35v0c50 0 91 11 124 33v0c17 11 32 27 43 48v0c11 19 16 41 16 64v0c0 28 -11 53 -33 74v0c-17 15 -36 24 -55 27v0c39 17 58 46 58 89v0c0 31 -14 58 -43 80v0
c-27 20 -64 30 -109 30v0c-36 0 -69 -8 -100 -23v0c-21 -11 -39 -25 -54 -42v0z" />
    <glyph glyph-name="uni0438" unicode="&#x438;" horiz-adv-x="510" 
d="M62 421v-453l288 277v-245h98v459l-288 -277v239h-98z" />
    <glyph glyph-name="uni0439" unicode="&#x439;" horiz-adv-x="510" 
d="M62 421v-453l288 277v-245h98v459l-288 -277v239h-98zM174 626l-80 -23c11 -39 33 -68 65 -87v0c31 -21 64 -31 97 -31v0c33 0 65 10 98 31v0c31 20 53 49 64 87v0l-80 23c-13 -43 -41 -65 -82 -65s-69 22 -82 65v0z" />
    <glyph glyph-name="uni043A" unicode="&#x43a;" horiz-adv-x="442" 
d="M62 421v-421h98v157l16 16l140 -173h124l-194 237l184 184h-130l-140 -150v150h-98z" />
    <glyph glyph-name="uni043B" unicode="&#x43b;" horiz-adv-x="470" 
d="M408 421h-316v-257c0 -25 -5 -43 -15 -55v0c-17 -19 -40 -26 -69 -19v0v-90c58 -9 104 5 138 43v0c27 29 40 69 40 121v0v167h124v-331h98v421z" />
    <glyph glyph-name="uni043C" unicode="&#x43c;" horiz-adv-x="580" 
d="M14 0h100l42 211l134 -243l134 243l42 -211h100l-102 459l-174 -321l-174 321z" />
    <glyph glyph-name="uni043D" unicode="&#x43d;" horiz-adv-x="494" 
d="M62 0h98v175h174v-175h98v421h-98v-156h-174v156h-98v-421z" />
    <glyph glyph-name="uni043E" unicode="&#x43e;" horiz-adv-x="530" 
d="M105 370v0c-43 -42 -65 -95 -65 -160v0c0 -64 22 -117 65 -159v0c43 -43 96 -64 160 -64v0c65 0 118 21 161 64v0c43 42 64 95 64 159v0c0 65 -21 118 -64 160v0c-43 41 -97 62 -161 62v0c-63 0 -117 -21 -160 -62zM174 112v0c-23 23 -34 56 -34 97v0c0 45 12 78 37 101
v0c23 23 53 34 88 34v0c35 0 64 -11 89 -34v0c24 -23 36 -56 36 -101v0c0 -41 -11 -74 -34 -97v0c-23 -25 -53 -37 -91 -37s-68 12 -91 37z" />
    <glyph glyph-name="uni043F" unicode="&#x43f;" horiz-adv-x="490" 
d="M62 421v-421h98v331h170v-331h98v421h-366z" />
    <glyph glyph-name="uni0440" unicode="&#x440;" horiz-adv-x="530" 
d="M160 -229v278c34 -41 76 -62 126 -62v0c53 0 101 21 142 63v0c41 41 62 96 62 163v0c0 65 -20 118 -59 159v0c-40 40 -89 60 -146 60v0c-51 0 -93 -19 -125 -57v0v46h-98v-650h98zM273 344v0c35 0 63 -13 85 -39v0c21 -27 32 -59 32 -96v0c0 -37 -11 -68 -32 -95v0
c-22 -26 -50 -39 -85 -39v0c-33 0 -61 12 -84 35s-35 56 -35 98v0c0 43 12 76 35 101v0c23 23 51 35 84 35z" />
    <glyph glyph-name="uni0441" unicode="&#x441;" horiz-adv-x="420" 
d="M388 273v129c-33 20 -73 30 -119 30v0c-67 0 -121 -19 -161 -57v0c-45 -43 -68 -99 -68 -166v0c0 -65 20 -117 60 -158v0c42 -43 99 -64 172 -64v0c42 0 81 10 116 31v0v129c-12 -22 -30 -40 -53 -53v0c-21 -13 -45 -19 -70 -19v0c-37 0 -67 13 -90 39v0
c-23 27 -35 59 -35 96v0c0 41 13 74 38 98s55 36 88 36v0c54 0 95 -24 122 -71v0z" />
    <glyph glyph-name="uni0442" unicode="&#x442;" horiz-adv-x="360" 
d="M352 331v90h-344v-90h123v-331h98v331h123z" />
    <glyph glyph-name="uni0443" unicode="&#x443;" horiz-adv-x="482" 
d="M31 -229h110l335 650h-110l-118 -237l-124 237h-118l187 -343z" />
    <glyph glyph-name="uni0444" unicode="&#x444;" horiz-adv-x="670" 
d="M286 -229h98v222c71 -1 129 18 173 55v0c47 40 71 94 71 163v0c0 68 -23 122 -70 162v0c-43 37 -101 55 -174 55v0v239h-98v-239c-73 0 -131 -18 -174 -55v0c-47 -40 -70 -94 -70 -162v0c0 -69 24 -123 71 -163v0c44 -37 102 -56 173 -55v0v-222zM286 340v-259
c-39 -1 -70 7 -95 25v0c-33 23 -49 58 -49 105v0c0 51 17 86 52 107v0c23 15 53 22 92 22v0zM384 81v259c39 0 69 -7 92 -22v0c35 -21 52 -56 52 -107v0c0 -47 -16 -82 -49 -105v0c-25 -18 -56 -26 -95 -25v0z" />
    <glyph glyph-name="uni0445" unicode="&#x445;" horiz-adv-x="496" 
d="M6 0h120l125 157l121 -157h118l-180 228l155 193h-120l-94 -123l-93 123h-116l150 -193z" />
    <glyph glyph-name="uni0446" unicode="&#x446;" horiz-adv-x="502" 
d="M62 0h342v-120h90v210h-70v331h-98v-331h-166v331h-98v-421z" />
    <glyph glyph-name="uni0447" unicode="&#x447;" horiz-adv-x="450" 
d="M290 0h98v421h-98v-172c-21 -7 -43 -11 -66 -11v0c-22 0 -38 3 -49 10v0c-17 10 -25 29 -25 58v0v115h-98v-135c0 -45 14 -79 41 -101v0c25 -21 62 -31 111 -31v0c27 0 56 3 86 9v0v-163z" />
    <glyph glyph-name="uni0448" unicode="&#x448;" horiz-adv-x="698" 
d="M62 0h574v421h-98v-331h-140v331h-98v-331h-140v331h-98v-421z" />
    <glyph glyph-name="uni0449" unicode="&#x449;" horiz-adv-x="714" 
d="M62 0h554v-120h90v210h-70v331h-98v-331h-140v331h-98v-331h-140v331h-98v-421z" />
    <glyph glyph-name="uni044A" unicode="&#x44a;" horiz-adv-x="436" 
d="M98 0h153c22 0 37 0 44 1v0c11 1 24 5 39 10v0c15 5 28 13 40 25v0c25 25 38 59 38 101v0c0 37 -11 67 -33 92v0c-12 13 -26 23 -42 30v0c-16 7 -30 11 -41 12v0c-7 1 -22 1 -44 1v0h-56v149h-188v-90h90v-331zM196 84v104h46c23 0 40 -3 51 -10v0c14 -9 21 -23 21 -42v0
c0 -18 -7 -32 -22 -43v0c-10 -6 -27 -9 -51 -9v0h-45z" />
    <glyph glyph-name="uni044B" unicode="&#x44b;" horiz-adv-x="580" 
d="M62 0h153c22 0 37 0 44 1v0c11 1 24 5 39 10v0c15 5 28 13 40 25v0c25 25 38 59 38 101v0c0 37 -11 67 -33 92v0c-12 13 -26 23 -42 30v0c-16 7 -30 11 -41 12v0c-7 1 -22 1 -44 1v0h-56v149h-98v-421zM160 84v104h46c23 0 40 -3 51 -10v0c14 -9 21 -23 21 -42v0
c0 -18 -7 -32 -22 -43v0c-10 -6 -27 -9 -51 -9v0h-45zM420 0h98v421h-98v-421z" />
    <glyph glyph-name="uni044C" unicode="&#x44c;" horiz-adv-x="400" 
d="M62 0h153c22 0 37 0 44 1v0c11 1 24 5 39 10v0c15 5 28 13 40 25v0c25 25 38 59 38 101v0c0 37 -11 67 -33 92v0c-12 13 -26 23 -42 30v0c-16 7 -30 11 -41 12v0c-7 1 -22 1 -44 1v0h-56v149h-98v-421zM160 84v104h46c23 0 40 -3 51 -10v0c14 -9 21 -23 21 -42v0
c0 -18 -7 -32 -22 -43v0c-10 -6 -27 -9 -51 -9v0h-45z" />
    <glyph glyph-name="uni044D" unicode="&#x44d;" horiz-adv-x="428" 
d="M40 410v-93c38 18 77 27 117 27v0c29 0 54 -7 77 -21v0c22 -15 37 -35 44 -61v0h-192v-90h195c-4 -30 -18 -54 -41 -71v0c-25 -17 -52 -26 -82 -26v0c-41 0 -81 10 -118 29v0v-93c34 -16 76 -24 125 -24v0c65 0 118 21 161 62v0c41 41 62 94 62 159v0
c0 65 -21 119 -62 162v0c-43 41 -100 62 -172 62v0c-42 0 -80 -7 -114 -22v0z" />
    <glyph glyph-name="uni044E" unicode="&#x44e;" horiz-adv-x="700" 
d="M160 265v156h-98v-421h98v175h65c4 -48 21 -88 52 -121v0c41 -45 95 -67 162 -67v0c63 0 115 21 158 64v0c42 42 63 95 63 159v0c0 65 -21 118 -63 160v0c-43 41 -96 62 -158 62v0c-63 0 -116 -21 -157 -62v0c-29 -31 -48 -66 -55 -105v0h-67zM525 310v0
c23 -23 35 -57 35 -101v0c0 -45 -12 -78 -35 -100v0c-23 -23 -51 -34 -86 -34s-63 11 -86 34v0c-23 22 -35 55 -35 100v0c0 44 12 78 35 101v0c23 23 51 34 86 34s63 -11 86 -34z" />
    <glyph glyph-name="uni044F" unicode="&#x44f;" horiz-adv-x="418" 
d="M8 0h115l115 155h20v-155h98v421h-157c-54 0 -95 -13 -122 -38v0c-26 -25 -39 -57 -39 -97v0c0 -35 12 -64 35 -87v0c19 -17 42 -28 67 -32v0zM258 235h-58c-27 0 -45 3 -54 10v0c-13 9 -20 23 -20 41s8 32 24 42v0c11 6 28 9 51 9v0h57v-102z" />
    <glyph glyph-name="uni0451" unicode="&#x451;" horiz-adv-x="488" 
d="M448 110l-82 46c-9 -21 -23 -41 -43 -58v0c-19 -15 -42 -23 -67 -23v0c-33 0 -60 10 -81 31v0c-21 20 -32 47 -33 81v0h302v15c0 65 -13 116 -39 153v0c-36 51 -89 77 -160 77v0c-62 0 -112 -21 -149 -62s-56 -95 -56 -162v0c0 -65 19 -119 57 -160v0
c38 -41 89 -61 154 -61v0c55 0 103 17 142 51v0c24 22 42 46 55 72v0zM344 267h-195c7 23 19 42 36 56s37 21 62 21v0c24 0 45 -7 63 -21v0c18 -15 29 -33 34 -56v0zM102 547c0 -17 6 -32 18 -44s27 -18 44 -18s32 6 44 18s18 27 18 44s-6 32 -18 44s-27 18 -44 18
s-32 -6 -44 -18s-18 -27 -18 -44zM282 547c0 -17 6 -32 18 -44s27 -18 44 -18s32 6 44 18s18 27 18 44s-6 32 -18 44s-27 18 -44 18s-32 -6 -44 -18s-18 -27 -18 -44z" />
    <glyph glyph-name="uni0452" unicode="&#x452;" horiz-adv-x="486" 
d="M62 0h98v203c0 51 7 87 20 106v0c16 23 40 35 72 35v0c24 0 42 -7 55 -22v0c13 -13 19 -38 19 -73v0v-313c0 -30 -3 -50 -9 -60v0c-9 -15 -24 -22 -46 -22v0c-17 0 -32 3 -47 9v0v-88c16 -6 38 -9 66 -9v0c37 0 67 9 90 27v0c29 23 44 62 44 117v0v348
c0 52 -9 91 -27 117v0c-27 38 -69 57 -124 57v0c-44 0 -82 -16 -113 -47v0v167h200v76h-200v101h-98v-101h-72v-76h72v-552z" />
    <glyph glyph-name="uni0453" unicode="&#x453;" horiz-adv-x="328" 
d="M62 0h98v331h160v90h-258v-421zM265 675l-120 -156l54 -34l156 144z" />
    <glyph glyph-name="uni0454" unicode="&#x454;" horiz-adv-x="428" 
d="M388 300v104c-35 19 -74 28 -119 28v0c-67 0 -121 -19 -161 -57v0c-45 -41 -68 -97 -68 -166v0c0 -65 20 -118 60 -158v0c41 -43 97 -64 168 -64v0c49 0 89 10 120 30v0v104c-31 -31 -69 -46 -115 -46v0c-31 0 -59 9 -84 26v0c-24 17 -38 40 -42 71v0h195v90h-192
c7 25 22 46 45 61v0c23 14 49 21 78 21v0c44 0 82 -15 115 -44v0z" />
    <glyph glyph-name="uni0455" unicode="&#x455;" horiz-adv-x="360" 
d="M226 306l81 43c-24 55 -64 83 -120 83v0c-38 0 -69 -11 -94 -34v0c-25 -23 -38 -54 -38 -92v0c0 -39 17 -70 50 -92v0c1 -1 29 -15 84 -41v0c3 -2 8 -4 13 -6c5 -3 8 -4 9 -5v0c4 -3 9 -8 15 -16v0c5 -9 8 -17 8 -26v0c0 -13 -4 -24 -13 -32v0c-9 -9 -21 -13 -36 -13v0
c-18 0 -32 5 -43 16v0c-12 10 -21 23 -26 38v0l-82 -38c9 -24 21 -43 36 -58v0c16 -17 32 -27 47 -32v0c19 -7 32 -10 39 -11v0c9 -2 17 -3 24 -3v0c43 0 80 14 110 42v0c29 27 44 61 44 101v0c0 38 -17 69 -51 94v0c-22 15 -49 29 -80 43v0c-5 2 -8 4 -9 5v0
c-7 3 -10 4 -10 4v0c-1 0 -1 0 -2 1v0c-3 1 -5 2 -6 3v0c-4 2 -7 4 -8 5v0l-3 3c-2 1 -3 1 -4 2v0c-3 2 -5 4 -6 6v0c-2 2 -3 4 -4 6v0c-1 3 -2 5 -3 7s-1 5 -1 8v0c0 9 3 16 10 21v0c7 4 15 6 22 6v0c22 0 38 -13 47 -38v0z" />
    <glyph glyph-name="uni0456" unicode="&#x456;" horiz-adv-x="222" 
d="M62 421v-421h98v421h-98zM48 595c0 -18 6 -33 18 -45s27 -18 45 -18s33 6 45 18s18 27 18 45s-6 33 -18 45s-27 18 -45 18s-33 -6 -45 -18s-18 -27 -18 -45z" />
    <glyph glyph-name="uni0457" unicode="&#x457;" horiz-adv-x="222" 
d="M62 421v-421h98v421h-98zM0 547c0 -13 5 -25 14 -34s21 -14 34 -14s25 5 34 14s14 21 14 34s-5 25 -14 34s-21 14 -34 14s-25 -5 -34 -14s-14 -21 -14 -34zM126 547c0 -13 5 -25 14 -34s21 -14 34 -14s25 5 34 14s14 21 14 34s-5 25 -14 34s-21 14 -34 14s-25 -5 -34 -14
s-14 -21 -14 -34z" />
    <glyph glyph-name="uni0458" unicode="&#x458;" horiz-adv-x="222" 
d="M62 421v-650h98v650h-98zM48 595c0 -18 6 -33 18 -45s27 -18 45 -18s33 6 45 18s18 27 18 45s-6 33 -18 45s-27 18 -45 18s-33 -6 -45 -18s-18 -27 -18 -45z" />
    <glyph glyph-name="uni0459" unicode="&#x459;" horiz-adv-x="648" 
d="M408 421h-316v-257c0 -25 -5 -43 -15 -55v0c-12 -14 -29 -21 -50 -21v0c-2 0 -8 1 -19 2v0v-90c15 -1 23 -2 25 -2v0c47 0 85 15 113 45v0c27 29 40 69 40 121v0v167h124v-331h153c22 0 37 0 44 1v0c11 1 24 5 39 10v0c15 5 28 13 40 25v0c25 25 38 59 38 101v0
c0 37 -11 67 -33 92v0c-12 13 -26 23 -42 30v0c-16 7 -30 11 -41 12v0c-7 1 -22 1 -44 1v0h-56v149zM408 84v104h46c23 0 40 -3 51 -10v0c14 -9 21 -23 21 -42v0c0 -18 -7 -32 -22 -43v0c-10 -6 -27 -9 -51 -9v0h-45z" />
    <glyph glyph-name="uni045A" unicode="&#x45a;" horiz-adv-x="672" 
d="M62 0h98v188h174v-188h153c22 0 37 0 44 1v0c11 1 24 5 39 10v0c15 5 28 13 40 25v0c25 25 38 59 38 101v0c0 37 -11 67 -33 92v0c-12 13 -26 23 -42 30v0c-16 7 -30 11 -41 12v0c-7 1 -22 1 -44 1v0h-56v149h-98v-149h-174v149h-98v-421zM432 84v104h46
c23 0 40 -3 51 -10v0c14 -9 21 -23 21 -42v0c0 -18 -7 -32 -22 -43v0c-10 -6 -27 -9 -51 -9v0h-45z" />
    <glyph glyph-name="uni045B" unicode="&#x45b;" horiz-adv-x="486" 
d="M62 0h98v203c0 51 7 87 20 106v0c16 23 40 35 72 35v0c24 0 42 -7 55 -22v0c13 -13 19 -38 19 -73v0v-249h98v258c0 52 -9 91 -27 117v0c-27 38 -69 57 -124 57v0c-44 0 -82 -16 -113 -47v0v167h200v76h-200v101h-98v-101h-72v-76h72v-552z" />
    <glyph glyph-name="uni045C" unicode="&#x45c;" horiz-adv-x="442" 
d="M62 421v-421h98v157l16 16l140 -173h124l-194 237l184 184h-130l-140 -150v150h-98zM296 675l-120 -156l54 -34l156 144z" />
    <glyph glyph-name="uni045E" unicode="&#x45e;" horiz-adv-x="482" 
d="M31 -229h110l335 650h-110l-118 -237l-124 237h-118l187 -343zM159 626l-80 -23c11 -39 33 -68 65 -87v0c31 -21 64 -31 97 -31v0c33 0 65 10 98 31v0c31 20 53 49 64 87v0l-80 23c-13 -43 -41 -65 -82 -65s-69 22 -82 65v0z" />
    <glyph glyph-name="uni045F" unicode="&#x45f;" horiz-adv-x="486" 
d="M62 0h136v-140h90v140h136v421h-98v-331h-166v331h-98v-421z" />
    <glyph glyph-name="uni0490" unicode="&#x490;" horiz-adv-x="428" 
d="M80 0h102v571h232v246h-96v-150h-238v-667z" />
    <glyph glyph-name="uni0491" unicode="&#x491;" horiz-adv-x="328" 
d="M62 0h98v331h160v210h-90v-120h-168v-421z" />
    <glyph glyph-name="endash" unicode="&#x2013;" horiz-adv-x="580" 
d="M50 168h480v90h-480v-90z" />
    <glyph glyph-name="emdash" unicode="&#x2014;" horiz-adv-x="800" 
d="M50 168h700v90h-700v-90z" />
    <glyph glyph-name="quoteleft" unicode="&#x2018;" horiz-adv-x="290" 
d="M240 669l-66 27l-124 -247l88 -34z" />
    <glyph glyph-name="quoteright" unicode="&#x2019;" horiz-adv-x="340" 
d="M50 442l66 -27l124 247l-88 34z" />
    <glyph glyph-name="quotesinglbase" unicode="&#x201a;" horiz-adv-x="340" 
d="M50 -129l66 -27l124 247l-88 34z" />
    <glyph glyph-name="quotedblleft" unicode="&#x201c;" horiz-adv-x="462" 
d="M412 669l-65 27l-123 -247l86 -34zM238 669l-65 27l-123 -247l86 -34z" />
    <glyph glyph-name="quotedblright" unicode="&#x201d;" horiz-adv-x="512" 
d="M50 442l65 -27l123 247l-86 34zM224 442l65 -27l123 247l-86 34z" />
    <glyph glyph-name="quotedblbase" unicode="&#x201e;" horiz-adv-x="512" 
d="M50 -129l65 -27l123 247l-86 34zM224 -129l65 -27l123 247l-86 34z" />
    <glyph glyph-name="dagger" unicode="&#x2020;" horiz-adv-x="568" 
d="M235 575h-138v-94h138v-658h98v658h138v94h-138v154h-98v-154z" />
    <glyph glyph-name="daggerdbl" unicode="&#x2021;" horiz-adv-x="568" 
d="M235 575h-138v-94h138v-262h-138v-94h138v-302h98v302h138v94h-138v262h138v94h-138v154h-98v-154z" />
    <glyph glyph-name="bullet" unicode="&#x2022;" horiz-adv-x="668" 
d="M194 340c0 -39 14 -72 41 -99s60 -41 99 -41s72 14 99 41s41 60 41 99s-14 72 -41 99s-60 41 -99 41s-72 -14 -99 -41s-41 -60 -41 -99z" />
    <glyph glyph-name="ellipsis" unicode="&#x2026;" horiz-adv-x="800" 
d="M98 6v0c11 -12 25 -18 42 -18v0c17 0 31 6 43 18v0c11 11 17 25 17 42v0c0 16 -6 30 -17 43v0c-13 11 -27 17 -43 17v0c-17 0 -31 -6 -42 -17v0c-12 -12 -18 -26 -18 -43v0c0 -17 6 -31 18 -42zM358 6v0c11 -12 25 -18 42 -18v0c17 0 31 6 43 18v0c11 11 17 25 17 42v0
c0 16 -6 30 -17 43v0c-13 11 -27 17 -43 17v0c-17 0 -31 -6 -42 -17v0c-12 -12 -18 -26 -18 -43v0c0 -17 6 -31 18 -42zM618 6v0c11 -12 25 -18 42 -18v0c17 0 31 6 43 18v0c11 11 17 25 17 42v0c0 16 -6 30 -17 43v0c-13 11 -27 17 -43 17v0c-17 0 -31 -6 -42 -17v0
c-12 -12 -18 -26 -18 -43v0c0 -17 6 -31 18 -42z" />
    <glyph glyph-name="perthousand" unicode="&#x2030;" horiz-adv-x="1200" 
d="M81 627v0c-32 -31 -48 -68 -48 -111v0c0 -43 16 -79 48 -110v0c31 -31 69 -47 113 -47v0c43 0 81 16 114 47v0c31 31 47 68 47 110v0c0 43 -16 80 -47 111v0c-31 31 -69 46 -114 46s-82 -15 -113 -46zM133 458v0c-15 17 -22 36 -22 58s7 42 22 59v0c15 17 36 26 61 26
s46 -9 61 -26v0c15 -17 22 -37 22 -59s-7 -41 -22 -58v0c-15 -18 -36 -27 -61 -27s-46 9 -61 27zM191 18l47 -29l381 662l-47 27zM503 261v0c-32 -31 -48 -68 -48 -111v0c0 -43 16 -79 48 -110v0c31 -31 69 -47 113 -47v0c43 0 81 16 114 47v0c31 31 47 68 47 110v0
c0 43 -16 80 -47 111v0c-31 31 -69 46 -114 46s-82 -15 -113 -46zM555 92v0c-15 17 -22 36 -22 58s7 42 22 59v0c15 17 36 26 61 26s46 -9 61 -26v0c15 -17 22 -37 22 -59s-7 -41 -22 -58v0c-15 -18 -36 -27 -61 -27s-46 9 -61 27zM893 261v0c-32 -31 -48 -68 -48 -111v0
c0 -43 16 -79 48 -110v0c31 -31 69 -47 113 -47v0c43 0 81 16 114 47v0c31 31 47 68 47 110v0c0 43 -16 80 -47 111v0c-31 31 -69 46 -114 46s-82 -15 -113 -46zM945 92v0c-15 17 -22 36 -22 58s7 42 22 59v0c15 17 36 26 61 26s46 -9 61 -26v0c15 -17 22 -37 22 -59
s-7 -41 -22 -58v0c-15 -18 -36 -27 -61 -27s-46 9 -61 27z" />
    <glyph glyph-name="guilsinglleft" unicode="&#x2039;" horiz-adv-x="324" 
d="M140 217l130 169l-65 47l-165 -216l165 -216l65 47z" />
    <glyph glyph-name="guilsinglright" unicode="&#x203a;" horiz-adv-x="324" 
d="M184 217l-130 -169l65 -47l165 216l-165 216l-65 -47z" />
    <glyph glyph-name="uni20A0" unicode="&#x20a0;" horiz-adv-x="20" 
 />
    <glyph glyph-name="Euro" unicode="&#x20ac;" horiz-adv-x="568" 
d="M524 440v77c-37 22 -92 33 -163 33v0c-76 0 -135 -17 -178 -52v0c-43 -35 -71 -82 -83 -141v0h-50l-27 -59h70c-1 -4 -1 -12 -1 -26v0c0 -15 0 -24 1 -27v0h-43l-27 -60h78c25 -130 111 -195 260 -195v0c75 0 130 11 163 32v0v78c-37 -27 -87 -41 -150 -41v0
c-50 0 -90 11 -119 33v0c-31 22 -49 53 -56 93v0h208l27 60h-246c-1 3 -1 12 -1 27v0c0 15 0 23 1 26v0h270l27 59h-286c7 38 25 68 55 90v0c29 22 68 33 119 33v0c64 0 114 -13 151 -40v0z" />
    <glyph glyph-name="uni20B8" unicode="&#x20b8;" horiz-adv-x="392" 
d="M372 314v85h-344v-85h123v-314h98v314h123zM28 560h344v-85h-344v85z" />
    <glyph glyph-name="uni20BD" unicode="&#x20bd;" horiz-adv-x="496" 
d="M100 560v-560h102v228h46c68 0 122 14 163 43v0c43 32 65 72 65 123v0c0 27 -7 53 -21 77v0c-15 25 -36 44 -62 59v0c-36 20 -85 30 -146 30v0h-147zM202 481h45c28 0 51 -3 69 -8v0c17 -6 31 -14 41 -24v0c9 -10 14 -20 17 -28v0c3 -7 4 -16 4 -26v0
c0 -27 -11 -49 -33 -64v0c-23 -16 -55 -25 -97 -25v0h-46v175zM38 306h62v-79h-62v79zM38 157h62v-79h-62v79zM202 158h180v-79h-180v79z" />
    <glyph glyph-name="uni2116" unicode="&#x2116;" horiz-adv-x="1060" 
d="M182 0v442l444 -483v708h-102v-438l-444 483v-712h102zM744 621v0c-32 -31 -48 -68 -48 -111v0c0 -43 16 -79 48 -110v0c31 -31 69 -47 113 -47v0c43 0 81 16 114 47v0c31 31 47 68 47 110v0c0 43 -16 80 -47 111v0c-31 31 -69 46 -114 46s-82 -15 -113 -46zM796 452v0
c-15 17 -22 36 -22 58s7 42 22 59v0c15 17 36 26 61 26s46 -9 61 -26v0c15 -17 22 -37 22 -59s-7 -41 -22 -58v0c-15 -18 -35 -27 -61 -27s-46 9 -61 27zM716 203h282v80h-282v-80z" />
    <glyph glyph-name="trademark" unicode="&#x2122;" horiz-adv-x="710" 
d="M238 601v66h-238v-66h84v-314h70v314h84zM331 287l35 206l102 -213l102 213l35 -206h71l-81 414l-127 -280l-126 280l-82 -414h71z" />
  </font>
</defs>
</svg>
