<?xml version="1.0" standalone="no"?>
<!DOCTYPE svg PUBLIC "-//W3C//DTD SVG 1.1//EN" "http://www.w3.org/Graphics/SVG/1.1/DTD/svg11.dtd" >
<svg xmlns="http://www.w3.org/2000/svg" xmlns:xlink="http://www.w3.org/1999/xlink" version="1.1">
<metadata>
Created by FontForge 20170812 at Tue Aug 11 14:04:36 2020
 By www-data
Copyright (c) 1990 Neufville SL, Copyright (c) 1990-2000 ParaType, Inc. All Rights Reserved. Futura is a registered trade mark of Neufville SL.
</metadata>
<defs>
<font id="MyFontRegular" horiz-adv-x="500" >
  <font-face 
    font-family="My Font"
    font-weight="500"
    font-stretch="normal"
    units-per-em="1000"
    panose-1="0 0 0 0 0 0 0 0 0 0"
    ascent="800"
    descent="-200"
    x-height="408"
    cap-height="667"
    bbox="-54 -250 970 854"
    underline-thickness="50"
    underline-position="-100"
    unicode-range="U+0020-2122"
  />
<missing-glyph horiz-adv-x="457" 
d="M20 675h417v-675h-417v675zM68 48h320v579h-320v-579z" />
    <glyph glyph-name=".notdef" horiz-adv-x="457" 
d="M20 675h417v-675h-417v675zM68 48h320v579h-320v-579z" />
    <glyph glyph-name=".notdef" horiz-adv-x="457" 
d="M20 675h417v-675h-417v675zM68 48h320v579h-320v-579z" />
    <glyph glyph-name="space" unicode=" " horiz-adv-x="233" 
 />
    <glyph glyph-name="exclam" unicode="!" horiz-adv-x="260" 
d="M152 119v548h-44v-548h44zM93 30c0 -10 4 -19 11 -26s16 -11 26 -11v0c11 0 20 4 27 11v0c7 7 10 15 10 26v0c0 11 -3 20 -10 27s-16 10 -27 10v0c-11 0 -19 -3 -26 -10v0c-7 -7 -11 -16 -11 -27v0z" />
    <glyph glyph-name="quotedbl" unicode="&#x22;" horiz-adv-x="280" 
d="M104 667h-44l7 -269h30zM220 667h-44l7 -269h30z" />
    <glyph glyph-name="numbersign" unicode="#" horiz-adv-x="600" 
d="M375 0l33 221h118l6 38h-118l24 161h118l6 38h-118l32 209h-40l-32 -209h-164l32 209h-40l-32 -209h-118l-6 -38h118l-24 -161h-118l-6 -38h118l-33 -221h40l33 221h164l-33 -221h40zM374 259h-164l24 161h164z" />
    <glyph glyph-name="dollar" unicode="$" horiz-adv-x="512" 
d="M393 554l32 27c-29 57 -75 88 -136 95v0v89h-40v-89c-46 -2 -84 -19 -113 -50v0c-29 -33 -44 -71 -44 -116v0c0 -28 7 -53 21 -76v0c10 -17 23 -31 39 -42v0c17 -13 41 -26 72 -41v0l25 -12v-310c-53 1 -93 20 -122 57v0c-16 19 -28 41 -36 64v0l-38 -18
c8 -24 22 -48 43 -73v0c40 -47 91 -70 153 -70v0v-96h40v99c51 8 92 31 123 68s47 79 47 124v0c0 53 -24 96 -71 129v0c-20 15 -53 32 -99 53v0v270c21 -3 40 -11 57 -24v0c16 -13 27 -24 34 -33v0c7 -13 12 -22 13 -25v0zM289 32v287c13 -6 23 -11 32 -16v0
c6 -3 12 -7 19 -10v0c1 -1 3 -2 5 -3v0l3 -2c43 -27 65 -62 65 -105v0c0 -35 -11 -67 -34 -96s-53 -47 -90 -55v0zM249 636v-250c-37 15 -65 32 -84 53v0c-18 19 -27 43 -27 73v0c0 31 10 59 30 84v0c20 25 47 38 81 40v0z" />
    <glyph glyph-name="percent" unicode="%" horiz-adv-x="608" 
d="M169 673c-41 0 -73 -12 -98 -37s-37 -56 -37 -94s12 -69 37 -94s57 -37 98 -37s73 12 98 37s37 56 37 94s-12 69 -37 94s-57 37 -98 37zM99 476v0c-17 19 -25 41 -25 66s8 47 25 66v0c17 19 41 29 70 29s53 -10 70 -29v0c17 -19 25 -41 25 -66s-8 -47 -25 -66v0
c-17 -19 -41 -29 -70 -29s-53 10 -70 29zM92 1l30 -16l394 681l-30 16zM439 256c-41 0 -73 -12 -98 -37s-37 -56 -37 -94s12 -69 37 -94s57 -37 98 -37s73 12 98 37s37 56 37 94s-12 69 -37 94s-57 37 -98 37zM369 59v0c-17 19 -25 41 -25 66s8 47 25 66v0
c17 19 41 29 70 29s53 -10 70 -29v0c17 -19 25 -41 25 -66s-8 -47 -25 -66v0c-17 -19 -41 -29 -70 -29s-53 10 -70 29z" />
    <glyph glyph-name="ampersand" unicode="&#x26;" horiz-adv-x="628" 
d="M606 241l-39 18c-27 -34 -53 -64 -78 -89v0l-163 220c39 27 68 50 85 69v0c26 30 39 62 39 96v0c0 36 -11 66 -34 89v0c-23 23 -52 35 -87 35v0c-36 0 -67 -13 -92 -38v0c-26 -25 -39 -55 -39 -92v0c0 -29 13 -64 40 -105v0l27 -42l-71 -46c-16 -10 -30 -20 -41 -29v0
c-10 -7 -23 -20 -40 -38v0c-16 -18 -28 -37 -35 -58v0c-8 -22 -12 -46 -12 -72v0c0 -49 16 -90 49 -123s74 -49 125 -49v0c24 0 47 3 69 10v0c23 7 45 17 66 30v0c23 14 39 25 50 33v0c19 15 34 26 44 35v0l12 10l77 -105h56l-100 135c29 28 60 63 92 106v0zM289 368
l167 -228c-28 -28 -62 -54 -101 -77v0c-40 -24 -78 -36 -114 -36v0c-38 0 -69 13 -93 38s-36 58 -36 97v0c0 33 9 62 27 88v0c17 25 46 51 87 77v0zM301 424l-29 46c-20 32 -30 57 -30 76v0c0 26 8 48 25 65v0c16 17 35 26 58 26v0c21 0 40 -7 57 -21v0
c16 -15 24 -35 24 -60v0c0 -24 -6 -44 -19 -61v0c-20 -26 -49 -50 -86 -71v0z" />
    <glyph glyph-name="quotesingle" unicode="'" horiz-adv-x="164" 
d="M104 667h-44l7 -269h30z" />
    <glyph glyph-name="parenleft" unicode="(" horiz-adv-x="278" 
d="M208 720l-38 23c-47 -132 -70 -285 -70 -458v0c0 -176 23 -329 68 -459v0l40 23c-41 141 -62 287 -62 436v0c0 151 21 296 62 435v0z" />
    <glyph glyph-name="parenright" unicode=")" horiz-adv-x="278" 
d="M108 743l-38 -23c41 -139 62 -284 62 -435v0c0 -149 -21 -295 -62 -436v0l40 -23c45 130 68 283 68 459v0c0 173 -23 326 -70 458v0z" />
    <glyph glyph-name="asterisk" unicode="*" horiz-adv-x="548" 
d="M130 640l-14 -41l128 -38l-81 -106l35 -25l76 110l76 -110l35 25l-81 106l128 38l-14 41l-125 -44l3 133h-44l3 -133z" />
    <glyph glyph-name="plus" unicode="+" 
d="M33 310h197v-182h40v182h197v38h-197v182h-40v-182h-197v-38z" />
    <glyph glyph-name="comma" unicode="," horiz-adv-x="228" 
d="M38 -137l26 -10l74 200l-40 12z" />
    <glyph glyph-name="hyphen" unicode="-" horiz-adv-x="280" 
d="M40 184h200v46h-200v-46z" />
    <glyph glyph-name="period" unicode="." horiz-adv-x="202" 
d="M64 30c0 -10 4 -19 11 -26s16 -11 26 -11v0c11 0 20 4 27 11v0c7 7 10 15 10 26v0c0 11 -3 20 -10 27s-16 10 -27 10v0c-11 0 -19 -3 -26 -10v0c-7 -7 -11 -16 -11 -27v0z" />
    <glyph glyph-name="slash" unicode="/" horiz-adv-x="576" 
d="M20 -158l32 -16l504 901l-32 16z" />
    <glyph glyph-name="zero" unicode="0" horiz-adv-x="548" 
d="M117 595v0c-57 -67 -85 -154 -85 -262s28 -195 85 -262v0c46 -55 98 -82 157 -82s111 27 157 82v0c57 67 85 154 85 262s-28 195 -85 262v0c-45 54 -98 81 -157 81v0c-60 0 -112 -27 -157 -81zM150 97v0c-48 59 -72 138 -72 236s24 177 72 236v0c36 45 77 67 124 67
s88 -22 124 -67v0c48 -59 72 -138 72 -236s-24 -177 -72 -236v0c-37 -45 -79 -68 -124 -68s-87 23 -124 68z" />
    <glyph glyph-name="one" unicode="1" horiz-adv-x="548" 
d="M272 0h44v667h-128l-20 -40h104v-627z" />
    <glyph glyph-name="two" unicode="2" horiz-adv-x="548" 
d="M471 0v40h-318l214 237c26 29 46 53 59 72v0c32 44 48 90 48 137v0c0 53 -19 99 -56 136v0c-37 36 -85 54 -142 54v0c-62 0 -111 -19 -148 -58v0c-36 -37 -54 -84 -53 -140v0h44c-1 43 12 80 39 109v0c29 33 67 49 115 49v0c46 0 83 -14 112 -43s43 -64 43 -107v0
c0 -36 -13 -74 -39 -114v0c-11 -17 -36 -47 -73 -90v0l-256 -282h411z" />
    <glyph glyph-name="three" unicode="3" horiz-adv-x="548" 
d="M120 162h-44c0 -31 8 -60 24 -86v0c17 -28 40 -49 69 -64v0c29 -15 60 -23 91 -23v0c55 0 101 19 139 57v0c38 37 57 83 57 139v0c0 39 -10 73 -30 102v0c-21 30 -49 50 -84 61v0c37 15 63 37 80 67v0c17 29 25 60 25 94v0c0 47 -16 86 -47 119v0c-31 32 -73 48 -127 48
v0c-51 0 -92 -16 -123 -48v0c-31 -33 -48 -73 -49 -120v0h42c1 35 12 65 34 89v0c23 26 55 39 96 39v0c40 0 71 -12 94 -37s34 -56 34 -93v0c0 -46 -16 -82 -49 -109v0c-23 -21 -53 -31 -90 -31v0v-40c32 2 60 -5 85 -20v0c42 -27 63 -67 63 -122v0c0 -41 -15 -78 -44 -109
v0c-30 -31 -65 -46 -106 -46v0c-22 0 -44 6 -66 18v0c-21 11 -39 25 -52 44v0c-14 22 -21 46 -22 71v0z" />
    <glyph glyph-name="four" unicode="4" horiz-adv-x="548" 
d="M415 689l-403 -562h359v-127h44v127h93v40h-93v522zM90 167l281 392v-392h-281z" />
    <glyph glyph-name="five" unicode="5" horiz-adv-x="548" 
d="M470 667h-255l-86 -283c31 19 66 29 104 29v0c55 0 101 -18 136 -53v0c35 -35 52 -82 52 -139v0c0 -55 -18 -101 -53 -138v0c-36 -36 -82 -54 -137 -54v0c-69 0 -123 29 -162 86v0l-39 -16c43 -73 110 -110 200 -110v0c67 0 124 21 169 64v0c45 43 68 100 68 169v0
c0 68 -21 123 -63 166v0c-43 43 -100 65 -169 65v0c-14 0 -29 -2 -45 -6v0l56 180h224v40z" />
    <glyph glyph-name="six" unicode="6" horiz-adv-x="548" 
d="M301 676l-222 -314c-29 -41 -43 -87 -43 -136v0c0 -69 22 -126 67 -170v0c45 -45 101 -67 169 -67v0c69 0 126 23 171 68v0c45 45 67 101 67 168s-22 123 -66 167s-99 66 -166 66v0c-32 0 -62 -6 -91 -18v0l148 210zM137 85v0c-37 37 -55 83 -55 139s18 102 54 139
s82 55 137 55s101 -18 137 -54v0c36 -37 54 -84 54 -140s-18 -102 -54 -139v0c-37 -37 -83 -56 -137 -56v0c-55 0 -100 19 -136 56z" />
    <glyph glyph-name="seven" unicode="7" horiz-adv-x="548" 
d="M22 14l33 -25l477 678h-483v-40h405z" />
    <glyph glyph-name="eight" unicode="8" horiz-adv-x="548" 
d="M358 346v0c62 33 93 85 93 154v0c0 50 -17 92 -51 126v0c-35 33 -77 50 -126 50s-91 -17 -126 -50v0c-34 -34 -51 -76 -51 -126v0c0 -69 31 -121 93 -154v0c-34 -13 -61 -35 -80 -66s-29 -66 -29 -103v0c0 -57 19 -102 56 -136v0c37 -35 82 -52 137 -52s100 17 137 52v0
c37 34 56 79 56 136v0c0 38 -9 72 -28 103v0c-19 31 -46 53 -81 66zM182 404v0c-26 25 -39 57 -39 96v0c0 39 13 71 38 98v0c25 25 56 38 93 38s68 -13 93 -38v0c25 -27 38 -59 38 -98s-13 -71 -38 -96v0c-26 -26 -57 -39 -93 -39s-67 13 -92 39zM168 72v0
c-27 29 -41 64 -41 105v0c0 43 14 79 41 108v0c27 28 62 42 106 42s79 -14 106 -42v0c27 -29 41 -65 41 -108v0c0 -43 -13 -78 -40 -105v0c-27 -29 -62 -43 -107 -43v0c-44 0 -79 14 -106 43z" />
    <glyph glyph-name="nine" unicode="9" horiz-adv-x="548" 
d="M247 -11l222 315c29 41 43 87 43 136v0c0 68 -22 124 -67 169s-101 67 -169 67v0c-69 0 -126 -22 -171 -67s-67 -101 -67 -168s22 -123 66 -167s99 -66 166 -66v0c32 0 62 6 91 18v0l-148 -211zM412 581v0c36 -37 54 -83 54 -139s-18 -102 -54 -139s-82 -55 -137 -55v0
c-55 0 -100 18 -136 55v0c-37 36 -55 82 -55 139v0c0 55 18 101 55 138v0c36 37 81 56 136 56s100 -18 137 -55z" />
    <glyph glyph-name="colon" unicode=":" horiz-adv-x="202" 
d="M64 380c0 -10 4 -19 11 -26s16 -11 26 -11v0c11 0 20 4 27 11v0c7 7 10 15 10 26v0c0 11 -3 20 -10 27s-16 10 -27 10v0c-11 0 -19 -3 -26 -10v0c-7 -7 -11 -16 -11 -27v0zM64 30c0 -10 4 -19 11 -26s16 -11 26 -11v0c11 0 20 4 27 11v0c7 7 10 15 10 26v0
c0 11 -3 20 -10 27s-16 10 -27 10v0c-11 0 -19 -3 -26 -10v0c-7 -7 -11 -16 -11 -27v0z" />
    <glyph glyph-name="semicolon" unicode=";" horiz-adv-x="228" 
d="M66 380c0 -10 4 -19 11 -26s16 -11 26 -11v0c11 0 20 4 27 11v0c7 7 10 15 10 26v0c0 11 -3 20 -10 27s-16 10 -27 10v0c-11 0 -19 -3 -26 -10v0c-7 -7 -11 -16 -11 -27v0zM38 -137l26 -10l74 200l-40 12z" />
    <glyph glyph-name="less" unicode="&#x3c;" 
d="M33 347v-38l434 -192v41l-390 170l390 170v41z" />
    <glyph glyph-name="equal" unicode="=" 
d="M33 381h434v38h-434v-38zM33 239h434v38h-434v-38z" />
    <glyph glyph-name="greater" unicode="&#x3e;" 
d="M467 309v38l-434 192v-41l390 -170l-390 -170v-41z" />
    <glyph glyph-name="question" unicode="?" horiz-adv-x="466" 
d="M370 257h-40c0 -31 -6 -55 -17 -72v0c-17 -24 -43 -36 -79 -36v0c-29 0 -53 10 -71 29v0c-17 17 -25 40 -25 68v0c0 31 11 56 34 74v0c5 5 12 9 21 12v0c13 5 20 7 22 8v0c10 3 19 6 27 8v0c9 3 18 5 25 6v0c39 11 68 28 89 51v0c24 27 36 63 36 106v0
c0 49 -14 88 -41 117v0c-29 30 -68 45 -117 45v0c-47 0 -86 -14 -116 -42v0c-29 -28 -44 -67 -44 -116v0c0 -17 2 -32 7 -46v0h44c-5 12 -7 25 -7 40v0c0 41 9 71 28 90v0c21 23 49 34 85 34s64 -11 85 -34v0c20 -22 30 -52 30 -90v0c0 -36 -8 -63 -25 -82v0
c-1 -1 -2 -3 -4 -5c-3 -2 -5 -3 -6 -4s-3 -2 -5 -4s-4 -3 -5 -4v0c-2 -2 -6 -4 -13 -7v0c-2 -1 -4 -2 -7 -3s-5 -2 -6 -2v0c-7 -3 -12 -4 -14 -4v0c-8 -2 -12 -3 -13 -4v0c-2 -1 -7 -2 -14 -3v0c-9 -2 -13 -3 -14 -4v0c-37 -9 -64 -21 -82 -36v0c-29 -25 -44 -58 -44 -99v0
c0 -43 13 -76 40 -101v0c26 -24 60 -36 101 -36v0c53 0 91 19 114 58v0c14 23 21 53 21 88v0zM197 30c0 -10 4 -19 11 -26s16 -11 26 -11v0c11 0 20 4 27 11v0c7 7 10 15 10 26v0c0 11 -3 20 -10 27s-16 10 -27 10v0c-11 0 -19 -3 -26 -10v0c-7 -7 -11 -16 -11 -27v0z" />
    <glyph glyph-name="at" unicode="@" horiz-adv-x="732" 
d="M504 491l-15 -78c-5 20 -13 38 -25 53v0c-11 13 -23 22 -38 27v0c-15 5 -26 8 -33 9v0c-9 1 -17 2 -22 2v0c-50 0 -92 -20 -125 -60v0c-33 -41 -50 -90 -50 -146v0c0 -45 13 -83 38 -114s59 -47 101 -47v0c25 0 49 7 72 20s41 32 54 55v0c-1 -22 5 -39 19 -52v0
c13 -14 31 -21 52 -21v0c41 0 78 23 111 69v0c33 45 49 102 49 170v0c0 87 -31 159 -92 214v0c-61 55 -135 82 -223 82v0c-96 0 -178 -33 -245 -99v0c-67 -66 -100 -147 -100 -244v0c0 -99 34 -182 102 -247v0c67 -65 153 -97 258 -97v0c40 0 79 4 116 13v0
c39 9 78 23 119 44v0l-12 29c-3 -1 -15 -7 -37 -18v0c-52 -25 -114 -38 -185 -38v0c-51 0 -98 8 -139 24v0c-59 23 -104 62 -137 115v0c-34 54 -51 113 -51 177v0c0 87 30 161 90 221v0c59 60 132 90 221 90v0c81 0 148 -24 203 -73s82 -113 82 -193v0
c0 -56 -13 -105 -38 -148v0c-26 -42 -56 -63 -91 -63v0c-15 0 -27 5 -35 16v0c-8 11 -12 24 -12 37s2 30 7 49v0l43 222h-32zM340 169v0c-29 0 -55 12 -76 35v0c-22 23 -33 54 -33 95v0c0 46 13 87 39 122v0c26 34 61 51 104 51v0c21 0 39 -4 54 -13v0c14 -9 24 -21 30 -36
v0c5 -17 9 -29 11 -37v0c1 -13 2 -23 2 -30v0c0 -55 -13 -100 -38 -135v0c-26 -35 -57 -52 -93 -52z" />
    <glyph glyph-name="A" unicode="A" horiz-adv-x="586" 
d="M524 0h48l-277 687l-281 -687h48l89 219h284zM167 259l127 316l125 -316h-252z" />
    <glyph glyph-name="B" unicode="B" horiz-adv-x="534" 
d="M90 0h183c61 0 111 17 150 51v0c38 33 57 79 57 136v0c0 43 -12 80 -37 111s-58 49 -101 56v0c52 32 78 81 78 146v0c0 51 -16 91 -49 122v0c-33 30 -78 45 -135 45v0h-146v-667zM134 627h85c51 0 88 -9 111 -28v0c30 -25 45 -59 45 -104v0c0 -44 -15 -78 -44 -102v0
c-23 -19 -53 -28 -91 -28v0h-106v262zM134 325h104c55 0 97 -6 125 -19v0c47 -22 71 -63 71 -124v0c0 -43 -14 -77 -43 -102v0c-13 -13 -30 -22 -49 -28v0c-17 -5 -33 -9 -47 -10v0c-16 -1 -32 -2 -49 -2v0h-112v285z" />
    <glyph glyph-name="C" unicode="C" horiz-adv-x="678" 
d="M624 531v58c-61 58 -136 87 -224 87v0c-97 0 -178 -33 -245 -100v0c-67 -67 -101 -149 -101 -244v0c0 -95 33 -175 100 -242v0c67 -67 150 -101 248 -101v0c85 0 159 28 222 83v0v58c-31 -35 -67 -60 -108 -76v0c-39 -17 -78 -25 -116 -25v0c-33 0 -68 7 -104 20v0
c-37 13 -69 32 -96 56v0c-30 24 -54 56 -72 95v0c-19 38 -28 81 -28 130v0c0 85 29 158 86 217s128 89 213 89v0c43 0 85 -9 124 -27v0c38 -19 72 -45 101 -78v0z" />
    <glyph glyph-name="D" unicode="D" horiz-adv-x="618" 
d="M90 0h132c102 0 184 31 246 93v0c33 34 58 72 73 115v0c15 44 23 86 23 125v0c0 41 -8 83 -23 127v0c-16 43 -40 81 -73 114v0c-62 62 -144 93 -246 93v0h-132v-667zM134 627h87c88 0 159 -27 214 -82v0c55 -55 83 -126 83 -212v0c0 -87 -27 -157 -82 -211v0
c-55 -55 -126 -82 -215 -82v0h-87v587z" />
    <glyph glyph-name="E" unicode="E" horiz-adv-x="464" 
d="M410 667h-320v-667h320v40h-276v305h270v40h-270v242h276v40z" />
    <glyph glyph-name="F" unicode="F" horiz-adv-x="406" 
d="M360 667h-270v-667h44v345h220v40h-220v242h226v40z" />
    <glyph glyph-name="G" unicode="G" horiz-adv-x="772" 
d="M438 280h236c-3 -52 -18 -98 -44 -138v0c-20 -31 -50 -57 -91 -79v0c-41 -23 -88 -34 -141 -34v0c-85 0 -156 29 -213 88v0c-57 57 -85 128 -85 213v0c0 85 29 158 87 217v0c57 59 129 89 214 89v0c72 0 136 -23 191 -70v0c26 -21 47 -46 64 -74v0l35 28
c-24 33 -51 61 -80 84v0c-63 48 -132 72 -209 72v0c-97 0 -180 -33 -247 -98v0c-67 -66 -101 -148 -101 -246v0c0 -99 33 -181 99 -246v0c65 -65 147 -97 246 -97v0c109 0 192 37 251 112v0c45 59 68 132 68 219v0h-280v-40z" />
    <glyph glyph-name="H" unicode="H" horiz-adv-x="672" 
d="M134 667h-44v-667h44v344h404v-344h44v667h-44v-283h-404v283z" />
    <glyph glyph-name="I" unicode="I" horiz-adv-x="224" 
d="M90 667v-667h44v667h-44z" />
    <glyph glyph-name="J" unicode="J" horiz-adv-x="264" 
d="M130 667v-665c0 -67 -23 -101 -70 -101v0c-36 0 -64 19 -83 56v0l-31 -24c24 -48 61 -72 112 -72v0c77 0 116 47 116 141v0v665h-44z" />
    <glyph glyph-name="K" unicode="K" horiz-adv-x="540" 
d="M134 667h-44v-667h44v301l18 17l314 -318h60l-342 348l323 319h-58l-315 -314v314z" />
    <glyph glyph-name="L" unicode="L" horiz-adv-x="334" 
d="M90 667v-667h230v40h-186v627h-44z" />
    <glyph glyph-name="M" unicode="M" horiz-adv-x="896" 
d="M127 0l59 536l262 -560l262 560l59 -536h44l-76 690l-289 -617l-289 617l-76 -690h44z" />
    <glyph glyph-name="N" unicode="N" horiz-adv-x="784" 
d="M134 0v569l560 -586v684h-44v-579l-560 586v-674h44z" />
    <glyph glyph-name="O" unicode="O" horiz-adv-x="800" 
d="M400 676c-97 0 -179 -33 -246 -100s-100 -148 -100 -244s33 -177 100 -243v0c67 -67 149 -100 246 -100s179 33 246 100v0c67 66 100 147 100 243s-33 177 -100 244s-149 100 -246 100zM186 117v0c-57 59 -86 130 -86 215v0c0 85 29 158 86 217v0c57 58 129 87 214 87
s157 -29 214 -87v0c57 -59 86 -132 86 -217v0c0 -85 -29 -156 -86 -215v0c-57 -59 -128 -88 -214 -88s-157 29 -214 88z" />
    <glyph glyph-name="P" unicode="P" horiz-adv-x="446" 
d="M134 317h86c59 0 106 16 141 47s53 74 53 129v0c0 55 -18 98 -55 129v0c-37 30 -84 45 -140 45v0h-129v-667h44v317zM134 627h81c49 0 86 -12 113 -36s40 -57 40 -99v0c0 -41 -13 -74 -40 -98v0c-27 -25 -62 -37 -106 -37v0h-88v270z" />
    <glyph glyph-name="Q" unicode="Q" horiz-adv-x="800" 
d="M736 0l-86 92c64 67 96 147 96 240v0c0 96 -33 177 -100 244s-149 100 -246 100s-179 -33 -246 -100s-100 -148 -100 -244s33 -177 100 -243v0c67 -67 149 -100 246 -100v0c83 0 156 25 219 75v0l59 -64h58zM400 29v0c-86 0 -157 29 -214 88v0c-57 59 -86 130 -86 215v0
c0 85 29 158 86 217v0c57 58 129 87 214 87v0c86 0 157 -29 214 -88v0c57 -59 86 -131 86 -216v0c0 -83 -26 -152 -79 -209v0l-139 150h-58l167 -179c-55 -43 -119 -65 -191 -65z" />
    <glyph glyph-name="R" unicode="R" horiz-adv-x="468" 
d="M420 0l-218 315c31 0 58 4 82 13v0c38 13 66 34 85 64v0c18 29 27 62 27 98v0c0 63 -23 111 -69 143v0c-33 23 -80 34 -141 34v0h-96v-667h44v315h20l216 -315h50zM134 627h55c45 0 79 -7 102 -20v0c39 -21 59 -60 59 -116v0c0 -43 -13 -76 -40 -100s-64 -36 -112 -36v0
h-64v272z" />
    <glyph glyph-name="S" unicode="S" horiz-adv-x="514" 
d="M394 554l32 27c-17 31 -39 54 -68 71v0c-29 16 -61 24 -94 24v0c-55 0 -98 -17 -127 -50v0c-29 -35 -44 -73 -44 -116v0c0 -28 7 -53 21 -76v0c12 -19 25 -33 40 -43v0c19 -13 42 -26 71 -40v0c65 -33 107 -54 124 -63v0c43 -27 65 -62 65 -105v0c0 -45 -15 -81 -46 -110
v0c-31 -29 -70 -44 -115 -44v0c-53 0 -95 19 -125 57v0c-16 19 -28 41 -36 64v0l-38 -18c8 -24 22 -48 43 -73v0c40 -47 92 -70 155 -70v0c57 0 106 19 147 56v0c41 37 61 83 61 139v0c0 53 -24 96 -71 129v0c-16 11 -60 35 -133 70v0c-25 13 -41 21 -48 25v0
c-9 5 -21 13 -34 24s-22 23 -27 35v0c-5 14 -8 29 -8 45v0c0 35 11 65 34 88v0c22 24 52 36 90 36v0c59 0 103 -27 131 -82v0z" />
    <glyph glyph-name="T" unicode="T" horiz-adv-x="418" 
d="M404 627v40h-390v-40h173v-627h44v627h173z" />
    <glyph glyph-name="U" unicode="U" horiz-adv-x="634" 
d="M90 667v-417c0 -43 2 -76 7 -99v0c5 -26 16 -50 31 -72v0c41 -60 104 -90 189 -90s148 30 189 90v0c15 22 26 46 31 72v0c5 23 7 56 7 99v0v417h-44v-417c0 -33 -2 -61 -5 -84v0c-4 -20 -12 -40 -23 -60v0c-17 -29 -40 -48 -69 -59v0c-29 -12 -57 -18 -86 -18v0
c-27 0 -56 6 -85 18v0c-29 11 -53 31 -70 59v0c-12 21 -19 41 -22 60v0c-4 21 -6 49 -6 84v0v417h-44z" />
    <glyph glyph-name="V" unicode="V" horiz-adv-x="510" 
d="M14 667l244 -694l238 694h-48l-190 -568l-196 568h-48z" />
    <glyph glyph-name="W" unicode="W" horiz-adv-x="984" 
d="M14 667l225 -692l248 606l226 -606l257 692h-48l-209 -566l-226 602l-241 -602l-184 566h-48z" />
    <glyph glyph-name="X" unicode="X" horiz-adv-x="470" 
d="M23 0h48l159 300l161 -300h48l-183 340l174 327h-48l-152 -285l-151 285h-48l175 -327z" />
    <glyph glyph-name="Y" unicode="Y" horiz-adv-x="516" 
d="M233 0h44v285l225 382h-50l-196 -337l-192 337h-50l219 -382v-285z" />
    <glyph glyph-name="Z" unicode="Z" horiz-adv-x="554" 
d="M517 667h-441v-40h367l-406 -627h469v40h-395z" />
    <glyph glyph-name="bracketleft" unicode="[" horiz-adv-x="278" 
d="M238 689v40h-150v-889h150v40h-106v809h106z" />
    <glyph glyph-name="backslash" unicode="\" horiz-adv-x="576" 
d="M556 -158l-504 901l-32 -16l504 -901z" />
    <glyph glyph-name="bracketright" unicode="]" horiz-adv-x="278" 
d="M40 -120v-40h150v889h-150v-40h106v-809h-106z" />
    <glyph glyph-name="asciicircum" unicode="^" 
d="M250 636l167 -254h46l-186 285h-54l-186 -285h46z" />
    <glyph glyph-name="underscore" unicode="_" 
d="M0 -116h500v38h-500v-38z" />
    <glyph glyph-name="grave" unicode="`" 
d="M248 467l30 16l-92 137l-43 -25z" />
    <glyph glyph-name="a" unicode="a" horiz-adv-x="516" 
d="M404 408v-71c-38 53 -91 80 -159 80v0c-59 0 -107 -20 -144 -59v0c-37 -39 -55 -90 -55 -154v0c0 -65 19 -117 58 -156v0c39 -39 86 -59 141 -59v0c69 0 122 28 159 84v0v-73h40v408h-40zM247 379v0c40 0 77 -15 110 -44v0c33 -30 49 -73 49 -128v0
c0 -50 -14 -92 -42 -127v0c-29 -35 -68 -53 -116 -53v0c-49 0 -88 18 -117 54v0c-29 35 -43 77 -43 126v0c0 53 16 95 47 126v0c31 31 68 46 112 46z" />
    <glyph glyph-name="b" unicode="b" horiz-adv-x="516" 
d="M72 729v-729h40v73c6 -10 14 -20 24 -31v0c9 -11 26 -22 51 -34v0c25 -13 52 -19 83 -19v0c60 0 109 21 146 63v0c36 41 54 92 54 155v0c0 61 -18 111 -54 151v0c-36 39 -84 59 -144 59v0c-67 0 -121 -27 -160 -80v0v392h-40zM152 79v0c-28 34 -42 77 -42 130v0
c0 53 16 95 48 125v0c31 30 68 45 112 45s81 -15 112 -45v0c31 -31 46 -73 46 -127v0c0 -52 -14 -95 -42 -129s-67 -51 -117 -51s-89 17 -117 52z" />
    <glyph glyph-name="c" unicode="c" horiz-adv-x="442" 
d="M399 312v53c-41 35 -88 52 -141 52v0c-64 0 -115 -20 -154 -61s-58 -92 -58 -155v0c0 -60 20 -110 59 -151v0c39 -41 89 -61 150 -61v0c57 0 106 19 149 57v0v54c-45 -49 -94 -73 -148 -73v0c-43 0 -82 16 -117 47v0c-34 31 -51 73 -51 128v0c0 51 16 93 48 127v0
c32 33 73 50 122 50v0c55 0 102 -22 141 -67v0z" />
    <glyph glyph-name="d" unicode="d" horiz-adv-x="516" 
d="M404 729v-392c-37 53 -90 80 -158 80v0c-55 0 -102 -18 -141 -53v0c-39 -36 -59 -89 -59 -158v0c0 -68 20 -121 59 -159v0c39 -39 86 -58 141 -58v0c68 0 121 28 158 84v0v-73h40v729h-40zM246 379v0c49 0 88 -16 117 -49s43 -74 43 -123v0c0 -57 -15 -101 -46 -132v0
c-31 -32 -68 -48 -112 -48s-82 16 -113 48v0c-31 31 -47 75 -47 132v0c0 55 15 97 46 127v0c30 30 67 45 112 45z" />
    <glyph glyph-name="e" unicode="e" horiz-adv-x="483" 
d="M88 199h349c2 63 -16 116 -53 157v0c-37 41 -83 61 -140 61v0c-53 0 -100 -19 -139 -57s-59 -91 -59 -158v0c0 -61 18 -112 54 -152v0c36 -41 85 -61 147 -61v0c46 0 83 11 112 34v0c30 23 52 48 67 77v0l-34 20c-13 -27 -32 -50 -57 -67s-54 -26 -85 -26v0
c-45 0 -84 16 -117 49v0c-33 32 -48 73 -45 123v0zM395 237h-304c5 41 21 75 50 102v0c27 27 62 40 103 40v0c41 0 75 -13 102 -40v0c28 -28 44 -62 49 -102v0z" />
    <glyph glyph-name="f" unicode="f" horiz-adv-x="214" 
d="M214 370v38h-102v186c0 43 7 72 20 87v0c13 15 30 22 51 22v0c12 0 22 -2 31 -5v0v37c-14 4 -26 6 -35 6v0c-30 0 -55 -10 -76 -30v0c-21 -21 -31 -57 -31 -109v0v-194h-46v-38h46v-370h40v370h102z" />
    <glyph glyph-name="g" unicode="g" horiz-adv-x="520" 
d="M408 408v-71c-37 53 -89 80 -156 80v0c-63 0 -113 -20 -150 -61v0c-37 -41 -56 -92 -56 -152v0c0 -67 20 -120 60 -158s87 -57 141 -57v0c69 0 122 27 161 81v0v-62c0 -17 0 -30 -1 -38v0c-1 -10 -4 -27 -11 -51v0c-7 -23 -15 -42 -25 -56v0c-11 -16 -28 -30 -49 -41v0
c-23 -12 -49 -18 -79 -18v0c-44 0 -80 12 -109 37v0c-30 25 -46 59 -49 100v0h-42c3 -55 23 -97 61 -128v0c37 -31 84 -47 139 -47v0c64 0 114 21 151 64v0c36 42 54 101 54 178v0v400h-40zM366 329v0c29 -33 44 -74 44 -123v0c0 -51 -15 -94 -45 -128s-70 -51 -119 -51v0
c-47 0 -85 17 -114 50s-44 75 -44 125v0c0 49 15 91 44 126v0c29 34 68 51 116 51v0c49 0 88 -17 118 -50z" />
    <glyph glyph-name="h" unicode="h" horiz-adv-x="442" 
d="M72 0h40v212c0 48 7 85 22 110v0c21 38 55 57 100 57v0c37 0 64 -13 80 -40v0c11 -17 16 -44 16 -82v0v-257h40v257c0 47 -7 82 -20 103v0c-25 38 -63 57 -113 57v0c-57 0 -98 -24 -125 -73v0v385h-40v-729z" />
    <glyph glyph-name="i" unicode="i" horiz-adv-x="184" 
d="M72 408v-408h40v408h-40zM118 518v0c7 7 10 15 10 26v0c0 11 -3 20 -10 27s-15 10 -26 10v0c-10 0 -18 -3 -25 -10v0c-7 -7 -11 -16 -11 -27v0c0 -10 4 -19 11 -26s16 -11 25 -11v0c10 0 19 4 26 11z" />
    <glyph glyph-name="j" unicode="j" horiz-adv-x="184" 
d="M72 408v-647h40v647h-40zM118 518v0c7 7 10 15 10 26v0c0 11 -3 20 -10 27s-15 10 -26 10v0c-10 0 -18 -3 -25 -10v0c-7 -7 -11 -16 -11 -27v0c0 -10 4 -19 11 -26s16 -11 25 -11v0c10 0 19 4 26 11z" />
    <glyph glyph-name="k" unicode="k" horiz-adv-x="396" 
d="M72 729v-729h40v181l21 21l201 -202h54l-228 231l172 177h-52l-168 -175v496h-40z" />
    <glyph glyph-name="l" unicode="l" horiz-adv-x="184" 
d="M72 729v-729h40v729h-40z" />
    <glyph glyph-name="m" unicode="m" horiz-adv-x="652" 
d="M72 0h40v236c0 43 9 77 27 104v0c17 26 42 39 77 39v0c60 0 90 -39 90 -117v0v-262h40v246c0 11 0 19 1 24v0c1 10 4 21 7 33v0c3 13 8 26 16 37v0c7 10 18 19 33 27v0c15 8 33 12 52 12v0c25 0 46 -8 61 -23v0c16 -17 24 -45 24 -84v0v-272h40v272c0 51 -12 88 -35 111
v0c-23 23 -53 34 -92 34v0c-57 0 -98 -25 -121 -74v0c-19 49 -57 74 -114 74v0c-48 0 -83 -20 -106 -60v0v51h-40v-408z" />
    <glyph glyph-name="n" unicode="n" horiz-adv-x="442" 
d="M72 0h40v212c0 48 7 85 22 110v0c21 38 55 57 100 57v0c37 0 64 -13 80 -40v0c11 -17 16 -44 16 -82v0v-257h40v257c0 47 -7 82 -20 103v0c-25 38 -63 57 -113 57v0c-57 0 -98 -24 -125 -73v0v64h-40v-408z" />
    <glyph glyph-name="o" unicode="o" horiz-adv-x="520" 
d="M108 356v0c-41 -41 -62 -92 -62 -153v0c0 -60 21 -111 62 -152s92 -62 152 -62v0c61 0 112 21 153 62v0c41 41 61 91 61 152v0c0 61 -20 112 -61 153s-92 61 -153 61v0c-61 0 -111 -20 -152 -61zM138 78v0c-33 35 -50 76 -50 125s17 90 50 125v0c33 34 74 51 122 51v0
c49 0 90 -17 123 -51v0c33 -33 49 -75 49 -125s-16 -92 -49 -125v0c-33 -34 -74 -51 -123 -51v0c-48 0 -89 17 -122 51z" />
    <glyph glyph-name="p" unicode="p" horiz-adv-x="516" 
d="M112 -239v312c6 -10 14 -20 24 -31v0c9 -11 26 -22 51 -34v0c25 -13 52 -19 83 -19v0c60 0 109 21 146 63v0c36 41 54 92 54 155v0c0 61 -18 111 -54 151v0c-36 39 -84 59 -144 59v0c-67 0 -121 -27 -160 -80v0v71h-40v-647h40zM152 79v0c-28 34 -42 77 -42 130v0
c0 53 16 95 48 125v0c31 30 68 45 112 45s81 -15 112 -45v0c31 -31 46 -73 46 -127v0c0 -52 -14 -95 -42 -129s-67 -51 -117 -51s-89 17 -117 52z" />
    <glyph glyph-name="q" unicode="q" horiz-adv-x="516" 
d="M444 -239v647h-40v-71c-37 53 -90 80 -158 80v0c-55 0 -102 -18 -141 -53v0c-39 -36 -59 -89 -59 -158v0c0 -68 20 -121 59 -159v0c39 -39 86 -58 141 -58v0c68 0 121 28 158 84v0v-312h40zM246 379v0c49 0 88 -16 117 -49s43 -74 43 -123v0c0 -57 -15 -101 -46 -132v0
c-31 -32 -68 -48 -112 -48s-82 16 -113 48v0c-31 31 -47 75 -47 132v0c0 55 15 97 46 127v0c30 30 67 45 112 45z" />
    <glyph glyph-name="r" unicode="r" horiz-adv-x="260" 
d="M72 0h40v219c0 15 1 31 2 48v0c1 13 4 30 9 50v0c4 20 12 35 25 46v0c11 11 27 16 47 16v0c13 0 23 -3 30 -8v0l20 36c-13 7 -27 10 -43 10v0c-42 0 -72 -21 -90 -62v0v53h-40v-408z" />
    <glyph glyph-name="s" unicode="s" horiz-adv-x="342" 
d="M254 333l34 18c-19 44 -54 66 -107 66v0c-31 0 -57 -10 -78 -29v0c-21 -20 -31 -45 -31 -76v0c0 -19 6 -37 18 -53v0c1 -2 4 -5 7 -8v0c1 -1 2 -3 4 -4c2 -2 4 -3 5 -4v0c3 -3 6 -5 9 -6v0c1 -1 4 -3 11 -7v0c6 -3 10 -5 11 -6v0c4 -2 8 -4 13 -6v0c3 -1 7 -3 13 -5v0
l14 -6c3 -1 6 -3 9 -4c3 -2 5 -3 6 -3v0c27 -11 47 -22 60 -34v0c12 -11 18 -27 18 -49v0c0 -25 -9 -47 -26 -64s-39 -26 -65 -26v0c-23 0 -44 7 -63 22v0c-19 14 -32 34 -39 60v0l-39 -12c9 -34 26 -60 51 -79v0c25 -19 55 -29 90 -29v0c35 0 67 11 94 33v0
c26 21 39 54 39 97v0c0 27 -7 49 -21 66v0c-3 3 -7 8 -14 15v0c-6 5 -11 9 -15 12v0c-1 1 -7 4 -17 10v0c-3 1 -6 3 -9 5c-4 1 -6 2 -7 2s-3 1 -7 3c-4 1 -8 3 -11 4v0c-10 3 -16 5 -17 6v0c-8 3 -17 7 -26 11c-10 4 -16 6 -17 7v0c-7 3 -15 9 -24 20v0c-9 9 -13 20 -13 34
v0c0 17 6 32 19 45v0c12 13 29 20 50 20v0c35 0 58 -15 71 -46v0z" />
    <glyph glyph-name="t" unicode="t" horiz-adv-x="194" 
d="M186 370v38h-71v146h-40v-146h-45v-38h45v-370h40v370h71z" />
    <glyph glyph-name="u" unicode="u" horiz-adv-x="438" 
d="M72 408v-257c0 -48 10 -85 31 -112v0c26 -33 65 -50 116 -50s90 17 116 50v0c21 27 31 64 31 112v0v257h-40v-246c0 -47 -9 -81 -26 -102v0c-19 -22 -46 -33 -81 -33s-62 11 -81 33v0c-17 21 -26 55 -26 102v0v246h-40z" />
    <glyph glyph-name="v" unicode="v" horiz-adv-x="390" 
d="M8 408l188 -433l186 433h-44l-142 -339l-144 339h-44z" />
    <glyph glyph-name="w" unicode="w" horiz-adv-x="672" 
d="M8 408l185 -433l141 362l141 -362l189 433h-44l-145 -337l-141 362l-141 -362l-141 337h-44z" />
    <glyph glyph-name="x" unicode="x" horiz-adv-x="400" 
d="M8 0h49l143 188l143 -188h49l-164 214l148 194h-49l-127 -168l-129 168h-49l151 -194z" />
    <glyph glyph-name="y" unicode="y" horiz-adv-x="428" 
d="M102 -239h46l272 647h-46l-149 -363l-171 363h-46l194 -415z" />
    <glyph glyph-name="z" unicode="z" horiz-adv-x="452" 
d="M434 408h-364v-38h282l-334 -370h414v38h-328z" />
    <glyph glyph-name="braceleft" unicode="{" horiz-adv-x="278" 
d="M40 299v-29c13 -3 24 -8 33 -15s15 -16 18 -27v0c4 -15 6 -25 7 -29v0c1 -5 1 -15 1 -29v0v-176c0 -58 10 -98 30 -120v0c21 -23 55 -34 102 -34v0h9v40c-34 -5 -60 3 -78 23v0c-13 13 -19 41 -19 83v0v182c0 63 -21 101 -64 116v0c25 9 42 22 51 39v0c9 17 13 41 13 73
v0v194c0 37 6 62 19 75v0c7 8 19 15 34 20v0c14 4 29 5 44 4v0v40h-12c-44 0 -77 -11 -98 -32v0c-21 -21 -31 -55 -31 -104v0v-194c0 -17 -1 -31 -3 -42v0c-2 -13 -7 -24 -16 -34v0c-9 -11 -22 -19 -40 -24v0z" />
    <glyph glyph-name="bar" unicode="|" 
d="M230 -250h40v1000h-40v-1000z" />
    <glyph glyph-name="braceright" unicode="}" horiz-adv-x="278" 
d="M238 270v29c-17 5 -30 13 -39 24v0c-9 11 -15 23 -17 34v0c-2 11 -3 25 -3 42v0v194c0 49 -10 83 -31 104v0c-21 21 -54 32 -98 32v0h-12v-40c15 1 30 0 44 -4v0c15 -5 27 -12 34 -20v0c13 -13 19 -38 19 -75v0v-194c0 -31 5 -56 14 -73s26 -30 50 -39v0
c-43 -15 -64 -53 -64 -116v0v-182c0 -42 -6 -70 -19 -83v0c-18 -20 -44 -28 -78 -23v0v-40h9c47 0 81 11 102 34v0c20 22 30 62 30 120v0v176c0 9 1 18 2 29v0c1 9 3 18 6 29v0c3 11 9 20 18 27s20 12 33 15v0z" />
    <glyph glyph-name="asciitilde" unicode="~" horiz-adv-x="600" 
d="M62 612l27 -16c11 23 24 41 38 54v0c19 17 40 26 64 26v0c20 0 46 -9 78 -27v0c61 -33 106 -50 135 -50v0c36 0 68 14 95 42v0c15 15 28 35 39 58v0l-27 16c-11 -21 -23 -38 -36 -51v0c-18 -18 -40 -27 -65 -27v0c-21 0 -56 12 -103 37v0c-51 27 -88 40 -113 40v0
c-31 0 -60 -12 -85 -35v0c-19 -19 -35 -42 -47 -67v0z" />
    <glyph glyph-name="nbsp" unicode="&#xa0;" horiz-adv-x="20" 
 />
    <glyph glyph-name="currency" unicode="&#xa4;" horiz-adv-x="666" 
d="M99 90l90 90c41 -35 90 -53 146 -53v0c55 0 103 18 144 55v0l91 -91l24 24l-91 91c37 43 55 90 55 143v0c0 57 -18 105 -54 144v0l90 90l-24 24l-90 -89c-41 37 -90 56 -147 56s-106 -19 -147 -56v0l-90 89l-24 -24l90 -90c-35 -41 -53 -88 -53 -143v0
c0 -56 19 -105 56 -146v0l-90 -89zM520 350c0 -51 -18 -95 -55 -132s-81 -55 -132 -55s-95 18 -131 55v0c-37 37 -55 81 -55 132v0c0 52 18 96 55 133v0c36 37 80 55 131 55s95 -18 132 -55s55 -81 55 -133v0z" />
    <glyph glyph-name="brokenbar" unicode="&#xa6;" 
d="M230 390h40v360h-40v-360zM230 -250h40v360h-40v-360z" />
    <glyph glyph-name="section" unicode="&#xa7;" horiz-adv-x="548" 
d="M209 441v0c-73 -29 -109 -82 -109 -160v0c0 -50 16 -90 48 -121v0c11 -9 19 -16 25 -19v0c8 -6 17 -11 28 -15v0c9 -4 18 -7 25 -10v0c9 -3 19 -5 30 -8v0c4 -1 8 -1 12 -2l9 -3s4 -2 5 -2v0c73 -20 109 -61 109 -122v0c0 -34 -11 -61 -32 -81v0c-21 -21 -49 -31 -85 -31
v0c-55 0 -90 21 -105 63v0c-7 21 -10 44 -9 70v0h-44c-1 -40 4 -72 15 -97v0c22 -51 70 -76 143 -76v0c14 0 27 1 40 4v0c18 4 35 10 52 17v0c21 9 38 25 51 47v0c13 23 20 50 20 83v0c0 69 -33 118 -99 145v0c9 3 18 7 27 12v0c5 3 17 12 35 26v0c14 12 26 29 35 50v0
c9 20 13 44 13 71v0c0 53 -17 95 -50 124v0c-21 19 -54 35 -101 49v0c-5 1 -11 3 -19 6c-8 2 -13 4 -16 5v0c-8 3 -19 8 -34 15v0c-14 7 -25 14 -34 23v0c-8 8 -15 19 -21 32v0c-7 13 -10 27 -10 44v0c0 35 11 64 32 85v0c21 20 50 30 87 30v0c56 0 92 -23 108 -68v0
c7 -22 10 -43 8 -64v0h44c-1 32 -4 57 -10 76v0c-9 28 -27 51 -52 69v0c-26 18 -59 27 -98 27v0c-51 0 -91 -14 -120 -41v0c-30 -28 -45 -65 -45 -112v0c0 -22 4 -42 11 -61v0c7 -17 16 -32 29 -43v0c11 -11 20 -19 29 -24v0c11 -7 18 -11 23 -13zM367 375v0
c23 -25 35 -56 35 -93s-12 -67 -35 -92v0c-24 -25 -55 -37 -93 -37v0c-39 0 -69 12 -92 37v0c-24 24 -36 55 -36 92v0c0 37 12 68 36 93v0c23 24 53 36 92 36v0c38 0 69 -12 93 -36z" />
    <glyph glyph-name="copyright" unicode="&#xa9;" horiz-adv-x="740" 
d="M27 333v0c0 -94 34 -175 101 -242s148 -101 242 -101v0c95 0 176 34 243 101v0c67 67 100 147 100 242v0c0 96 -33 177 -100 244s-148 100 -243 100v0c-95 0 -175 -33 -242 -100v0c-67 -67 -101 -149 -101 -244zM588 112v0c-61 -61 -134 -92 -218 -92s-157 31 -218 92v0
c-61 61 -91 134 -91 221s30 161 91 222v0c61 61 134 92 218 92s157 -31 218 -92v0c61 -61 91 -135 91 -222s-30 -160 -91 -221zM513 421v53c-37 34 -80 51 -129 51v0c-57 0 -103 -18 -140 -55v0c-38 -37 -57 -84 -57 -141v0c0 -55 19 -102 57 -139v0c37 -37 84 -56 140 -56
v0c47 0 90 16 129 49v0v52c-35 -43 -78 -65 -129 -65v0c-45 0 -83 15 -113 45v0c-31 30 -46 68 -46 113v0c0 47 15 85 45 116v0c29 30 67 45 113 45v0c53 0 97 -23 130 -68v0z" />
    <glyph glyph-name="guillemotleft" unicode="&#xab;" horiz-adv-x="348" 
d="M80 207l108 126l-26 24l-130 -150l130 -150l26 24zM186 207l108 126l-26 24l-130 -150l130 -150l26 24z" />
    <glyph glyph-name="logicalnot" unicode="&#xac;" 
d="M467 0v267h-434v-38h394v-229h40z" />
    <glyph glyph-name="registered" unicode="&#xae;" horiz-adv-x="740" 
d="M27 333v0c0 -94 34 -175 101 -242s148 -101 242 -101v0c95 0 176 34 243 101v0c67 67 100 147 100 242v0c0 96 -33 177 -100 244s-148 100 -243 100v0c-95 0 -175 -33 -242 -100v0c-67 -67 -101 -149 -101 -244zM588 112v0c-61 -61 -134 -92 -218 -92s-157 31 -218 92v0
c-61 61 -91 134 -91 221s30 161 91 222v0c61 61 134 92 218 92s157 -31 218 -92v0c61 -61 91 -135 91 -222s-30 -160 -91 -221zM495 135l-118 170c3 1 8 2 17 4v0c5 0 12 1 19 4v0c43 17 64 47 64 91v0c0 36 -9 62 -28 78v0c-19 15 -49 23 -90 23v0h-62v-370h34v171h7
l117 -171h40zM331 474h29h21c1 0 4 0 9 -1c4 -1 8 -2 11 -3v0c9 -2 16 -5 21 -10v0c3 -3 8 -10 14 -21v0c4 -9 6 -21 6 -34v0c0 -45 -26 -68 -77 -68v0h-34v137z" />
    <glyph glyph-name="degree" unicode="&#xb0;" 
d="M153 638v0c-25 -25 -38 -57 -38 -94s13 -69 38 -94v0c25 -25 57 -37 97 -37v0c41 0 73 12 98 37s37 56 37 94s-12 69 -37 94s-57 37 -98 37v0c-40 0 -72 -12 -97 -37zM325 618v0c19 -19 28 -44 28 -74s-9 -54 -28 -73v0c-19 -20 -44 -30 -75 -30v0c-31 0 -55 10 -74 30v0
c-19 19 -29 44 -29 73v0c0 29 10 53 29 74v0c19 19 44 29 74 29v0c31 0 56 -10 75 -29z" />
    <glyph glyph-name="plusminus" unicode="&#xb1;" 
d="M33 339h197v-181h40v181h197v38h-197v181h-40v-181h-197v-38zM33 76h434v38h-434v-38z" />
    <glyph glyph-name="mu" unicode="&#xb5;" 
d="M112 -164v234c29 -54 73 -81 130 -81v0c42 0 76 12 103 37v0c20 19 34 41 43 64v0v-90h40v408h-40v-195c0 -58 -14 -103 -42 -136v0c-29 -33 -63 -50 -102 -50v0c-36 0 -67 13 -93 40v0c-26 27 -39 72 -39 134v0v207h-40v-572h40z" />
    <glyph glyph-name="paragraph" unicode="&#xb6;" horiz-adv-x="531" 
d="M257 -102v736h117v-736h36v736h53v33h-231c-43 0 -78 -5 -106 -16v0c-29 -11 -52 -26 -67 -45v0c-15 -18 -25 -37 -31 -57v0c-7 -18 -10 -39 -10 -62v0c0 -51 18 -94 53 -127v0c35 -33 79 -49 133 -49v0h17v-413h36z" />
    <glyph glyph-name="periodcentered" unicode="&#xb7;" horiz-adv-x="200" 
d="M52 340c0 -13 5 -25 14 -34s21 -14 34 -14s25 5 34 14s14 21 14 34s-5 25 -14 34s-21 14 -34 14s-25 -5 -34 -14s-14 -21 -14 -34z" />
    <glyph glyph-name="guillemotright" unicode="&#xbb;" horiz-adv-x="348" 
d="M162 207l-108 -126l26 -24l130 150l-130 150l-26 -24zM268 207l-108 -126l26 -24l130 150l-130 150l-26 -24z" />
    <glyph glyph-name="Udieresis" unicode="&#xdc;" horiz-adv-x="634" 
d="M90 667v-417c0 -43 2 -76 7 -99v0c5 -26 16 -50 31 -72v0c41 -60 104 -90 189 -90s148 30 189 90v0c15 22 26 46 31 72v0c5 23 7 56 7 99v0v417h-44v-417c0 -33 -2 -61 -5 -84v0c-4 -20 -12 -40 -23 -60v0c-17 -29 -40 -48 -69 -59v0c-29 -12 -57 -18 -86 -18v0
c-27 0 -56 6 -85 18v0c-29 11 -53 31 -70 59v0c-12 21 -19 41 -22 60v0c-4 21 -6 49 -6 84v0v417h-44zM228 751v0c9 -7 18 -11 27 -11v0c11 0 20 4 27 11s11 16 11 27v0c0 11 -4 20 -11 27v0c-7 7 -16 11 -27 11v0c-11 0 -20 -4 -27 -11s-11 -16 -11 -27v0
c0 -9 4 -18 11 -27zM356 751v0c9 -7 18 -11 27 -11v0c11 0 20 4 27 11s11 16 11 27v0c0 11 -4 20 -11 27v0c-7 7 -16 11 -27 11v0c-11 0 -20 -4 -27 -11s-11 -16 -11 -27v0c0 -9 4 -18 11 -27z" />
    <glyph glyph-name="udieresis" unicode="&#xfc;" horiz-adv-x="438" 
d="M72 408v-257c0 -48 10 -85 31 -112v0c26 -33 65 -50 116 -50s90 17 116 50v0c21 27 31 64 31 112v0v257h-40v-246c0 -47 -9 -81 -26 -102v0c-19 -22 -46 -33 -81 -33s-62 11 -81 33v0c-17 21 -26 55 -26 102v0v246h-40zM139 497v0c7 -7 15 -10 25 -10v0c11 0 19 3 26 10
s10 15 10 26v0c0 10 -3 18 -10 25v0c-7 7 -16 11 -26 11v0c-9 0 -18 -4 -25 -11s-11 -16 -11 -25v0c0 -10 4 -19 11 -26zM251 497v0c7 -7 15 -10 25 -10v0c11 0 19 3 26 10s10 15 10 26v0c0 10 -3 18 -10 25v0c-7 7 -16 11 -26 11v0c-9 0 -18 -4 -25 -11s-11 -16 -11 -25v0
c0 -10 4 -19 11 -26z" />
    <glyph glyph-name="uni0400" unicode="&#x400;" horiz-adv-x="20" 
 />
    <glyph glyph-name="uni0401" unicode="&#x401;" horiz-adv-x="464" 
d="M410 667h-320v-667h320v40h-276v305h270v40h-270v242h276v40zM121 780c0 -11 4 -20 11 -27s16 -11 27 -11s20 4 27 11s11 16 11 27s-4 20 -11 27s-16 11 -27 11s-20 -4 -27 -11s-11 -16 -11 -27zM307 780c0 -11 4 -20 11 -27s16 -11 27 -11s20 4 27 11s11 16 11 27
s-4 20 -11 27s-16 11 -27 11s-20 -4 -27 -11s-11 -16 -11 -27z" />
    <glyph glyph-name="uni0402" unicode="&#x402;" horiz-adv-x="670" 
d="M424 627v40h-410v-40h166v-627h44v337c55 7 106 11 152 11v0c50 0 91 -7 122 -22v0c53 -24 80 -70 80 -139v0c0 -48 -12 -86 -36 -115s-56 -43 -95 -43v0c-35 0 -70 10 -105 29v0l-16 -39c37 -20 77 -30 120 -30v0c57 0 101 20 132 60v0c31 39 46 85 46 140v0
c0 81 -33 138 -98 171v0c-37 19 -87 28 -150 28v0c-54 0 -105 -4 -152 -11v0v250h200z" />
    <glyph glyph-name="uni0403" unicode="&#x403;" horiz-adv-x="400" 
d="M90 0h44v627h252v40h-296v-667zM316 854l-116 -133l32 -18l134 126z" />
    <glyph glyph-name="uni0404" unicode="&#x404;" horiz-adv-x="678" 
d="M624 531v58c-61 58 -136 87 -224 87v0c-97 0 -178 -33 -245 -100v0c-67 -67 -101 -149 -101 -244v0c0 -95 33 -175 100 -242v0c67 -67 150 -101 248 -101v0c85 0 159 28 222 83v0v58c-31 -35 -67 -60 -108 -76v0c-39 -17 -78 -25 -116 -25v0c-76 0 -144 27 -205 81v0
c-61 54 -93 125 -95 214v0h444v40h-442c7 79 39 144 97 195v0c57 51 124 77 200 77v0c43 0 85 -9 124 -27v0c38 -19 72 -45 101 -78v0z" />
    <glyph glyph-name="uni0405" unicode="&#x405;" horiz-adv-x="514" 
d="M394 554l32 27c-17 31 -39 54 -68 71v0c-29 16 -61 24 -94 24v0c-55 0 -98 -17 -127 -50v0c-29 -35 -44 -73 -44 -116v0c0 -28 7 -53 21 -76v0c12 -19 25 -33 40 -43v0c19 -13 42 -26 71 -40v0c65 -33 107 -54 124 -63v0c43 -27 65 -62 65 -105v0c0 -45 -15 -81 -46 -110
v0c-31 -29 -70 -44 -115 -44v0c-53 0 -95 19 -125 57v0c-16 19 -28 41 -36 64v0l-38 -18c8 -24 22 -48 43 -73v0c40 -47 92 -70 155 -70v0c57 0 106 19 147 56v0c41 37 61 83 61 139v0c0 53 -24 96 -71 129v0c-16 11 -60 35 -133 70v0c-25 13 -41 21 -48 25v0
c-9 5 -21 13 -34 24s-22 23 -27 35v0c-5 14 -8 29 -8 45v0c0 35 11 65 34 88v0c22 24 52 36 90 36v0c59 0 103 -27 131 -82v0z" />
    <glyph glyph-name="uni0406" unicode="&#x406;" horiz-adv-x="224" 
d="M90 667v-667h44v667h-44z" />
    <glyph glyph-name="uni0407" unicode="&#x407;" horiz-adv-x="224" 
d="M90 667v-667h44v667h-44zM10 780c0 -11 4 -20 11 -27s16 -11 27 -11s20 4 27 11s11 16 11 27s-4 20 -11 27s-16 11 -27 11s-20 -4 -27 -11s-11 -16 -11 -27zM138 780c0 -11 4 -20 11 -27s16 -11 27 -11s20 4 27 11s11 16 11 27s-4 20 -11 27s-16 11 -27 11
s-20 -4 -27 -11s-11 -16 -11 -27z" />
    <glyph glyph-name="uni0408" unicode="&#x408;" horiz-adv-x="264" 
d="M130 667v-665c0 -67 -23 -101 -70 -101v0c-36 0 -64 19 -83 56v0l-31 -24c24 -48 61 -72 112 -72v0c77 0 116 47 116 141v0v665h-44z" />
    <glyph glyph-name="uni0409" unicode="&#x409;" horiz-adv-x="922" 
d="M154 667v-428c0 -37 0 -61 -1 -71v0c-1 -17 -5 -36 -10 -56v0c-6 -23 -15 -40 -27 -52v0c-17 -17 -39 -26 -65 -26v0c-11 0 -24 2 -37 6v0v-40c16 -4 29 -6 40 -6v0c41 0 73 13 97 40v0c15 16 26 37 33 62v0c8 28 12 50 13 66v0c1 12 1 38 1 77v0v388h288v-627h174
c73 0 127 19 163 57v0c35 39 53 85 53 140v0c0 122 -77 183 -230 183v0h-116v287h-376zM530 340h104c58 0 100 -7 127 -20v0c46 -24 69 -65 69 -123v0c0 -49 -14 -86 -42 -113v0c-31 -29 -79 -44 -146 -44v0h-112v300z" />
    <glyph glyph-name="uni040A" unicode="&#x40a;" horiz-adv-x="974" 
d="M134 667h-44v-667h44v340h404v-340h174c73 0 127 19 163 57v0c35 39 53 85 53 140v0c0 122 -77 183 -230 183v0h-116v287h-44v-287h-404v287zM582 340h104c58 0 100 -7 127 -20v0c46 -24 69 -65 69 -123v0c0 -49 -14 -86 -42 -113v0c-31 -29 -79 -44 -146 -44v0h-112v300
z" />
    <glyph glyph-name="uni040B" unicode="&#x40b;" horiz-adv-x="670" 
d="M424 627v40h-410v-40h166v-627h44v344h156c60 0 101 -5 122 -15v0c14 -7 25 -14 32 -22v0c7 -9 13 -20 16 -33v0c1 -5 3 -15 5 -30v0c1 -5 1 -15 1 -31v0v-213h44v213c0 41 -4 72 -13 94v0c-9 23 -28 41 -57 55v0c-29 15 -75 22 -136 22v0h-170v243h200z" />
    <glyph glyph-name="uni040C" unicode="&#x40c;" horiz-adv-x="540" 
d="M134 667h-44v-667h44v301l18 17l314 -318h60l-342 348l323 319h-58l-315 -314v314zM336 854l-116 -133l32 -18l134 126z" />
    <glyph glyph-name="uni040E" unicode="&#x40e;" horiz-adv-x="550" 
d="M14 667l256 -481l-85 -186h46l305 667h-46l-195 -432l-231 432h-50zM180 822l-35 -19c14 -31 34 -52 61 -65v0c27 -13 53 -20 79 -20v0c25 0 52 7 80 20v0c27 13 47 35 60 65v0l-35 19c-19 -43 -54 -64 -105 -64s-86 21 -105 64v0z" />
    <glyph glyph-name="uni040F" unicode="&#x40f;" horiz-adv-x="666" 
d="M90 0h221v-180h44v180h221v667h-44v-627h-398v627h-44v-667z" />
    <glyph glyph-name="uni0410" unicode="&#x410;" horiz-adv-x="586" 
d="M524 0h48l-277 687l-281 -687h48l89 219h284zM167 259l127 316l125 -316h-252z" />
    <glyph glyph-name="uni0411" unicode="&#x411;" horiz-adv-x="534" 
d="M90 0h174c73 0 127 19 163 57v0c35 39 53 85 53 140v0c0 122 -77 183 -230 183v0h-116v247h277v40h-321v-667zM134 340h104c57 0 99 -7 127 -20v0c46 -24 69 -65 69 -123v0c0 -49 -14 -86 -42 -113v0c-31 -29 -79 -44 -146 -44v0h-112v300z" />
    <glyph glyph-name="uni0412" unicode="&#x412;" horiz-adv-x="534" 
d="M90 0h183c61 0 111 17 150 51v0c38 33 57 79 57 136v0c0 43 -12 80 -37 111s-58 49 -101 56v0c52 32 78 81 78 146v0c0 51 -16 91 -49 122v0c-33 30 -78 45 -135 45v0h-146v-667zM134 627h85c51 0 88 -9 111 -28v0c30 -25 45 -59 45 -104v0c0 -44 -15 -78 -44 -102v0
c-23 -19 -53 -28 -91 -28v0h-106v262zM134 325h104c55 0 97 -6 125 -19v0c47 -22 71 -63 71 -124v0c0 -43 -14 -77 -43 -102v0c-13 -13 -30 -22 -49 -28v0c-17 -5 -33 -9 -47 -10v0c-16 -1 -32 -2 -49 -2v0h-112v285z" />
    <glyph glyph-name="uni0413" unicode="&#x413;" horiz-adv-x="400" 
d="M90 0h44v627h252v40h-296v-667z" />
    <glyph glyph-name="uni0414" unicode="&#x414;" horiz-adv-x="610" 
d="M144 667v-362c0 -75 -8 -134 -24 -175v0c-11 -27 -25 -48 -44 -65v0c-20 -17 -41 -26 -62 -25v0v-174h42v134h498v-134h42v174h-76v627h-376zM188 627h288v-587h-363c23 23 40 50 51 79v0c16 42 24 104 24 186v0v322z" />
    <glyph glyph-name="uni0415" unicode="&#x415;" horiz-adv-x="464" 
d="M410 667h-320v-667h320v40h-276v305h270v40h-270v242h276v40z" />
    <glyph glyph-name="uni0416" unicode="&#x416;" horiz-adv-x="796" 
d="M376 667v-314l-282 314h-58l296 -323l-318 -344h58l291 314l13 -13v-301h44v301l13 13l291 -314h58l-318 344l296 323h-58l-282 -314v314h-44z" />
    <glyph glyph-name="uni0417" unicode="&#x417;" horiz-adv-x="554" 
d="M104 581l32 -27c35 55 83 82 144 82v0c42 0 74 -12 97 -37v0c21 -23 31 -51 31 -86v0c0 -41 -13 -73 -39 -97v0c-27 -25 -58 -37 -93 -37v0h-60v-40h60c55 0 99 -13 131 -39v0c31 -26 47 -62 47 -109v0c0 -57 -19 -99 -57 -127v0c-31 -23 -70 -35 -115 -35v0
c-37 0 -72 10 -107 31v0c-35 20 -62 50 -79 90v0l-42 -20c19 -40 47 -73 85 -100v0c39 -27 85 -41 140 -41v0c58 0 106 14 145 42v0c51 37 76 90 76 160v0c0 42 -12 79 -35 112v0c-23 31 -56 53 -99 64v0c59 31 88 79 88 146v0c0 51 -16 91 -48 120v0c-29 29 -70 43 -121 43
v0c-81 0 -142 -32 -181 -95v0z" />
    <glyph glyph-name="uni0418" unicode="&#x418;" horiz-adv-x="700" 
d="M566 0h44v674l-476 -573v566h-44v-684l476 573v-556z" />
    <glyph glyph-name="uni0419" unicode="&#x419;" horiz-adv-x="700" 
d="M566 0h44v674l-476 -573v566h-44v-684l476 573v-556zM430 738v0c27 13 47 35 60 65v0l-35 19c-19 -43 -54 -64 -105 -64s-86 21 -105 64v0l-35 -19c14 -31 34 -52 61 -65v0c27 -13 53 -20 79 -20v0c25 0 52 7 80 20z" />
    <glyph glyph-name="uni041A" unicode="&#x41a;" horiz-adv-x="540" 
d="M134 667h-44v-667h44v301l18 17l314 -318h60l-342 348l323 319h-58l-315 -314v314z" />
    <glyph glyph-name="uni041B" unicode="&#x41b;" horiz-adv-x="620" 
d="M154 667v-428c0 -37 0 -61 -1 -71v0c-1 -17 -5 -36 -10 -56v0c-6 -23 -15 -40 -27 -52v0c-17 -17 -39 -26 -65 -26v0c-11 0 -24 2 -37 6v0v-40c16 -4 29 -6 40 -6v0c41 0 73 13 97 40v0c15 16 26 37 33 62v0c8 28 12 50 13 66v0c1 12 1 38 1 77v0v388h288v-627h44v667
h-376z" />
    <glyph glyph-name="uni041C" unicode="&#x41c;" horiz-adv-x="896" 
d="M127 0l59 536l262 -560l262 560l59 -536h44l-76 690l-289 -617l-289 617l-76 -690h44z" />
    <glyph glyph-name="uni041D" unicode="&#x41d;" horiz-adv-x="672" 
d="M134 667h-44v-667h44v344h404v-344h44v667h-44v-283h-404v283z" />
    <glyph glyph-name="uni041E" unicode="&#x41e;" horiz-adv-x="800" 
d="M400 676c-97 0 -179 -33 -246 -100s-100 -148 -100 -244s33 -177 100 -243v0c67 -67 149 -100 246 -100s179 33 246 100v0c67 66 100 147 100 243s-33 177 -100 244s-149 100 -246 100zM186 117v0c-57 59 -86 130 -86 215v0c0 85 29 158 86 217v0c57 58 129 87 214 87
s157 -29 214 -87v0c57 -59 86 -132 86 -217v0c0 -85 -29 -156 -86 -215v0c-57 -59 -128 -88 -214 -88s-157 29 -214 88z" />
    <glyph glyph-name="uni041F" unicode="&#x41f;" horiz-adv-x="672" 
d="M90 667v-667h44v627h404v-627h44v667h-492z" />
    <glyph glyph-name="uni0420" unicode="&#x420;" horiz-adv-x="446" 
d="M134 317h86c59 0 106 16 141 47s53 74 53 129v0c0 55 -18 98 -55 129v0c-37 30 -84 45 -140 45v0h-129v-667h44v317zM134 627h81c49 0 86 -12 113 -36s40 -57 40 -99v0c0 -41 -13 -74 -40 -98v0c-27 -25 -62 -37 -106 -37v0h-88v270z" />
    <glyph glyph-name="uni0421" unicode="&#x421;" horiz-adv-x="678" 
d="M624 531v58c-61 58 -136 87 -224 87v0c-97 0 -178 -33 -245 -100v0c-67 -67 -101 -149 -101 -244v0c0 -95 33 -175 100 -242v0c67 -67 150 -101 248 -101v0c85 0 159 28 222 83v0v58c-31 -35 -67 -60 -108 -76v0c-39 -17 -78 -25 -116 -25v0c-33 0 -68 7 -104 20v0
c-37 13 -69 32 -96 56v0c-30 24 -54 56 -72 95v0c-19 38 -28 81 -28 130v0c0 85 29 158 86 217s128 89 213 89v0c43 0 85 -9 124 -27v0c38 -19 72 -45 101 -78v0z" />
    <glyph glyph-name="uni0422" unicode="&#x422;" horiz-adv-x="418" 
d="M404 627v40h-390v-40h173v-627h44v627h173z" />
    <glyph glyph-name="uni0423" unicode="&#x423;" horiz-adv-x="550" 
d="M14 667l256 -481l-85 -186h46l305 667h-46l-195 -432l-231 432h-50z" />
    <glyph glyph-name="uni0424" unicode="&#x424;" horiz-adv-x="820" 
d="M388 0h44v94h28c47 0 89 6 127 17v0c35 11 65 25 88 43v0c21 16 39 37 55 62v0c15 25 24 49 29 70v0c5 21 7 43 7 68s-2 48 -7 69s-14 44 -29 69v0c-16 25 -34 46 -55 62v0c-23 18 -53 32 -88 43v0c-38 11 -80 17 -127 17v0h-28v80h-44v-80h-28c-46 0 -88 -6 -126 -17v0
c-36 -11 -66 -25 -89 -43v0c-21 -17 -39 -37 -54 -62v0c-14 -22 -24 -45 -29 -69v0c-5 -25 -8 -48 -8 -69v0c0 -22 3 -45 8 -68v0c5 -24 15 -47 29 -70v0c15 -25 33 -45 54 -62v0c23 -18 53 -32 89 -43v0c38 -11 80 -17 126 -17v0h28v-94zM388 134h-30c-49 0 -91 7 -126 21
v0c-36 13 -63 31 -81 54v0c-18 23 -31 47 -39 70v0c-8 23 -12 48 -12 75v0c0 27 4 52 12 76v0c8 23 21 46 39 69v0c17 23 44 41 81 55v0c36 13 78 20 126 20v0h30v-440zM432 574h30c48 0 90 -7 127 -20v0c36 -15 63 -33 80 -55v0c18 -23 31 -46 39 -69v0
c8 -24 12 -49 12 -76v0c0 -27 -4 -52 -12 -75v0c-8 -23 -21 -47 -39 -70v0c-18 -23 -45 -41 -80 -54v0c-36 -14 -78 -21 -127 -21v0h-30v440z" />
    <glyph glyph-name="uni0425" unicode="&#x425;" horiz-adv-x="470" 
d="M23 0h48l159 300l161 -300h48l-183 340l174 327h-48l-152 -285l-151 285h-48l175 -327z" />
    <glyph glyph-name="uni0426" unicode="&#x426;" horiz-adv-x="666" 
d="M90 0h520v-134h42v174h-76v627h-44v-627h-398v627h-44v-667z" />
    <glyph glyph-name="uni0427" unicode="&#x427;" horiz-adv-x="580" 
d="M446 0h44v667h-44v-327c-54 -5 -106 -7 -156 -7v0c-60 0 -101 5 -122 15v0c-13 6 -24 14 -32 23v0c-7 9 -13 20 -16 33v0c-1 7 -3 16 -5 29v0c-1 5 -1 15 -1 31v0v203h-44v-203c0 -40 4 -71 13 -93v0c9 -23 28 -42 57 -56v0c29 -15 75 -22 136 -22v0c43 0 100 2 170 7v0
v-300z" />
    <glyph glyph-name="uni0428" unicode="&#x428;" horiz-adv-x="920" 
d="M90 0h740v667h-44v-627h-304v627h-44v-627h-304v627h-44v-667z" />
    <glyph glyph-name="uni0429" unicode="&#x429;" horiz-adv-x="920" 
d="M90 0h774v-134h42v174h-76v627h-44v-627h-304v627h-44v-627h-304v627h-44v-667z" />
    <glyph glyph-name="uni042A" unicode="&#x42a;" horiz-adv-x="610" 
d="M174 0h174c73 0 127 19 163 57v0c35 39 53 85 53 140v0c0 122 -77 183 -230 183v0h-116v287h-204v-40h160v-627zM218 340h104c58 0 100 -7 127 -20v0c46 -24 69 -65 69 -123v0c0 -49 -14 -86 -42 -113v0c-31 -29 -79 -44 -146 -44v0h-112v300z" />
    <glyph glyph-name="uni042B" unicode="&#x42b;" horiz-adv-x="690" 
d="M90 0h174c73 0 127 19 163 57v0c35 39 53 85 53 140v0c0 122 -77 183 -230 183v0h-116v287h-44v-667zM134 340h104c58 0 100 -7 127 -20v0c46 -24 69 -65 69 -123v0c0 -49 -14 -86 -42 -113v0c-31 -29 -79 -44 -146 -44v0h-112v300zM556 667v-667h44v667h-44z" />
    <glyph glyph-name="uni042C" unicode="&#x42c;" horiz-adv-x="526" 
d="M90 0h174c73 0 127 19 163 57v0c35 39 53 85 53 140v0c0 122 -77 183 -230 183v0h-116v287h-44v-667zM134 340h104c58 0 100 -7 127 -20v0c46 -24 69 -65 69 -123v0c0 -49 -14 -86 -42 -113v0c-31 -29 -79 -44 -146 -44v0h-112v300z" />
    <glyph glyph-name="uni042D" unicode="&#x42d;" horiz-adv-x="678" 
d="M54 130v-58c63 -55 137 -83 222 -83v0c98 0 181 34 248 101v0c67 67 100 147 100 242v0c0 95 -34 177 -101 244v0c-67 67 -148 100 -245 100v0c-88 0 -163 -29 -224 -87v0v-58c29 33 63 59 102 78v0c39 18 80 27 123 27v0c77 0 144 -26 201 -77v0c57 -51 89 -116 96 -195
v0h-442v-40h444c-3 -89 -35 -161 -95 -214v0c-61 -54 -129 -81 -205 -81v0c-38 0 -77 8 -116 25v0c-41 16 -77 41 -108 76v0z" />
    <glyph glyph-name="uni042E" unicode="&#x42e;" horiz-adv-x="960" 
d="M134 372v295h-44v-667h44v332h100c1 -95 33 -176 98 -243v0c64 -67 143 -100 238 -100s174 33 239 100v0c65 65 97 146 97 243v0c0 96 -32 177 -97 244s-144 100 -239 100v0c-86 0 -161 -29 -224 -86s-100 -130 -110 -218v0h-102zM363 117v0c-55 59 -83 130 -83 215
s28 157 83 216v0c55 59 124 88 207 88s152 -29 207 -88v0c55 -59 83 -131 83 -216v0c0 -86 -27 -158 -82 -215v0c-55 -59 -124 -88 -208 -88v0c-83 0 -152 29 -207 88z" />
    <glyph glyph-name="uni042F" unicode="&#x42f;" horiz-adv-x="470" 
d="M34 0h52l200 299h50v-299h44v667h-114c-54 0 -96 -9 -125 -26v0c-24 -13 -44 -33 -61 -59v0c-17 -27 -26 -60 -26 -99v0c0 -29 4 -55 13 -76v0c9 -23 20 -40 34 -52v0c12 -12 23 -21 34 -27v0c11 -7 19 -12 26 -14v0c25 -9 50 -14 75 -15v0zM336 627v-288h-76
c-51 0 -89 12 -116 35v0c-29 26 -44 62 -44 109v0c0 29 7 55 20 78v0c12 21 30 38 55 50v0c21 11 52 16 91 16v0h70z" />
    <glyph glyph-name="uni0430" unicode="&#x430;" horiz-adv-x="516" 
d="M404 408v-71c-38 53 -91 80 -159 80v0c-59 0 -107 -20 -144 -59v0c-37 -39 -55 -90 -55 -154v0c0 -65 19 -117 58 -156v0c39 -39 86 -59 141 -59v0c69 0 122 28 159 84v0v-73h40v408h-40zM247 379v0c40 0 77 -15 110 -44v0c33 -30 49 -73 49 -128v0
c0 -50 -14 -92 -42 -127v0c-29 -35 -68 -53 -116 -53v0c-49 0 -88 18 -117 54v0c-29 35 -43 77 -43 126v0c0 53 16 95 47 126v0c31 31 68 46 112 46z" />
    <glyph glyph-name="uni0431" unicode="&#x431;" horiz-adv-x="520" 
d="M89 311h-2c2 42 11 85 26 128v0c15 42 38 75 68 100v0c30 24 78 42 143 55v0c8 2 22 6 42 11v0c10 3 23 8 39 15v0c17 8 30 17 40 28v0c11 11 20 25 27 42v0h-50c-11 -24 -41 -42 -90 -53v0c-1 0 -2 0 -4 -1s-5 -1 -9 -2s-8 -1 -11 -2v0c-5 -1 -11 -2 -18 -3
s-10 -2 -11 -2v0c-7 -1 -15 -3 -26 -6v0c-11 -3 -21 -6 -28 -9v0c-2 -1 -6 -2 -11 -4c-6 -3 -11 -5 -14 -6v0c-12 -7 -21 -12 -26 -15v0c-85 -55 -128 -165 -128 -329v0c0 -101 23 -174 70 -218v0c37 -34 84 -51 143 -51v0c61 0 113 20 154 59v0c41 39 61 91 61 156v0
c0 63 -19 115 -56 154v0c-38 39 -88 59 -150 59v0c-37 0 -73 -9 -106 -26v0c-34 -19 -58 -45 -73 -80v0zM259 27v0c-55 0 -98 20 -128 59v0c-26 34 -39 73 -39 118v0c0 46 16 87 47 122s74 53 129 53v0c51 0 91 -17 120 -52v0c29 -35 44 -76 44 -123v0
c0 -47 -14 -88 -43 -123v0c-29 -36 -72 -54 -130 -54z" />
    <glyph glyph-name="uni0432" unicode="&#x432;" horiz-adv-x="414" 
d="M72 408v-408h155c43 0 77 9 100 28v0c27 21 41 51 41 88v0c0 33 -12 61 -35 82v0c-14 12 -31 20 -50 23v0c30 19 45 48 45 85v0c0 33 -12 59 -36 78v0c-20 16 -49 24 -87 24v0h-133zM112 230v140h93c26 0 45 -5 58 -16v0c17 -13 25 -30 25 -53v0c0 -23 -8 -41 -25 -54v0
c-15 -11 -34 -17 -58 -17v0h-93zM112 38v154h115c32 0 56 -6 72 -18v0c18 -14 27 -33 27 -57v0c0 -25 -10 -46 -29 -61v0c-16 -12 -39 -18 -70 -18v0h-115z" />
    <glyph glyph-name="uni0433" unicode="&#x433;" horiz-adv-x="300" 
d="M72 0h40v370h180v38h-220v-408z" />
    <glyph glyph-name="uni0434" unicode="&#x434;" horiz-adv-x="440" 
d="M100 408v-206c0 -49 -6 -86 -17 -110v0c-17 -34 -42 -52 -75 -54v0v-148h38v110h344v-110h38v148h-60v370h-268zM328 38h-240c35 29 52 79 52 152v0v180h188v-332z" />
    <glyph glyph-name="uni0435" unicode="&#x435;" horiz-adv-x="483" 
d="M88 199h349c2 63 -16 116 -53 157v0c-37 41 -83 61 -140 61v0c-53 0 -100 -19 -139 -57s-59 -91 -59 -158v0c0 -61 18 -112 54 -152v0c36 -41 85 -61 147 -61v0c46 0 83 11 112 34v0c30 23 52 48 67 77v0l-34 20c-13 -27 -32 -50 -57 -67s-54 -26 -85 -26v0
c-45 0 -84 16 -117 49v0c-33 32 -48 73 -45 123v0zM395 237h-304c5 41 21 75 50 102v0c27 27 62 40 103 40v0c41 0 75 -13 102 -40v0c28 -28 44 -62 49 -102v0z" />
    <glyph glyph-name="uni0436" unicode="&#x436;" horiz-adv-x="560" 
d="M260 408v-194l-184 194h-52l190 -196l-206 -212h54l178 186l20 -20v-166h40v166l20 20l178 -186h54l-206 212l190 196h-52l-184 -194v194h-40z" />
    <glyph glyph-name="uni0437" unicode="&#x437;" horiz-adv-x="400" 
d="M72 345l33 -23c21 38 52 57 95 57v0c27 0 48 -7 63 -21v0c14 -14 21 -32 21 -53v0c0 -22 -8 -39 -25 -52v0c-15 -11 -36 -17 -61 -17v0h-31v-38h42c34 0 59 -6 75 -18v0c19 -14 28 -34 28 -60v0c0 -29 -11 -53 -32 -70v0c-19 -15 -45 -23 -78 -23v0c-30 0 -56 8 -77 23v0
c-19 13 -33 30 -43 52v0l-36 -23c11 -22 28 -42 51 -60v0c29 -20 64 -30 105 -30v0c43 0 77 10 104 30v0c32 25 48 58 48 100v0c0 33 -10 59 -29 78v0c-14 14 -30 23 -48 27v0c31 17 47 46 47 85v0c0 34 -11 60 -33 79v0c-21 19 -51 29 -90 29v0c-58 0 -101 -24 -129 -72v0z
" />
    <glyph glyph-name="uni0438" unicode="&#x438;" horiz-adv-x="474" 
d="M72 408v-433l290 350v-325h40v431l-290 -350v327h-40z" />
    <glyph glyph-name="uni0439" unicode="&#x439;" horiz-adv-x="474" 
d="M72 408v-433l290 350v-325h40v431l-290 -350v327h-40zM186 538v0c-18 15 -29 32 -34 52v0l-34 -17c20 -63 63 -94 130 -94s110 31 130 94v0l-34 17c-5 -21 -16 -38 -33 -52v0c-17 -14 -38 -21 -63 -21v0c-24 0 -45 7 -62 21z" />
    <glyph glyph-name="uni043A" unicode="&#x43a;" horiz-adv-x="396" 
d="M72 408v-408h40v166l22 21l196 -187h58l-224 214l208 194h-54l-206 -194v194h-40z" />
    <glyph glyph-name="uni043B" unicode="&#x43b;" horiz-adv-x="430" 
d="M358 408h-268v-274c0 -32 -5 -56 -14 -71v0c-13 -18 -31 -27 -53 -27v0c-1 0 -6 1 -15 2v0v-38c12 -1 19 -2 20 -2v0c34 0 60 12 78 37v0c16 21 24 54 24 99v0v236h188v-370h40v408z" />
    <glyph glyph-name="uni043C" unicode="&#x43c;" horiz-adv-x="566" 
d="M24 0h42l66 319l151 -344l151 344l66 -319h42l-96 433l-163 -368l-163 368z" />
    <glyph glyph-name="uni043D" unicode="&#x43d;" horiz-adv-x="454" 
d="M72 0h40v190h230v-190h40v408h-40v-180h-230v180h-40v-408z" />
    <glyph glyph-name="uni043E" unicode="&#x43e;" horiz-adv-x="520" 
d="M108 356v0c-41 -41 -62 -92 -62 -153v0c0 -60 21 -111 62 -152s92 -62 152 -62v0c61 0 112 21 153 62v0c41 41 61 91 61 152v0c0 61 -20 112 -61 153s-92 61 -153 61v0c-61 0 -111 -20 -152 -61zM138 78v0c-33 35 -50 76 -50 125s17 90 50 125v0c33 34 74 51 122 51v0
c49 0 90 -17 123 -51v0c33 -33 49 -75 49 -125s-16 -92 -49 -125v0c-33 -34 -74 -51 -123 -51v0c-48 0 -89 17 -122 51z" />
    <glyph glyph-name="uni043F" unicode="&#x43f;" horiz-adv-x="448" 
d="M72 0h40v370h224v-370h40v408h-304v-408z" />
    <glyph glyph-name="uni0440" unicode="&#x440;" horiz-adv-x="516" 
d="M112 -239v312c6 -10 14 -20 24 -31v0c9 -11 26 -22 51 -34v0c25 -13 52 -19 83 -19v0c60 0 109 21 146 63v0c36 41 54 92 54 155v0c0 61 -18 111 -54 151v0c-36 39 -84 59 -144 59v0c-67 0 -121 -27 -160 -80v0v71h-40v-647h40zM152 79v0c-28 34 -42 77 -42 130v0
c0 53 16 95 48 125v0c31 30 68 45 112 45s81 -15 112 -45v0c31 -31 46 -73 46 -127v0c0 -52 -14 -95 -42 -129s-67 -51 -117 -51s-89 17 -117 52z" />
    <glyph glyph-name="uni0441" unicode="&#x441;" horiz-adv-x="442" 
d="M399 312v53c-41 35 -88 52 -141 52v0c-64 0 -115 -20 -154 -61s-58 -92 -58 -155v0c0 -60 20 -110 59 -151v0c39 -41 89 -61 150 -61v0c57 0 106 19 149 57v0v54c-45 -49 -94 -73 -148 -73v0c-43 0 -82 16 -117 47v0c-34 31 -51 73 -51 128v0c0 51 16 93 48 127v0
c32 33 73 50 122 50v0c55 0 102 -22 141 -67v0z" />
    <glyph glyph-name="uni0442" unicode="&#x442;" horiz-adv-x="340" 
d="M150 0h40v370h142v38h-324v-38h142v-370z" />
    <glyph glyph-name="uni0443" unicode="&#x443;" horiz-adv-x="428" 
d="M102 -239h46l272 647h-46l-149 -363l-171 363h-46l194 -415z" />
    <glyph glyph-name="uni0444" unicode="&#x444;" horiz-adv-x="600" 
d="M280 -239h40v232c67 0 122 18 165 53v0c46 39 69 92 69 158v0c0 67 -23 120 -69 159v0c-41 34 -96 51 -165 51v0v253h-40v-253c-69 0 -124 -17 -165 -51v0c-46 -39 -69 -92 -69 -159v0c0 -67 23 -119 69 -158v0c43 -35 98 -53 165 -53v0v-232zM280 376v-345
c-57 0 -102 14 -137 43v0c-37 30 -55 73 -55 130v0c0 56 18 99 55 130v0c35 29 81 43 137 42v0zM320 31v345c56 1 102 -13 137 -42v0c37 -31 55 -74 55 -130v0c0 -57 -18 -100 -55 -130v0c-35 -29 -80 -43 -137 -43v0z" />
    <glyph glyph-name="uni0445" unicode="&#x445;" horiz-adv-x="400" 
d="M8 0h49l143 188l143 -188h49l-164 214l148 194h-49l-127 -168l-129 168h-49l151 -194z" />
    <glyph glyph-name="uni0446" unicode="&#x446;" horiz-adv-x="444" 
d="M72 0h322v-110h38v148h-60v370h-40v-370h-220v370h-40v-408z" />
    <glyph glyph-name="uni0447" unicode="&#x447;" horiz-adv-x="412" 
d="M300 0h40v408h-40v-201c-41 -7 -78 -10 -112 -10v0c-28 0 -48 4 -61 13v0c-18 13 -27 38 -27 75v0v123h-40v-123c0 -51 12 -86 37 -104v0c21 -15 53 -22 96 -22v0c29 0 65 3 107 10v0v-169z" />
    <glyph glyph-name="uni0448" unicode="&#x448;" horiz-adv-x="644" 
d="M72 0h500v408h-40v-370h-190v370h-40v-370h-190v370h-40v-408z" />
    <glyph glyph-name="uni0449" unicode="&#x449;" horiz-adv-x="644" 
d="M72 0h522v-110h38v148h-60v370h-40v-370h-190v370h-40v-370h-190v370h-40v-408z" />
    <glyph glyph-name="uni044A" unicode="&#x44a;" horiz-adv-x="416" 
d="M8 408v-38h100v-370h136c44 0 77 10 98 31v0c24 22 36 51 36 88v0c0 33 -10 60 -29 81v0c-23 25 -58 38 -104 38v0h-97v170h-140zM148 38v162h94c27 0 49 -6 65 -18v0c19 -15 29 -36 29 -63s-9 -47 -28 -62v0c-15 -13 -36 -19 -64 -19v0h-96z" />
    <glyph glyph-name="uni044B" unicode="&#x44b;" 
d="M72 408v-408h136c44 0 77 10 98 31v0c24 22 36 51 36 88v0c0 33 -10 60 -29 81v0c-23 25 -58 38 -104 38v0h-97v170h-40zM112 38v162h94c27 0 49 -6 65 -18v0c19 -15 29 -36 29 -63s-9 -47 -28 -62v0c-15 -13 -36 -19 -64 -19v0h-96zM388 408v-408h40v408h-40z" />
    <glyph glyph-name="uni044C" unicode="&#x44c;" horiz-adv-x="380" 
d="M72 408v-408h136c44 0 77 10 98 31v0c24 22 36 51 36 88v0c0 33 -10 60 -29 81v0c-23 25 -58 38 -104 38v0h-97v170h-40zM112 38v162h94c27 0 49 -6 65 -18v0c19 -15 29 -36 29 -63s-9 -47 -28 -62v0c-15 -13 -36 -19 -64 -19v0h-96z" />
    <glyph glyph-name="uni044D" unicode="&#x44d;" horiz-adv-x="412" 
d="M38 52v-42c29 -14 66 -21 110 -21v0c65 0 118 19 157 58v0c41 39 61 91 61 158v0c0 68 -23 122 -68 161v0c-39 34 -90 51 -153 51v0c-37 0 -71 -6 -103 -19v0v-40c27 14 61 21 103 21v0c43 0 81 -11 112 -33v0c39 -29 62 -69 67 -118v0h-239v-38h239
c-2 -44 -17 -81 -44 -110v0c-33 -35 -77 -53 -132 -53v0c-44 0 -81 8 -110 25v0z" />
    <glyph glyph-name="uni044E" unicode="&#x44e;" horiz-adv-x="640" 
d="M112 228v180h-40v-408h40v190h70c3 -60 24 -108 64 -145v0c41 -37 88 -56 142 -56v0c59 0 108 21 147 62s59 92 59 152v0c0 61 -20 112 -59 153v0c-39 41 -88 61 -147 61v0c-54 0 -100 -18 -139 -53v0c-39 -36 -61 -81 -67 -136v0h-70zM271 78v0c-31 33 -47 75 -47 125v0
c0 49 16 91 47 126v0c31 33 70 50 117 50s86 -17 117 -50v0c31 -35 47 -77 47 -126v0c0 -50 -16 -92 -47 -125v0c-31 -34 -70 -51 -117 -51s-86 17 -117 51z" />
    <glyph glyph-name="uni044F" unicode="&#x44f;" horiz-adv-x="386" 
d="M28 0h48l128 176h70v-176h40v408h-136c-42 0 -74 -10 -97 -29v0c-25 -21 -37 -51 -37 -90v0c0 -34 11 -61 34 -81v0c22 -19 49 -29 80 -30v0zM274 214h-96c-28 0 -50 6 -66 18v0c-17 13 -26 33 -26 58v0c0 27 9 47 27 62v0c15 12 36 18 65 18v0h96v-156z" />
    <glyph glyph-name="uni0451" unicode="&#x451;" horiz-adv-x="483" 
d="M88 199h349c2 63 -16 116 -53 157v0c-37 41 -83 61 -140 61v0c-53 0 -100 -19 -139 -57s-59 -91 -59 -158v0c0 -61 18 -112 54 -152v0c36 -41 85 -61 147 -61v0c46 0 83 11 112 34v0c30 23 52 48 67 77v0l-34 20c-13 -27 -32 -50 -57 -67s-54 -26 -85 -26v0
c-45 0 -84 16 -117 49v0c-33 32 -48 73 -45 123v0zM395 237h-304c5 41 21 75 50 102v0c27 27 62 40 103 40v0c41 0 75 -13 102 -40v0c28 -28 44 -62 49 -102v0zM127 526c0 -9 4 -18 11 -25s16 -11 25 -11v0c10 0 19 4 26 11v0c7 7 10 15 10 25v0c0 11 -3 19 -10 26
s-15 10 -26 10v0c-10 0 -18 -3 -25 -10v0c-7 -7 -11 -16 -11 -26v0zM293 526c0 -9 4 -18 11 -25s16 -11 25 -11v0c10 0 19 4 26 11v0c7 7 10 15 10 25v0c0 11 -3 19 -10 26s-15 10 -26 10v0c-10 0 -18 -3 -25 -10v0c-7 -7 -11 -16 -11 -26v0z" />
    <glyph glyph-name="uni0452" unicode="&#x452;" horiz-adv-x="442" 
d="M72 0h40v212c0 48 7 85 22 110v0c21 38 55 57 100 57v0c37 0 64 -13 80 -40v0c11 -17 16 -44 16 -82v0v-349c0 -43 -6 -71 -19 -86v0c-13 -15 -31 -23 -52 -23v0c-12 0 -22 2 -31 5v0v-37c14 -4 26 -6 35 -6v0c30 0 55 10 76 31v0c21 20 31 56 31 108v0v357
c0 47 -7 82 -20 103v0c-25 38 -63 57 -113 57v0c-57 0 -98 -24 -125 -73v0v218h180v38h-180v129h-40v-129h-72v-38h72v-562z" />
    <glyph glyph-name="uni0453" unicode="&#x453;" horiz-adv-x="300" 
d="M72 0h40v370h180v38h-220v-408zM235 620l-92 -137l30 -16l105 128z" />
    <glyph glyph-name="uni0454" unicode="&#x454;" horiz-adv-x="441" 
d="M398 312v53c-41 35 -88 52 -141 52v0c-64 0 -115 -20 -153 -61v0c-39 -41 -58 -92 -58 -155v0c0 -60 20 -110 59 -151v0c39 -41 88 -61 149 -61v0c56 0 106 19 149 57v0v54c-45 -49 -94 -73 -148 -73v0c-44 0 -82 15 -115 46v0c-34 31 -51 70 -52 117v0h238v38h-238
c4 43 22 79 54 108v0c31 29 69 43 115 43v0c55 0 102 -22 141 -67v0z" />
    <glyph glyph-name="uni0455" unicode="&#x455;" horiz-adv-x="342" 
d="M254 333l34 18c-19 44 -54 66 -107 66v0c-31 0 -57 -10 -78 -29v0c-21 -20 -31 -45 -31 -76v0c0 -19 6 -37 18 -53v0c1 -2 4 -5 7 -8v0c1 -1 2 -3 4 -4c2 -2 4 -3 5 -4v0c3 -3 6 -5 9 -6v0c1 -1 4 -3 11 -7v0c6 -3 10 -5 11 -6v0c4 -2 8 -4 13 -6v0c3 -1 7 -3 13 -5v0
l14 -6c3 -1 6 -3 9 -4c3 -2 5 -3 6 -3v0c27 -11 47 -22 60 -34v0c12 -11 18 -27 18 -49v0c0 -25 -9 -47 -26 -64s-39 -26 -65 -26v0c-23 0 -44 7 -63 22v0c-19 14 -32 34 -39 60v0l-39 -12c9 -34 26 -60 51 -79v0c25 -19 55 -29 90 -29v0c35 0 67 11 94 33v0
c26 21 39 54 39 97v0c0 27 -7 49 -21 66v0c-3 3 -7 8 -14 15v0c-6 5 -11 9 -15 12v0c-1 1 -7 4 -17 10v0c-3 1 -6 3 -9 5c-4 1 -6 2 -7 2s-3 1 -7 3c-4 1 -8 3 -11 4v0c-10 3 -16 5 -17 6v0c-8 3 -17 7 -26 11c-10 4 -16 6 -17 7v0c-7 3 -15 9 -24 20v0c-9 9 -13 20 -13 34
v0c0 17 6 32 19 45v0c12 13 29 20 50 20v0c35 0 58 -15 71 -46v0z" />
    <glyph glyph-name="uni0456" unicode="&#x456;" horiz-adv-x="184" 
d="M72 408v-408h40v408h-40zM118 518v0c7 7 10 15 10 26v0c0 11 -3 20 -10 27s-15 10 -26 10v0c-10 0 -18 -3 -25 -10v0c-7 -7 -11 -16 -11 -27v0c0 -10 4 -19 11 -26s16 -11 25 -11v0c10 0 19 4 26 11z" />
    <glyph glyph-name="uni0457" unicode="&#x457;" horiz-adv-x="184" 
d="M71 408v-408h40v408h-40zM0 526c0 -9 4 -18 11 -25s16 -11 25 -11v0c10 0 19 4 26 11v0c7 7 10 15 10 25v0c0 11 -3 19 -10 26s-15 10 -26 10v0c-10 0 -18 -3 -25 -10v0c-7 -7 -11 -16 -11 -26v0zM112 526c0 -9 4 -18 11 -25s16 -11 25 -11v0c10 0 19 4 26 11v0
c7 7 10 15 10 25v0c0 11 -3 19 -10 26s-15 10 -26 10v0c-10 0 -18 -3 -25 -10v0c-7 -7 -11 -16 -11 -26v0z" />
    <glyph glyph-name="uni0458" unicode="&#x458;" horiz-adv-x="184" 
d="M72 408v-647h40v647h-40zM118 518v0c7 7 10 15 10 26v0c0 11 -3 20 -10 27s-15 10 -26 10v0c-10 0 -18 -3 -25 -10v0c-7 -7 -11 -16 -11 -27v0c0 -10 4 -19 11 -26s16 -11 25 -11v0c10 0 19 4 26 11z" />
    <glyph glyph-name="uni0459" unicode="&#x459;" horiz-adv-x="626" 
d="M358 408h-268v-274c0 -32 -5 -56 -14 -71v0c-13 -18 -31 -27 -53 -27v0c-1 0 -6 1 -15 2v0v-38c12 -1 19 -2 20 -2v0c34 0 60 12 78 37v0c16 21 24 54 24 99v0v236h188v-370h136c44 0 77 10 98 31v0c24 22 36 51 36 88v0c0 33 -10 60 -29 81v0c-23 25 -58 38 -104 38v0
h-97v170zM358 38v162h94c27 0 49 -6 65 -18v0c19 -15 29 -36 29 -63s-9 -47 -28 -62v0c-15 -13 -36 -19 -64 -19v0h-96z" />
    <glyph glyph-name="uni045A" unicode="&#x45a;" horiz-adv-x="650" 
d="M72 0h40v200h230v-200h136c44 0 77 10 98 31v0c24 22 36 51 36 88v0c0 33 -10 60 -29 81v0c-23 25 -58 38 -104 38v0h-97v170h-40v-170h-230v170h-40v-408zM382 38v162h94c27 0 49 -6 65 -18v0c19 -15 29 -36 29 -63s-9 -47 -28 -62v0c-15 -13 -36 -19 -64 -19v0h-96z
" />
    <glyph glyph-name="uni045B" unicode="&#x45b;" horiz-adv-x="442" 
d="M72 0h40v212c0 48 7 85 22 110v0c21 38 55 57 100 57v0c37 0 64 -13 80 -40v0c11 -17 16 -44 16 -82v0v-257h40v257c0 47 -7 82 -20 103v0c-25 38 -63 57 -113 57v0c-57 0 -98 -24 -125 -73v0v218h180v38h-180v129h-40v-129h-72v-38h72v-562z" />
    <glyph glyph-name="uni045C" unicode="&#x45c;" horiz-adv-x="396" 
d="M72 408v-408h40v166l22 21l196 -187h58l-224 214l208 194h-54l-206 -194v194h-40zM253 620l-92 -137l30 -16l105 128z" />
    <glyph glyph-name="uni045E" unicode="&#x45e;" horiz-adv-x="428" 
d="M102 -239h46l272 647h-46l-149 -363l-171 363h-46l194 -415zM124 590l-34 -17c20 -63 63 -94 130 -94s110 31 130 94v0l-34 17c-5 -21 -16 -38 -33 -52v0c-17 -14 -38 -21 -63 -21v0c-24 0 -45 7 -62 21v0c-18 15 -29 32 -34 52v0z" />
    <glyph glyph-name="uni045F" unicode="&#x45f;" horiz-adv-x="444" 
d="M72 0h130v-130h40v130h130v408h-40v-370h-220v370h-40v-408z" />
    <glyph glyph-name="uni0490" unicode="&#x490;" horiz-adv-x="400" 
d="M90 0h44v627h252v173h-42v-133h-254v-667z" />
    <glyph glyph-name="uni0491" unicode="&#x491;" horiz-adv-x="300" 
d="M72 0h40v370h180v148h-38v-110h-182v-408z" />
    <glyph glyph-name="endash" unicode="&#x2013;" 
d="M50 188h400v38h-400v-38z" />
    <glyph glyph-name="emdash" unicode="&#x2014;" horiz-adv-x="700" 
d="M50 188h600v38h-600v-38z" />
    <glyph glyph-name="quoteleft" unicode="&#x2018;" horiz-adv-x="228" 
d="M164 695l-26 10l-74 -200l40 -12z" />
    <glyph glyph-name="quoteright" unicode="&#x2019;" horiz-adv-x="254" 
d="M64 503l26 -10l74 200l-40 12z" />
    <glyph glyph-name="quotesinglbase" unicode="&#x201a;" horiz-adv-x="254" 
d="M64 -137l26 -10l74 200l-40 12z" />
    <glyph glyph-name="quotedblleft" unicode="&#x201c;" horiz-adv-x="344" 
d="M164 695l-26 10l-74 -200l40 -12zM280 695l-26 10l-74 -200l40 -12z" />
    <glyph glyph-name="quotedblright" unicode="&#x201d;" horiz-adv-x="370" 
d="M64 503l26 -10l74 200l-40 12zM180 503l26 -10l74 200l-40 12z" />
    <glyph glyph-name="quotedblbase" unicode="&#x201e;" horiz-adv-x="370" 
d="M64 -137l26 -10l74 200l-40 12zM180 -137l26 -10l74 200l-40 12z" />
    <glyph glyph-name="dagger" unicode="&#x2020;" horiz-adv-x="548" 
d="M252 553h-160v-40h160v-673h44v673h160v40h-160v176h-44v-176z" />
    <glyph glyph-name="daggerdbl" unicode="&#x2021;" horiz-adv-x="548" 
d="M252 553h-160v-40h160v-378h-160v-40h160v-255h44v255h160v40h-160v378h160v40h-160v176h-44v-176z" />
    <glyph glyph-name="bullet" unicode="&#x2022;" horiz-adv-x="668" 
d="M194 340c0 -39 14 -72 41 -99s60 -41 99 -41s72 14 99 41s41 60 41 99s-14 72 -41 99s-60 41 -99 41s-72 -14 -99 -41s-41 -60 -41 -99z" />
    <glyph glyph-name="ellipsis" unicode="&#x2026;" horiz-adv-x="606" 
d="M64 30c0 -10 4 -19 11 -26s16 -11 26 -11v0c11 0 20 4 27 11v0c7 7 10 15 10 26v0c0 11 -3 20 -10 27s-16 10 -27 10v0c-11 0 -19 -3 -26 -10v0c-7 -7 -11 -16 -11 -27v0zM266 30c0 -10 4 -19 11 -26s16 -11 26 -11v0c11 0 20 4 27 11v0c7 7 10 15 10 26v0
c0 11 -3 20 -10 27s-16 10 -27 10v0c-11 0 -19 -3 -26 -10v0c-7 -7 -11 -16 -11 -27v0zM468 30c0 -10 4 -19 11 -26s16 -11 26 -11v0c11 0 20 4 27 11v0c7 7 10 15 10 26v0c0 11 -3 20 -10 27s-16 10 -27 10v0c-11 0 -19 -3 -26 -10v0c-7 -7 -11 -16 -11 -27v0z" />
    <glyph glyph-name="perthousand" unicode="&#x2030;" horiz-adv-x="930" 
d="M169 673c-41 0 -73 -12 -98 -37s-37 -56 -37 -94s12 -69 37 -94s57 -37 98 -37s73 12 98 37s37 56 37 94s-12 69 -37 94s-57 37 -98 37zM99 476v0c-17 19 -25 41 -25 66s8 47 25 66v0c17 19 41 29 70 29s53 -10 70 -29v0c17 -19 25 -41 25 -66s-8 -47 -25 -66v0
c-17 -19 -41 -29 -70 -29s-53 10 -70 29zM92 1l30 -16l394 681l-30 16zM439 256c-41 0 -73 -12 -98 -37s-37 -56 -37 -94s12 -69 37 -94s57 -37 98 -37s73 12 98 37s37 56 37 94s-12 69 -37 94s-57 37 -98 37zM369 59v0c-17 19 -25 41 -25 66s8 47 25 66v0
c17 19 41 29 70 29s53 -10 70 -29v0c17 -19 25 -41 25 -66s-8 -47 -25 -66v0c-17 -19 -41 -29 -70 -29s-53 10 -70 29zM761 256c-41 0 -73 -12 -98 -37s-37 -56 -37 -94s12 -69 37 -94s57 -37 98 -37s73 12 98 37s37 56 37 94s-12 69 -37 94s-57 37 -98 37zM691 59v0
c-17 19 -25 41 -25 66s8 47 25 66v0c17 19 41 29 70 29s53 -10 70 -29v0c17 -19 25 -41 25 -66s-8 -47 -25 -66v0c-17 -19 -41 -29 -70 -29s-53 10 -70 29z" />
    <glyph glyph-name="guilsinglleft" unicode="&#x2039;" horiz-adv-x="242" 
d="M188 333l-26 24l-130 -150l130 -150l26 24l-108 126z" />
    <glyph glyph-name="guilsinglright" unicode="&#x203a;" horiz-adv-x="242" 
d="M54 81l26 -24l130 150l-130 150l-26 -24l108 -126z" />
    <glyph glyph-name="uni20A0" unicode="&#x20a0;" horiz-adv-x="20" 
 />
    <glyph glyph-name="Euro" unicode="&#x20ac;" horiz-adv-x="548" 
d="M504 470v38c-39 28 -93 42 -162 42v0c-75 0 -132 -20 -171 -59v0c-41 -40 -65 -93 -74 -157v0h-53l-13 -30h62v-15c-1 -6 -1 -12 -1 -18v0c0 -9 1 -21 2 -34v0h-50l-13 -30h66c21 -145 103 -217 245 -217v0c71 0 125 14 162 41v0v39c-45 -32 -97 -48 -158 -48v0
c-57 0 -104 16 -139 49v0c-35 32 -57 77 -65 136v0h256l13 30h-274c-1 14 -2 25 -2 33v0c0 7 1 18 2 34v0h304l13 30h-313c7 53 28 97 61 132v0c34 34 82 51 144 51v0c66 0 119 -15 158 -47v0z" />
    <glyph glyph-name="uni20B8" unicode="&#x20b8;" horiz-adv-x="372" 
d="M170 0h40v387h142v40h-324v-40h142v-387zM28 560h324v-39h-324v39z" />
    <glyph glyph-name="uni20BD" unicode="&#x20bd;" horiz-adv-x="454" 
d="M154 266h86c59 0 106 13 141 40c35 26 53 62 53 108v0c0 46 -18 82 -55 108v0c-37 25 -84 38 -140 38v0h-129v-560h44v266zM154 526h81c49 0 86 -10 113 -30s40 -48 40 -83v0c0 -35 -13 -62 -40 -82v0c-27 -21 -62 -31 -106 -31v0h-88v226zM40 300h70v-33h-70v33zM40 167
h70v-34h-70v34zM154 166h168v-33h-168v33z" />
    <glyph glyph-name="uni2116" unicode="&#x2116;" horiz-adv-x="940" 
d="M134 0v547l448 -564v684h-44v-557l-448 564v-674h44zM773 667c-41 0 -73 -12 -98 -37s-37 -56 -37 -94s12 -69 37 -94s57 -37 98 -37s73 12 98 37s37 56 37 94s-12 69 -37 94s-57 37 -98 37zM703 470v0c-17 19 -25 41 -25 66s8 47 25 66v0c17 19 41 29 70 29
s53 -10 70 -29v0c17 -19 25 -41 25 -66s-8 -47 -25 -66v0c-17 -19 -41 -29 -70 -29s-53 10 -70 29zM658 279h230v46h-230v-46z" />
    <glyph glyph-name="trademark" unicode="&#x2122;" horiz-adv-x="720" 
d="M226 631v36h-226v-36h93v-344h40v344h93zM303 287l30 277l140 -299l140 299l31 -277h38l-45 410l-164 -348l-163 348l-45 -410h38z" />
  </font>
</defs>
</svg>
