<svg width="9" height="10" viewBox="0 0 9 10" fill="none" xmlns="http://www.w3.org/2000/svg">
<path fill-rule="evenodd" clip-rule="evenodd" d="M8.38909 1.818C8.58435 1.62273 8.58435 1.30615 8.38909 1.11089C8.19382 0.915627 7.87724 0.915627 7.68198 1.11089L4.5 4.29287L1.31802 1.11089C1.12276 0.915626 0.806175 0.915627 0.610913 1.11089C0.41565 1.30615 0.41565 1.62273 0.610913 1.818L3.79289 4.99998L0.610913 8.18196C0.41565 8.37722 0.41565 8.6938 0.610913 8.88906C0.806175 9.08433 1.12276 9.08433 1.31802 8.88906L4.5 5.70708L7.68198 8.88906C7.87724 9.08433 8.19382 9.08433 8.38909 8.88906C8.58435 8.6938 8.58435 8.37722 8.38909 8.18196L5.20711 4.99998L8.38909 1.818Z" fill="#2E3131"/>
</svg>
