<svg width="23" height="23" viewBox="0 0 23 23" fill="none" xmlns="http://www.w3.org/2000/svg">
<path d="M16.9359 12.297L15.8667 11.199C15.6126 10.974 15.4636 10.641 15.4548 10.272C15.4373 9.867 15.595 9.462 15.8842 9.165L16.9359 8.085C17.8473 7.149 18.189 6.249 17.8998 5.538C17.6194 4.836 16.7518 4.449 15.4724 4.449H6.31452V3.675C6.31452 3.306 6.01656 3 5.65726 3C5.29796 3 5 3.306 5 3.675V20.325C5 20.694 5.29796 21 5.65726 21C6.01656 21 6.31452 20.694 6.31452 20.325V15.933H15.4724C16.7343 15.933 17.5844 15.537 17.8735 14.826C18.1627 14.115 17.8297 13.224 16.9359 12.297Z" fill="#F31260"/>
</svg>
