<svg width="23" height="23" viewBox="0 0 23 23" fill="none" xmlns="http://www.w3.org/2000/svg">
<path d="M15.0675 3H7.94096C4.84542 3 3 4.8445 3 7.9385V15.053C3 18.1555 4.84542 20 7.94096 20H15.059C18.1546 20 20 18.1555 20 15.0615V7.9385C20.0085 4.8445 18.1631 3 15.0675 3ZM12.6353 15.75H10.3647C10.016 15.75 9.72685 15.461 9.72685 15.1125C9.72685 14.764 10.016 14.475 10.3647 14.475H12.6353C12.984 14.475 13.2731 14.764 13.2731 15.1125C13.2731 15.461 12.9925 15.75 12.6353 15.75ZM14.9059 12.1375H8.10254C7.75387 12.1375 7.46472 11.8485 7.46472 11.5C7.46472 11.1515 7.75387 10.8625 8.10254 10.8625H14.9059C15.2546 10.8625 15.5438 11.1515 15.5438 11.5C15.5438 11.8485 15.2546 12.1375 14.9059 12.1375ZM16.6068 8.525H6.4017C6.05302 8.525 5.76388 8.236 5.76388 7.8875C5.76388 7.539 6.05302 7.25 6.4017 7.25H16.6068C16.9555 7.25 17.2446 7.539 17.2446 7.8875C17.2446 8.236 16.9555 8.525 16.6068 8.525Z" fill="#171717"/>
</svg>
