<svg width="22" height="22" viewBox="0 0 22 22" fill="none" xmlns="http://www.w3.org/2000/svg">
<path d="M4.85737 17.144C5.26994 17.5566 5.50172 18.1163 5.50172 18.6998C5.50172 19.2833 5.26994 19.8429 4.85737 20.2556C3.68527 21.0592 2.37696 21.6432 0.996148 21.9791C0.862125 22.0101 0.722437 22.0065 0.590156 21.9688C0.457876 21.9311 0.337326 21.8604 0.239787 21.7634C0.142247 21.6664 0.070907 21.5463 0.0324409 21.4142C-0.00602511 21.2821 -0.0103595 21.1425 0.0198433 21.0083C0.35461 19.6266 0.93764 18.3172 1.74052 17.144C1.94492 16.9389 2.1878 16.7761 2.45523 16.6651C2.72266 16.554 3.00938 16.4969 3.29894 16.4969C3.58851 16.4969 3.87523 16.554 4.14266 16.6651C4.41009 16.7761 4.65297 16.9389 4.85737 17.144ZM5.73467 7.46183C5.74933 7.44074 5.76492 7.41966 5.73467 7.46183V7.46183ZM16.4997 7.79279C16.4997 7.18492 16.2582 6.60195 15.8284 6.17213C15.3986 5.7423 14.8157 5.50082 14.2079 5.50082C13.6001 5.50082 13.0171 5.7423 12.5873 6.17213C12.1576 6.60195 11.9161 7.18492 11.9161 7.79279C11.9161 8.40066 12.1576 8.98363 12.5873 9.41345C13.0171 9.84328 13.6001 10.0848 14.2079 10.0848C14.8157 10.0848 15.3986 9.84328 15.8284 9.41345C16.2582 8.98363 16.4997 8.40066 16.4997 7.79279ZM14.6883 16.1621L14.6956 16.1566C14.5052 16.8239 14.2526 17.4719 13.9411 18.092C13.208 19.6901 11.968 21.0017 10.4136 21.8233C10.0748 21.9646 9.70626 22.0198 9.34091 21.9841C8.97556 21.9484 8.62472 21.8228 8.31967 21.6186C8.01462 21.4144 7.76484 21.1378 7.5926 20.8136C7.42036 20.4894 7.331 20.1276 7.33251 19.7605V17.419C7.32889 16.6907 7.03798 15.9932 6.52301 15.4782C6.00804 14.9632 5.31062 14.6723 4.58235 14.6687H2.19155C1.83253 14.6702 1.47872 14.5828 1.16166 14.4144C0.844608 14.2459 0.574174 14.0016 0.37448 13.7032C0.174787 13.4049 0.0520423 13.0617 0.0171954 12.7043C-0.0176516 12.347 0.0364824 11.9866 0.174769 11.6552C0.978003 10.1349 2.26052 8.92223 3.82331 8.20534C4.43563 7.89793 5.07558 7.64899 5.73467 7.46183C5.70625 7.50217 5.72 7.482 5.73467 7.46183C9.24661 2.56711 13.2628 0.15688 18.753 0.000109927C19.1771 -0.00339463 19.5978 0.0769287 19.9908 0.236467C20.3838 0.396006 20.7414 0.631617 21.0432 0.92977C21.3449 1.22792 21.5847 1.58274 21.7489 1.97386C21.9131 2.36497 21.9984 2.78467 22 3.20886C21.8432 8.738 19.5936 12.6453 14.6965 16.1566L14.6883 16.1621ZM19.2498 3.17036C19.2417 3.05501 19.1896 2.9472 19.1043 2.86909C19.019 2.79099 18.9071 2.74853 18.7915 2.75047C14.1749 2.88248 11.1827 4.58404 8.14655 8.81409C7.40559 9.87518 6.74581 10.9907 6.17286 12.1512C7.02708 12.4103 7.80566 12.8729 8.44179 13.4991C9.07792 14.1254 9.55259 14.8967 9.82506 15.7468L11.8079 14.7604C12.2718 14.4853 12.7411 14.1791 13.1876 13.8592C17.4164 10.8182 19.1178 7.82579 19.2498 3.17036ZM14.6956 16.1566L14.7048 16.1502L14.6965 16.1566H14.6956Z" fill="#171717"/>
</svg>
