<svg width="43" height="43" viewBox="0 0 43 43" fill="none" xmlns="http://www.w3.org/2000/svg">
<path fill-rule="evenodd" clip-rule="evenodd" d="M25.3218 14.6256V16.4692C24.3334 14.9329 22.8069 14.1647 20.7422 14.1647C18.6557 14.1647 16.9534 14.889 15.6356 16.3375C14.3177 17.786 13.6588 19.5857 13.6588 21.7365C13.6588 23.8654 14.3287 25.665 15.6685 27.1355C17.0303 28.6059 18.7874 29.3412 20.9399 29.3412C22.7849 29.3412 24.2455 28.573 25.3218 27.0367V28.8803H29.3412V14.6256H25.3218ZM21.7636 17.7201C22.9057 17.7201 23.8502 18.1042 24.5969 18.8724C25.3437 19.6405 25.7171 20.5952 25.7171 21.7365C25.7171 22.8777 25.3437 23.8434 24.5969 24.6335C23.8502 25.4017 22.9057 25.7857 21.7636 25.7857C20.6214 25.7857 19.677 25.4017 18.9302 24.6335C18.1834 23.8434 17.81 22.8777 17.81 21.7365C17.81 20.5952 18.1834 19.6405 18.9302 18.8724C19.677 18.1042 20.6214 17.7201 21.7636 17.7201Z" fill="#171717"/>
<path fill-rule="evenodd" clip-rule="evenodd" d="M43 21.5C43 33.3741 33.3741 43 21.5 43C9.62588 43 0 33.3741 0 21.5C0 9.62588 9.62588 0 21.5 0C33.3741 0 43 9.62588 43 21.5ZM40.9765 21.5C40.9765 32.2566 32.2566 40.9765 21.5 40.9765C10.7434 40.9765 2.02353 32.2566 2.02353 21.5C2.02353 10.7434 10.7434 2.02353 21.5 2.02353C32.2566 2.02353 40.9765 10.7434 40.9765 21.5Z" fill="#171717"/>
</svg>
