<svg width="52" height="52" viewBox="0 0 52 52" fill="none" xmlns="http://www.w3.org/2000/svg">
<g filter="url(#filter0_d_170_18)">
<circle cx="24" cy="22" r="19" fill="#979898"/>
</g>
<path fill-rule="evenodd" clip-rule="evenodd" d="M24.5228 12.5C24.5228 12.2239 24.2989 12 24.0228 12C23.7466 12 23.5228 12.2239 23.5228 12.5V21.5228H14.5C14.2239 21.5228 14 21.7467 14 22.0228C14 22.299 14.2239 22.5228 14.5 22.5228H23.5228V31.5457C23.5228 31.8218 23.7466 32.0457 24.0228 32.0457C24.2989 32.0457 24.5228 31.8218 24.5228 31.5457V22.5228H33.5457C33.8218 22.5228 34.0457 22.299 34.0457 22.0228C34.0457 21.7467 33.8218 21.5228 33.5457 21.5228H24.5228V12.5Z" fill="white"/>
<defs>
<filter id="filter0_d_170_18" x="0" y="0" width="52" height="52" filterUnits="userSpaceOnUse" color-interpolation-filters="sRGB">
<feFlood flood-opacity="0" result="BackgroundImageFix"/>
<feColorMatrix in="SourceAlpha" type="matrix" values="0 0 0 0 0 0 0 0 0 0 0 0 0 0 0 0 0 0 127 0" result="hardAlpha"/>
<feOffset dx="2" dy="4"/>
<feGaussianBlur stdDeviation="3.5"/>
<feComposite in2="hardAlpha" operator="out"/>
<feColorMatrix type="matrix" values="0 0 0 0 0 0 0 0 0 0 0 0 0 0 0 0 0 0 0.1 0"/>
<feBlend mode="normal" in2="BackgroundImageFix" result="effect1_dropShadow_170_18"/>
<feBlend mode="normal" in="SourceGraphic" in2="effect1_dropShadow_170_18" result="shape"/>
</filter>
</defs>
</svg>
