<svg width="16" height="16" viewBox="0 0 16 16" fill="none" xmlns="http://www.w3.org/2000/svg">
<path fill-rule="evenodd" clip-rule="evenodd" d="M12.375 6.70831C12.375 9.6078 10.0245 11.9583 7.125 11.9583C4.2255 11.9583 1.875 9.6078 1.875 6.70831C1.875 3.80882 4.2255 1.45831 7.125 1.45831C10.0245 1.45831 12.375 3.80882 12.375 6.70831ZM10.7069 11.8307C9.69261 12.5413 8.4575 12.9583 7.125 12.9583C3.67322 12.9583 0.875 10.1601 0.875 6.70831C0.875 3.25653 3.67322 0.458313 7.125 0.458313C10.5768 0.458313 13.375 3.25653 13.375 6.70831C13.375 8.4663 12.6492 10.0548 11.4809 11.1904L14.9785 14.6881C15.1738 14.8833 15.1738 15.1999 14.9785 15.3952C14.7833 15.5905 14.4667 15.5905 14.2714 15.3952L10.7069 11.8307Z" fill="white"/>
</svg>
