<svg width="40" height="40" viewBox="0 0 40 40" fill="none" xmlns="http://www.w3.org/2000/svg">
<path d="M22.1875 27.5C22.1875 27.7486 22.0887 27.9871 21.9129 28.1629C21.7371 28.3387 21.4986 28.4375 21.25 28.4375C20.6698 28.4375 20.1134 28.207 19.7032 27.7968C19.293 27.3866 19.0625 26.8302 19.0625 26.25V20C19.0625 19.9171 19.0296 19.8376 18.971 19.779C18.9124 19.7204 18.8329 19.6875 18.75 19.6875C18.5014 19.6875 18.2629 19.5887 18.0871 19.4129C17.9113 19.2371 17.8125 18.9986 17.8125 18.75C17.8125 18.5014 17.9113 18.2629 18.0871 18.0871C18.2629 17.9113 18.5014 17.8125 18.75 17.8125C19.3302 17.8125 19.8866 18.043 20.2968 18.4532C20.707 18.8634 20.9375 19.4198 20.9375 20V26.25C20.9375 26.3329 20.9704 26.4124 21.029 26.471C21.0876 26.5296 21.1671 26.5625 21.25 26.5625C21.4986 26.5625 21.7371 26.6613 21.9129 26.8371C22.0887 27.0129 22.1875 27.2514 22.1875 27.5ZM19.375 14.6875C19.684 14.6875 19.9861 14.5959 20.2431 14.4242C20.5 14.2525 20.7003 14.0085 20.8186 13.7229C20.9368 13.4374 20.9678 13.1233 20.9075 12.8202C20.8472 12.5171 20.6984 12.2387 20.4799 12.0201C20.2613 11.8016 19.9829 11.6528 19.6798 11.5925C19.3767 11.5322 19.0626 11.5632 18.7771 11.6814C18.4916 11.7997 18.2475 12 18.0758 12.2569C17.9041 12.5139 17.8125 12.816 17.8125 13.125C17.8125 13.5394 17.9771 13.9368 18.2702 14.2299C18.5632 14.5229 18.9606 14.6875 19.375 14.6875ZM35.9375 20C35.9375 23.1521 35.0028 26.2335 33.2516 28.8544C31.5003 31.4753 29.0112 33.5181 26.099 34.7243C23.1868 35.9306 19.9823 36.2462 16.8908 35.6313C13.7992 35.0163 10.9594 33.4984 8.73049 31.2695C6.50159 29.0406 4.98369 26.2008 4.36874 23.1093C3.75379 20.0177 4.06941 16.8132 5.27568 13.901C6.48195 10.9888 8.5247 8.49969 11.1456 6.74845C13.7665 4.99722 16.8479 4.0625 20 4.0625C24.2254 4.06746 28.2763 5.74818 31.264 8.73597C34.2518 11.7238 35.9325 15.7746 35.9375 20ZM34.0625 20C34.0625 17.2187 33.2378 14.4999 31.6925 12.1873C30.1473 9.87473 27.9511 8.0723 25.3815 7.00794C22.8119 5.94359 19.9844 5.6651 17.2565 6.20771C14.5287 6.75031 12.023 8.08963 10.0563 10.0563C8.08964 12.023 6.75032 14.5287 6.20771 17.2565C5.66511 19.9844 5.94359 22.8119 7.00795 25.3815C8.07231 27.9511 9.87473 30.1473 12.1873 31.6925C14.4999 33.2377 17.2187 34.0625 20 34.0625C23.7283 34.0584 27.3028 32.5755 29.9391 29.9391C32.5755 27.3028 34.0584 23.7283 34.0625 20Z" fill="#2E3131"/>
</svg>
