<svg width="37" height="38" viewBox="0 0 37 38" fill="none" xmlns="http://www.w3.org/2000/svg">
<path d="M18.5 0C20.9533 0 23.306 1.00089 25.0407 2.78249C26.7754 4.56408 27.75 6.98044 27.75 9.5C27.75 12.0196 26.7754 14.4359 25.0407 16.2175C23.306 17.9991 20.9533 19 18.5 19C16.0467 19 13.694 17.9991 11.9593 16.2175C10.2246 14.4359 9.25 12.0196 9.25 9.5C9.25 6.98044 10.2246 4.56408 11.9593 2.78249C13.694 1.00089 16.0467 0 18.5 0ZM18.5 38C18.5 38 37 38 37 33.25C37 27.55 27.9812 21.375 18.5 21.375C9.01875 21.375 0 27.55 0 33.25C0 38 18.5 38 18.5 38Z" fill="#2E3131"/>
</svg>
