<svg width="17" height="18" viewBox="0 0 17 18" fill="none" xmlns="http://www.w3.org/2000/svg">
<path d="M7.96875 13.4268H6.375C5.59583 13.4268 4.95833 14.0643 4.95833 14.8434V15.0205H4.25C3.95958 15.0205 3.71875 15.2614 3.71875 15.5518C3.71875 15.8422 3.95958 16.083 4.25 16.083H12.75C13.0404 16.083 13.2812 15.8422 13.2812 15.5518C13.2812 15.2614 13.0404 15.0205 12.75 15.0205H12.0417V14.8434C12.0417 14.0643 11.4042 13.4268 10.625 13.4268H9.03125V11.8047C8.85417 11.8259 8.67708 11.833 8.5 11.833C8.32292 11.833 8.14583 11.8259 7.96875 11.8047V13.4268Z" fill="#171717"/>
<path d="M13.0902 8.74435C13.5577 8.56727 13.9686 8.27685 14.2944 7.95102C14.9532 7.22143 15.3852 6.35018 15.3852 5.33018C15.3852 4.31018 14.5848 3.50977 13.5648 3.50977H13.1682C12.7077 2.56768 11.7444 1.91602 10.6252 1.91602H6.37523C5.25607 1.91602 4.29273 2.56768 3.83232 3.50977H3.43565C2.41565 3.50977 1.61523 4.31018 1.61523 5.33018C1.61523 6.35018 2.04732 7.22143 2.70607 7.95102C3.0319 8.27685 3.44273 8.56727 3.91023 8.74435C4.6469 10.5577 6.41773 11.8327 8.50024 11.8327C10.5827 11.8327 12.3536 10.5577 13.0902 8.74435ZM10.5119 6.48477L10.0727 7.0231C10.0019 7.10102 9.95232 7.25685 9.9594 7.3631L10.0019 8.05727C10.0302 8.48227 9.72565 8.70185 9.32899 8.54602L8.6844 8.29102C8.58524 8.2556 8.41523 8.2556 8.31607 8.29102L7.67148 8.54602C7.27482 8.70185 6.97023 8.48227 6.99857 8.05727L7.04107 7.3631C7.04815 7.25685 6.99857 7.10102 6.92773 7.0231L6.48857 6.48477C6.21232 6.15893 6.33274 5.79768 6.74357 5.69143L7.41649 5.52143C7.52274 5.4931 7.65024 5.39393 7.7069 5.30185L8.08232 4.72102C8.31607 4.35977 8.6844 4.35977 8.91815 4.72102L9.29357 5.30185C9.35023 5.39393 9.47774 5.4931 9.58398 5.52143L10.2569 5.69143C10.6677 5.79768 10.7882 6.15893 10.5119 6.48477Z" fill="#171717"/>
</svg>
